<svg width="57" height="99" fill="none" xmlns="http://www.w3.org/2000/svg"><path d="M57 99c-3.988-6.668-10.105-18.012-15.53-23.788-6.402-6.819-3.973-3.752-15.314-13.626-2.786 1.351-8.185-1.417-12.353-1.918-5.814-.698-10.375.33-12.246-.654-3.213-1.692-2.21-9.548 11.659-6.126 2.827.698 7.455 3.944 10.17 4.995-6.26-5.753-9.588-12.505-10.016-20.885-13.63 2.18-16.64-15.513-9.938-19.17 5.915-3.226 4.687 11.424 9.901 15.036-2.169-8.227-1.123-16.815 4.307-23.882 2.26-2.941 11.879-13.95 13.112-6.36 1.287 7.916-16 23.99-15.708 28.846 1.581-3.568 4.94-5.46 7.962-8.002 2.724-2.291 10.837-3.63 9.256 2.24-2.234 8.29-10.79 11.163-16.115 12.07-.975 3.135.351 7.78 3.98 12.652 2.149 2.886 7.37 6.198 9.763 8.884-1.789-4.905-1.753-10.306-.503-15.606 1.478-6.263 8.619-8.58 13.093-3.765 2.44 2.626-3.917 3.378-7.298 8.37-2.817 4.16-2.59 12.897-2.59 12.897s-1.126.243 4.783 4.885c10.072 7.913 14.39 8.762 19.336 18.633L57 99z" fill="#45C8DA"/></svg>