<svg width="184" height="144" fill="none" xmlns="http://www.w3.org/2000/svg"><path d="M184 142.962c-6.026-7.008-8.964-12.57-17.812-16.191-11.339-4.642-32.929-8.767-44.661-17.179-8.465-6.071-10.719-17.536-18.419-24.418-6.613-5.91-8.483-6.672-16.549-10.238 8.788-8.73-10.648-26.14-3.557-1.685C68.087 62.257 52.444 59.268 38.739 46.17c-1.23-1.175-7.086-9.256-11.026-16.255a66.405 66.405 0 01-1.63-3.07c-1.61-3.252-1.483-7.565-1.483-7.565s5.157-7.367 5.854-12.9c.758-6.003-6.786-9.741-7.8-2.05-.569 4.32-.23 6.75-.095 11.104-3.679-3.718-5.985-8.268-10.14-11.455C10.791 2.73-.37-2.68.01 4.655c.539 10.4 22.182 15.488 22.182 15.488s1.287 4.723 2.879 7.898c3.675 7.33 10.383 17.609 16.68 22.501 8.406 6.532 21.893 12.52 30.979 18.083 5.703 3.492 3.851 1.782 9.688 5.588-.313.085-21.576 1.464-14.561 6.881 7.526 5.813 17.82-5.137 17.82-5.137s11.902 4.686 17.889 12.111c9.341 11.587 14.78 22.584 22.399 26.008 12.575 5.651 24.649 7.365 37.337 12.766 4.97 2.115 6.027 1.685 10.938 5.975 4.911 4.29 8.705 11.183 8.705 11.183l1.056-1.038z" fill="#45C8DA"/></svg>