<svg width="80" height="57" fill="none" xmlns="http://www.w3.org/2000/svg"><path d="M0 57c2.013-.645 14.012-4.108 17.463-6.208 3.68-2.24 9.52-8.15 9.52-8.15s2.988 2.362 4.647 2.283c6.386-.304 12.323-8.328 15.546-12.703-6.837 3.7-9.056-1.6-17.33 6.714 5.198-8.623 8.679-14.095 18.915-18.473 5.605-2.397 12.043-2.471 17.847-4.36C74.439 13.553 76.652 6.646 80 0c-3.835 1.426-11.704 3.916-14.447 7.123C63.097 9.993 61.018 16 61.018 16s-4.263.278-6.232 1.02c-4.329 1.634-5.428 1.701-9.61 3.674 4.617-3.648 4.898-8.082 6.306-12.912-12.264 6.456-8.525 14.283-8.525 14.283s-5.051 3.208-7.271 5.887C25.236 40.545 20.472 52.975 1.504 52.631L0 57z" fill="#45C8DA"/></svg>