<svg width="72" height="54" fill="none" xmlns="http://www.w3.org/2000/svg"><path d="M72 45.414c-9.793.227-12.607-10.679-16.82-17.306-3.942-6.2-13.787-12.165-20.153-14.943-4.79-2.09-15.225-3.706-15.225-3.706S16.53.72 11.522.065c-5.01-.655-2.833 3.785.053 7.111C5.79 5.24-.665 3.437.055 7.886c.72 4.447 8.57 2.44 10.974 2.434-1.497.618-8.385 5.03-3.04 6.399 6.35 1.628 11.472-5.307 11.472-5.307s12.535 1.552 19.078 5.595c4.398 2.718 12.18 7.656 14.676 11.895C57.958 36.96 59.35 53.162 71.065 54L72 45.414z" fill="#45C8DA"/></svg>