<svg width="32" height="94" fill="none" xmlns="http://www.w3.org/2000/svg"><path d="M0 22.401c8.857 6.838 11.728 15.864 15.758 21.977-2.777-6.88-2.978-11.725-.293-18.638.15-3.624-3.114-5.436 2.119-13.615C20.534 7.511 22.91 9.843 28.043 0c2.42 16.018.78 21.393-10.53 26.588-3.845 7.604-.216 15.639 2.04 22.792-.552-9.84 9.062-15.042 7.094-25.05 4.96 6.986 7.309 13.917 3.371 21.655-1.396 2.736-4.617 4.611-9.12 6.623.086 7.722-.809 17.365-3.586 24.9C14.899 84.063 14.964 89.258 9.91 94c-4.847-2.56 7.008-4.613 8.254-42.21-5.956-8.676-9.049 1.376-15.166-9.922C.217 36.732 3.367 31.055 0 22.401z" fill="#45C8DA"/></svg>