<svg width="170" height="48" fill="none" xmlns="http://www.w3.org/2000/svg"><path d="M169.713 47.433c.707-6.495.397-9.472-4.3-14.05-9.496-9.254-14.298-11.485-25.897-17.579C111.591 1.133 75.478-6.504 45.639 7.092 35.55 11.688 18.51 26.254 18.51 26.254S4.188 19.61.19 30.891c-1.974 5.566 12.102.025 13.866-.85-3.97 7.046-9.292 20.576 1.2 17.515 8.167-2.382 5.484-19.888 5.484-19.888s15.815-13.285 25.696-18.05c8.738-4.212 18.325-7.36 27.51-6.789 11.418.711 18.987 1.056 30.331 2.522 13.683 1.769 32.598 12.809 43.418 19.325 7.578 4.564 11.701 7.47 16.857 13.523 6.325 7.426-6.894 9.404 5.161 9.234z" fill="#45C8DA"/></svg>