<svg width="80" height="84" fill="none" xmlns="http://www.w3.org/2000/svg"><path d="M65.115 66.905s20.182-10.807 13.546-37.052C76.16 19.957 70.529 18.096 71.305 0c-4.625 10.878-2.306 17.222-4.8 34.242-2.151 14.656-7.844 13.63-11.428 21.27-4.994-14.926 10.332-30.633-8.944-42.765-7.127-4.487-16.176-4.569-18.776-1.978C70.23 18.783 31.71 43.118 38.83 57.196 20.267 43.487 16.7 40.743 0 42.59c17.609 3.22 16.752 13.745 30.564 27.268-7.676-6.727-24.303-4.03-25.937 11.212 9.517-10.807 15.145.862 27.723 2.683 7.985 1.157 13.165-1.955 18.063-4.748 1.718-.98 7.172 1.98 10.413-.679 6.434-5.278 4.29-11.42 4.29-11.42z" fill="#7746FF"/></svg>