<svg width="81" height="94" fill="none" xmlns="http://www.w3.org/2000/svg"><path d="M19.634 12.882c11.465-3.569 15.239-3.278 27.34-.38 5.404 1.294 5.266 12.349 5.1 14.54 5.931-9.58 10.393-7.748 14.137-13.116C68.934 10.034 69.984 4.423 71.73 0c.746 5.615 2.947 12.308 3.157 17.968.442 12.203-6.96 17.195-15.158 18.969C80.826 41.157 76.263 50.53 81 64.687c-12.79-13.696-13.536-.209-23.545-10.768.507 18.076 2.947 28.764-11.863 40.081 11.674-18.078-.5-17.825-6.453-36.158-15.557-1.794-17.477 14.72-17.55 14.944C19.33 67.378 15.63 59.4 18.41 53.78c3.05-6.16 11.567-9.565 11.567-9.565S22.285 33.758 9.633 33.628C6.033 33.59 2.376 35.11 0 36.75c1.282-3.171 6.221-14.646 16.354-16.724C26.486 17.948 37.87 31.698 41.73 28.25c-9.335-2.921-11.747-13.037-22.097-15.368z" fill="#7746FF"/></svg>