<svg width="112" height="113" fill="none" xmlns="http://www.w3.org/2000/svg"><path d="M0 113c15.242-8.164 40.332-10.829 47.039-29.985 3.57-10.193 5.414-26.684 11.271-35.884C65.808 35.361 77.16 49.221 91 22c-18.348 27.2-30.157 9.385-37.952 26.316-4.369 9.476-9.217 27.727-15.779 35.837-5.857 7.233-9.217 4.532-15.996 10.133L0 113z" fill="#45C8DA"/><path d="M49.334 84.65c1.12-4.039 5.038-12.663 10.71-12.65 1.44.003 3.902 1.296 4.76 2.481.161.225.387.94.561 1.229.073.128.547.644.583.774.255.905-.48 2.112-.983 2.77-1.15 1.499-3.997.608-5.562.643-2.65.059-5.716.905-7.448 3.045" fill="#E5ADD6"/><path d="M49.334 86.38c1.631-2.263 4.023-3.598 6.58-4.525 1.677-.606 6.625-.928 8.016.584 1.835 2.003.955 5.756-1.947 6.008-2.497.217-5.19-.274-7.626-.817-1.12-.25-1.7-.65-2.903-.555m-3.085.875c-2.165 1.445-2.261 2.282-2.365 4.787-.148 3.44 3.44 6.79 6.71 7.689 1.808.497 4.188-.154 5.818-.92 2.691-1.272 3.344-3.308 2.892-5.966-.112-.676-.2-1.135-.682-1.69-1.401-1.608-5.323-1.83-7.347-1.97-1.49-.104-3.054-.11-3.81-1.52" fill="#E5ADD6"/><path d="M44.914 91.25c-.574.519-1.293.91-1.724 1.557-.596.888-.883 1.954-1.3 2.944-1.084 2.585-1.487 5.383.603 7.6 1.689 1.793 3.937 2.547 5.33.057.072-.121.367-.674.388-.85.13-1.064-.926-1.462-1.307-2.282-1.049-2.244-2.162-5.22-1.358-7.74m47.425-74.759c.083-.16.25-.303.242-.483-.083-2.02-.159-4.056-.52-6.045-.415-2.265-1.562-3.948-2.346-6.005-.467-1.224-1.93-2.95-1.093-4.273.46-.722 1.176-.932 1.983-.967 2.556-.11 4.42 1.995 5.294 4.313.882 2.36.897 5.804.12 8.181-.475 1.456-1.56 2.6-2.186 3.99m1.107-.378c1.432-3.44 2.989-6.908 4.655-10.237 1.111-2.209 2.821-4.392 5.014-5.522 1.673-.862 3.135-.099 2.901 1.894-.11.95-.643 1.701-1.096 2.499-2.032 3.556-5.599 5.5-8.464 8.223m-4.106 5.738c2.79-3.684 7.293-7.452 12.162-7.001 1.618.15 3.251.834 4.394 2.1 1.296 1.439 1.398 4.356-.352 5.395-3.156 1.872-6.736-.053-9.929-.577-1.56-.256-3.405-1.054-4.906-.206" fill="#E5ADD6"/></svg>