<svg width="91" height="79" fill="none" xmlns="http://www.w3.org/2000/svg"><path d="M35.289 62.283c-5.819-8.671-10.32-13.129-4.87-23.612C35.628 28.651 51.969 8.721 36.426 0 46.46.925 50.51 13.62 53.724 22.034c6.03 15.8 10.034 26.51-4.66 39.872C62.478 57.158 67.484 9.936 91 32.11c-31.292-10.474 2.582 37.28-30.758 46.22-11.464 3.073-20.09-5.429-20.09-5.429s-6.624 7.96-13.663 5.025C-13.903 61.093 43.833 27.06 0 19.64c24.969-7.234 25.834 11.675 23.681 24.415-1.204 7.132 3.117 19.082 11.608 18.229z" fill="#7746FF"/></svg>