<svg width="84" height="86" fill="none" xmlns="http://www.w3.org/2000/svg"><path d="M50.315 5.228C48.808 2.918 47.183-1.928 34.81.821c-5.267 1.169-9.099 9.454-6.733 11.695-7.564 7.564-8.797 4.963-13.44 13.93C7.57 40.096 20.117 45.307 0 51.457c6.908 8.513 25.179-9.817 33.693-17.152-8.21 31.366 16.452 24.377 19.421 35.023 1.707 6.11-1.433 11.418-5 16.671 6.566-5.658 15.275-14.092 15.77-22.727.62-10.644-6.19-16.144-7.283-26.386-.421-3.949-.502-6.314.51-9.726 5.938 5.823 1.765 15.35 8.199 20.288 4.565 3.5 6.655 4.505 8.635 10.088 1.913 5.375 1.152 11.692.576 16.583 8.332-24.68 18.806-40.721-6.02-57.198 15.733-4.186-4.085-19.77-18.186-11.694z" fill="#7746FF"/></svg>