<svg width="84" height="48" fill="none" xmlns="http://www.w3.org/2000/svg"><path d="M10.905 13.696C16.038-3.499 30.728-.854 46.097 2.362c-12.506 2.317-18.449 9.06-21.102 13.224 7.468-5.905 17.466-16.209 27.009-6.57 3.072 3.099 1.894 4.155 5.956 6.467 8.104 4.613 12.391-1.386 26.04 10.936-19.2-5.789-17.719 7.408-29.98 6.923-10.07-.399-18.65-5.185-28.873-5.108 10.453 3.754 16.1 10.487 27.63 10.164 6.34-.177 10.728-2.91 21.312-1.549-6.666 1.363-5.733 1.9-11.227 4.486-18.644 8.773-29.38 11.36-43.007-7.83-.34 1.925 5.487 11.243 12.5 13.323-6.637.893-21.522 4.726-24.146-10.489-10.215 5.987-9.716-16.3-4.894-21.088 4.026-4.003 7.59-1.555 7.59-1.555z" fill="#7746FF"/></svg>