<svg width="46" height="80" fill="none" xmlns="http://www.w3.org/2000/svg"><path d="M39.02 80C37.46 56.67 33.952 28.217 17 14c16.199 7.422 29.446 48.57 28.989 53.393C45.53 72.216 39.019 80 39.019 80z" fill="#45C8DA"/><path d="M14.788 11.938c-2.561-1.95-4.678-2.408-7.645-2.75-1.415-.162-4.193-.348-5.347.793-.417.411-.677 1.084-.997 1.582-2.266 3.534.677 5.49 3.959 5.436 2.446-.04 4.776-2.587 6.847-3.642 1.15-.586 2.176-.024 3.395-.16M13.333 10.2c-3-1.922-6.714-2.952-9.801-4.788C2.442 4.763 1.476.504 3.046.09c1.132-.3 1.918.206 2.868.771 2.928 1.745 3.823 3.54 5.55 6.436" fill="#E5ADD6"/></svg>