<svg width="61" height="133" fill="none" xmlns="http://www.w3.org/2000/svg"><path d="M1.168 133c12.14-16.698 29.367-32.07 38.062-50.741C47.055 65.45 36.738 57.267 48 28.803 36.113 48.348 41.432 59.658 36.582 74.92c-1.971 6.23-8.167 14.303-8.167 14.303s2.551-15.042 1.577-22.706C27.604 47.697 14.557 39.482 16.535 13c-5.005 30.336 12.311 42.121 8.406 64.7C22.256 93.284 8.435 98.025 0 111.464L1.168 133z" fill="#45C8DA"/><path d="M47.297 26c-1.035-.748-2.16-1.376-3.09-2.247a7.857 7.857 0 01-1.656-2.166c-.262-.523-.255-2.482.367-2.913.746-.525 2.088.269 2.67.707 2.114 1.597 2.258 2.934 2.677 5.372m1.478.247c-.04-2.163.033-4.47.962-6.417.83-1.753 4.456-4.278 4.878-.97.31 2.453-1.879 4.73-3.704 5.923m-6.552 3.965c-1.625-1.008-3.639-1.29-5.535-1.498-.285-.03-.557.153-.803.301-.68.415-1.424.78-1.942 1.38-.142.167.071.45.2.63 1.069 1.547 4.532 1.4 5.917.584m7.726.721c-.306-.188-.972-.172-1.053.186-.249 1.138.006 2.352.237 3.495.273 1.327 1.095 2.93 2.396 3.494 1.843.8 2.497-.88 2.005-2.472-.58-1.882-1.986-3.722-3.586-4.703zm9.188-5.406c-.237-.385-.691-.731-1.14-.712-1.903.081-3.813.396-5.618 1-.85.285-1.496 1.005-2.168 1.605-1.159 1.038.25 2.206 1.14 2.772 2.115 1.353 7.747.45 8.643-2.23.283-.85-.422-1.737-.857-2.435zM18.569 10.286c-.152-.339-.38-.648-.456-1.017-.303-1.568-.752-3.15-.676-4.751.048-1.106.614-2.12 1.049-3.122.504-1.177 2.443-2.08 3.189-.699.8 1.476-.083 4.06-.463 5.52-.276 1.071-.718 2.068-1.18 3.054m-3.751.711c-.397-3.018-2.803-5.477-4.813-7.763-.603-.688-3.69-.853-3.75.672-.13 3.283 3.712 5.129 6.118 6.37.734.379 2.552 1.58 2.445.72zm-.567 1.404c-.37-.293-.68-.705-1.118-.88-1.429-.575-2.895-1.181-4.421-1.345-.93-.1-1.874.236-2.751.577-.378.15-.627.54-.907.85-1.64 1.796 1.005 4.637 2.585 5.19 2.055.722 4.345-.465 6.129-1.397m3.117-2.507c-.103.243-.453.498-.318.728.382.669 1.057 1.143 1.677 1.627.31.247 1.86.82 2.17.919 1.215.385 3.511.424 4.632-.196.628-.345 1.08-.888 1.692-1.253.485-.286 1.026-.382 1.391-.817 1.152-1.358-.35-3.507-1.883-3.647-3.179-.294-4.649.06-7.247 1.936" fill="#E5ADD6"/></svg>