<svg width="236" height="65" fill="none" xmlns="http://www.w3.org/2000/svg"><g clip-path="url(#clip0_30_1176)"><path d="M14.808 31.227l-.385.384.402.402-.402.402.408.407-.82.82.395.396 1.607-1.606.413.413-2.817 2.817-.798-.798.385-.384-.408-.408.408-.407-.402-.402.803-.803-.407-.407.419-.419-.402-.401-1.194 1.193.39.39-.82.82-.39-.39.385-.384-.402-.402 2.031-2.03.385.384.401-.402.815.815zm4.728-1.492l-2.008 2.008-.385-.385-.402.402-.407-.408-.407.408-1.222-1.222.385-.385-.402-.401.407-.408-.401-.402 2.025-2.025.39.39-1.595 1.596.402.402-.413.413 1.204 1.204.396-.396.413.413.81-.808-.787-.787-.396.396-.413-.413 1.2-1.2 1.606 1.608zm3.138-3.184l-2.85 2.85-2.846-2.845 2.851-2.85.396.395-2.03 2.031.808.81 1.216-1.217.419.418-1.216 1.217.809.809 2.03-2.031.413.413zm.05-4.858l-.792.792 2.427 2.426-.815.815-2.404-2.404-.809.809-.413-.413 2.416-2.416.39.39zm6.142-1.289l-.797.798-1.205-1.205-1.2 1.199 1.205 1.205-.82.82-2.817-2.817.798-.798 1.199 1.2 1.205-1.205-1.2-1.2.815-.814 2.817 2.817zm3.139-3.184l-2.851 2.851-2.846-2.845 2.852-2.851.395.396-2.03 2.03.809.81 1.216-1.217.418.419-1.216 1.216.81.81 2.03-2.032.413.413zm1.865-4.253l-.797.798.396.396.396-.396.407.407.402-.401.413.413-1.2 1.199-.384-.385-.402.402-.418-.419-.396.396.803.803-.82.82-2.818-2.816 2.416-2.416.385.385.401-.402 1.216 1.216zm-1.21.408l-.798-.798-1.199 1.2 1.2 1.199.814-.815-.402-.402.385-.384z" fill="#45C8DA"/><rect x="-3" y="36.035" width="55" height="20" rx="10" transform="rotate(-45 -3 36.035)" stroke="#717171"/><path d="M36.476 46.532l-.384.384.809.81-.815.814-.792-.792-1.618 1.618-.815-.815.385-.385-.407-.407.407-.407-.402-.402.402-.402-.402-.401 1.222-1.222 1.596 1.595.401-.401.413.413zm-1.618.803l-.792-.792-.413.413.402.401-.385.385.39.39.798-.797zm5.566-3.178l-2.852 2.85-2.845-2.844 2.851-2.852.396.396-2.03 2.031.808.81 1.216-1.217.42.418-1.217 1.217.809.809 2.03-2.031.414.413zm1.865-4.253l-.384.385.407.407-.402.401.402.402-.407.407.407.408-.407.407-.385-.385-.407.408-.408-.408-.401.402-.402-.402-.407.408-1.624-1.624.798-.797 1.188 1.188.407-.408.419.419.39-.39-.396-.396.407-.408-1.21-1.21.814-.815 1.601 1.601zm4.355-1.968l-2.851 2.852-2.846-2.846 2.851-2.85.396.395-2.03 2.03.809.81 1.216-1.216.418.418-1.216 1.216.81.81 2.03-2.032.413.413zm1.866-4.252l-.798.797.396.396.396-.396.407.407.402-.401.413.413-1.2 1.2-.384-.386-.402.402-.418-.419-.396.396.803.804-.82.82-2.817-2.817 2.415-2.416.385.385.401-.402 1.217 1.217zm-1.211.407l-.798-.798-1.199 1.2 1.2 1.199.814-.815-.402-.401.385-.385z" fill="#E5ADD6"/><rect x="14.678" y="53.713" width="55" height="20" rx="10" transform="rotate(-45 14.678 53.713)" stroke="#717171"/><path fill="#fff" d="M183 44h-2V19h2zm-18 0h-2V19h2zm-28 0h-2V19h2zm-28 0h-1V19h1zm-18 0h-1V19h1zm88 0h-2V19h2zm-20 0h-2V19h2zm-26 0h-2V19h2zm-28 0h-1V19h1zm-18 0h-1V19h1zm-4 0h-1V19h1zm90 0h-4V19h4zm-20 0h-3V19h3zm-28 0h-3V19h3zm-6 0h-3V19h3zm28 0h-7V19h7zm-46 0h-7V19h7zm95-13l18.152-.765-12.294-13.377 13.377 12.294L216 11l.765 18.152 13.377-12.294-12.294 13.377L236 31l-18.152.765 12.294 13.377-13.377-12.294L216 51l-.765-18.152-13.377 12.294 12.294-13.377L196 31z"/></g><defs><clipPath id="clip0_30_1176"><path fill="#fff" transform="rotate(-90 32.5 32.5)" d="M0 0h65v236H0z"/></clipPath></defs></svg>