<svg width="65" height="236" fill="none" xmlns="http://www.w3.org/2000/svg"><g clip-path="url(#clip0_30_457)"><path d="M33.773 14.808l-.385-.385-.402.402-.401-.402-.407.408-.82-.82-.397.395 1.607 1.607-.413.413-2.817-2.817.797-.798.385.385.407-.408.408.408.401-.402.803.803.408-.407.418.419.402-.402-1.194-1.194-.39.39-.82-.82.39-.39.385.385.401-.402 2.031 2.031-.384.385.401.401-.814.815zm1.492 4.728l-2.008-2.008.385-.385-.402-.402.407-.407-.407-.407 1.222-1.222.384.385.402-.402.407.407.402-.401 2.025 2.025-.39.39-1.595-1.595-.402.402-.413-.413-1.205 1.204.396.396-.413.413.809.81.786-.787-.396-.396.413-.413 1.2 1.2-1.607 1.606zm3.184 3.138l-2.851-2.85 2.845-2.846 2.851 2.851-.396.396-2.03-2.03-.81.808 1.217 1.216-.419.419-1.216-1.216-.81.809 2.032 2.03-.413.413zm4.858.05l-.792-.792-2.427 2.427-.815-.815 2.405-2.404-.81-.809.414-.413 2.415 2.416-.39.39zm1.288 6.142l-.797-.797 1.205-1.205-1.2-1.2L42.6 26.87l-.82-.82 2.816-2.817.798.798-1.2 1.199 1.206 1.205 1.199-1.2.815.815-2.817 2.817zm3.184 3.139l-2.85-2.851 2.845-2.846 2.85 2.852-.395.395-2.031-2.03-.81.809 1.217 1.216-.418.418-1.217-1.216-.809.81 2.031 2.03-.413.413zm4.253 1.865l-.797-.797-.396.396.395.396-.407.407.402.402-.413.413-1.2-1.2.385-.384-.401-.402.418-.418-.396-.396-.803.803-.82-.82 2.817-2.818 2.415 2.416-.384.385.401.401-1.216 1.216zm-.407-1.21l.797-.798-1.199-1.199-1.2 1.2.816.814.401-.402.385.385z" fill="#45C8DA"/><rect x="28.964" y="-3" width="55" height="20" rx="10" transform="rotate(45 28.964 -3)" stroke="#717171"/><path d="M18.468 36.476l-.385-.384-.809.809-.814-.815.792-.792-1.618-1.618.814-.814.385.384.407-.407.408.407.401-.401.402.401.402-.401 1.221 1.222-1.595 1.595.402.401-.413.413zm-.803-1.617l.792-.792-.413-.413-.402.401-.385-.384-.39.39.798.798zm3.178 5.565l-2.851-2.851 2.845-2.846 2.851 2.851-.396.396-2.03-2.03-.81.808 1.217 1.217-.419.418-1.216-1.216-.81.81 2.032 2.03-.413.413zm4.253 1.865l-.385-.384-.407.407-.402-.401-.402.401-.407-.407-.407.407-.408-.407.385-.385-.407-.407.407-.407-.401-.402.401-.402-.407-.407 1.623-1.623.798.797-1.188 1.188.407.407-.418.419.39.39.396-.396.407.408 1.21-1.211.816.815-1.601 1.6zm1.967 4.355l-2.851-2.85 2.845-2.846 2.851 2.85-.396.397-2.03-2.031-.81.809 1.217 1.216-.419.419-1.216-1.217-.809.81 2.031 2.03-.413.413zm4.253 1.866l-.798-.798-.396.396.396.396-.407.407.402.402-.413.413-1.2-1.2.385-.384-.402-.402.42-.418-.397-.396-.803.803-.82-.82 2.817-2.817 2.415 2.415-.385.385.402.402-1.216 1.216zm-.407-1.21l.797-.798-1.199-1.2-1.2 1.2.815.814.402-.401.385.384z" fill="#E5ADD6"/><rect x="11.287" y="14.678" width="55" height="20" rx="10" transform="rotate(45 11.287 14.678)" stroke="#717171"/><path fill="#fff" d="M21 183v-2h25v2zm0-18v-2h25v2zm0-28v-2h25v2zm0-28v-1h25v1zm0-18v-1h25v1zm0 88v-2h25v2zm0-20v-2h25v2zm0-26v-2h25v2zm0-28v-1h25v1zm0-18v-1h25v1zm0-4v-1h25v1zm0 90v-4h25v4zm0-20v-3h25v3zm0-28v-3h25v3zm0-6v-3h25v3zm0 28v-7h25v7zm0-46v-7h25v7zm13 95l.765 18.152 13.377-12.294-12.294 13.377L54 216l-18.152.765 12.294 13.377-13.377-12.294L34 236l-.765-18.152-13.377 12.294 12.294-13.377L14 216l18.152-.765-12.294-13.377 13.377 12.294L34 196z"/></g><defs><clipPath id="clip0_30_457"><path fill="#fff" d="M0 0h65v236H0z"/></clipPath></defs></svg>