<svg width="1915" height="184" fill="none" xmlns="http://www.w3.org/2000/svg"><path d="M7.984 171.096h-5.68v2.256h4.544v1.168H2.336v3.44H.016v-7.968h7.968v1.104zm8.797 3.424h-2.256v1.12h1.12v1.152h1.136v1.168h-3.392v-1.088h-1.136v-1.184h-1.12v2.272h-2.32v-7.968h6.832v1.088h1.136v3.44zm-2.288-1.136v-2.256H11.1v3.392h2.304v-1.136h1.088zm11.085 3.424H24.49v1.152h-5.728v-1.088H17.61v-5.744h1.088v-1.136h5.744v1.088h1.136v5.728zm-2.288 0v-5.68h-3.392v5.68h3.392zm11.085 1.152h-2.256v-3.408h-1.12v1.12h-1.152v-1.12h-1.12v3.408h-2.32v-7.968h2.256v1.088h1.152v1.168h1.104v-1.12h1.152v-1.136h2.304v7.968z" fill="#fff"/><path fill-rule="evenodd" clip-rule="evenodd" d="M62.949 175.368L53.999 184l-5.166-4.984 14.116-3.648zM64 174.353l-.014.014-15.751 4.072L44 174.353h20zm-15.765-4.791l15.75 4.071.015.014H44l4.235-4.085zM54 164l8.949 8.632-14.116-3.648L54 164z" fill="#fff"/><path d="M79.984 177.96h-2.256v-1.088h-1.136v-1.184h-1.12v1.12h-1.136v1.152h-2.32v-7.968h2.256v3.392h1.12v-1.104h1.168v1.104h1.12v-3.392h2.304v7.968zm8.46 0h-6.831v-1.12h2.256v-5.68h-2.256v-1.168h6.832v1.104h-2.256v5.696h2.256v1.168zm7.422-6.864h-2.24v6.864h-2.304v-6.8h-2.288v-1.168h6.832v1.104zm10.509 6.864h-2.256v-3.408h-3.392v3.408h-2.32v-7.968h2.256v3.392h3.408v-3.392h2.304v7.968z" fill="#fff"/><g clip-path="url(#clip0_1_1389)"><path fill-rule="evenodd" clip-rule="evenodd" d="M117.662 166.122c2.059-1.841 6.069-1.962 8.338 1.327v-.002c2.269-3.288 6.279-3.168 8.339-1.326 2.15 1.919 2.245 5.762.097 9.605-1.45 2.762-5.138 5.542-8.229 7.383a.402.402 0 01-.415 0c-3.089-1.841-6.784-4.62-8.228-7.381-2.148-3.842-2.053-7.685.098-9.606zm8.291 3.698c-1.459-2.6-4.378-2.601-5.835-1.303-1.448 1.29-1.463 3.888.011 6.513l.001.001c.512.976 1.43 1.958 2.499 2.862 1.061.897 2.268 1.714 3.368 2.369 1.101-.657 2.309-1.473 3.371-2.369 1.07-.903 1.989-1.884 2.501-2.862v-.001c1.475-2.625 1.463-5.232.012-6.513-1.46-1.289-4.375-1.29-5.839 1.304a.054.054 0 01-.045.026.051.051 0 01-.044-.027zm.091 1.961c.771-1.384 2.314-1.383 3.081-.693.759.682.773 2.061-.011 3.47l-.001.001c-.271.522-.759 1.048-1.329 1.533-.562.478-1.2.914-1.784 1.265a13.723 13.723 0 01-1.784-1.265c-.57-.485-1.058-1.011-1.329-1.533l-.001-.001c-.784-1.409-.77-2.79-.011-3.47.767-.688 2.31-.691 3.081.693a.05.05 0 00.044.027.05.05 0 00.044-.027zm4.267-1.796c-1.077-.963-3.232-.963-4.311.962-1.074-1.926-3.232-1.925-4.31-.962-1.079.962-1.079 2.888 0 4.813.754 1.445 2.693 2.887 4.31 3.85 1.617-.963 3.557-2.405 4.311-3.85 1.078-1.925 1.077-3.851 0-4.813zm-4.313 2.354a1.67 1.67 0 01.442-.532 1.52 1.52 0 01.605-.289c.218-.049.443-.047.66.005.218.052.422.153.601.297.576.516.576 1.545 0 2.574-.402.775-1.44 1.548-2.308 2.059-.864-.514-1.902-1.287-2.304-2.059-.576-1.029-.576-2.058 0-2.574.178-.143.383-.244.6-.295.217-.052.441-.054.659-.005.217.049.423.148.603.289s.331.321.442.53zm.002.475a1.21 1.21 0 01.327-.386 1.101 1.101 0 011.377.01c.426.376.426 1.124 0 1.873-.298.561-1.065 1.122-1.704 1.496-.639-.374-1.406-.935-1.704-1.496-.426-.743-.426-1.497 0-1.873a1.101 1.101 0 011.377-.01c.133.102.245.234.327.386z" fill="#fff"/></g><path d="M639.043 143.845c18.471 0 25.968-41.009 36.533-72.921 6.729-20.325 25.714-36.96 20.213-36.96h-36.951c-19.055 0-14.764 87.058-16.496 100.211-.22.879-.44 1.538-1.1 2.198-.659.659-1.319 1.099-2.199 1.099-.88 0-1.54-.44-2.199-1.099-.66-.66-.88-1.319-1.1-2.198-1.756-13.341 2.79-100.21-16.496-100.21h-36.951c-7.015 0 13.484 16.634 20.213 36.959 10.565 31.912 18.062 72.921 36.533 72.921zm170.14-9.23c-1.098 4.849 5.152 9.23 9.457 9.23h44.429c.88 0 1.76-.22 2.419-.879.66-.66.88-1.319.88-2.418v-35.162c0-.879-.22-1.758-.88-2.417-.659-.659-1.539-.879-2.419-.879-1.32 0-2.419.44-3.519 1.538l-37.391 32.305c-1.319 1.099-2.419 1.539-3.299 1.539-.88 0-1.54-.44-2.199-1.099-.66-.66-1.1-1.319-1.1-2.198s.22-2.197.88-3.956l38.05-121.967c.66-1.758.88-3.077.88-3.956s-.22-1.758-.88-2.417c-.66-.66-1.539-.879-2.419-.879-78.787 0-19.32 29.468-42.889 133.615zm103.582-49.566c0 .879-.66 2.197-1.98 3.735l-38.05 36.82c-1.76 1.978-2.86 3.736-3.3 4.835-.659 1.099-.879 2.418-.879 3.956 0 1.978.879 3.956 2.419 6.153 1.54 2.198 3.959 3.297 7.698 3.297h81.16c.88 0 1.759-.22 2.419-.879.66-.66.88-1.319.88-2.418v-20.777c0-11.428-84.459 20.677-84.459 10.668s46.141-22.598 54.327-26.591c2.639-1.099 4.838-3.076 6.378-5.494a15.461 15.461 0 002.419-8.35c0-5.934-3.079-10.77-9.017-14.066-8.207-4.46-54.107-20.817-54.107-32.624 0-11.807 84.459 28.11 84.459 14.724V37.261c0-1.1-.22-1.759-.88-2.418-.66-.66-1.539-.879-2.419-.879h-79.62c-2.42 0-4.619.88-6.599 2.857-1.979 1.978-2.859 4.175-2.859 6.593 0 3.956 1.76 6.813 5.279 8.79l34.311 29.548c1.54.88 2.42 1.978 2.42 3.297zm61.878 55.939c1.98 1.978 3.959 2.857 6.158 2.857 1.98 0 3.52-.44 5.059-1.099 13.08-6.535 64.31-88.329 75.83-76.817 14.69 14.674-40.18 77.916-27.22 77.916h34.75c1.1 0 1.98-.44 2.64-1.099.66-.659.88-1.319.88-2.418V60.555c0-6.373-1.32-11.647-4.18-15.823-2.86-4.175-6.16-7.032-10.34-9.01-4.18-1.978-8.14-2.857-11.87-2.857-6.82 0-12.1 1.758-16.28 5.055-4.18 3.516-7.7 8.35-10.12 14.504l-35.19 82.191c-.439 1.099-.879 1.758-1.319 2.197-.66.44-1.32.66-2.42.66-.659 0-1.319-.44-1.979-1.099-.66-.66-1.1-1.319-1.1-2.198s.22-2.197.88-3.736l33.648-89.662c.66-1.319.88-2.637.88-3.736 0-.88-.22-1.538-.88-2.198-.66-.66-1.54-.879-2.64-.879h-34.307c-1.32 0-2.2.22-2.859.88a3.634 3.634 0 00-1.1 2.636v97.135c0 2.417 1.1 4.615 3.079 6.373zm134.157 1.758c.66.659 1.32 1.099 2.42 1.099h41.79c1.1 0 1.76-.44 2.42-1.099.66-.659.88-1.319.88-2.198 0-1.538-.22-2.857-.66-4.175-3.62-14.4-27.46-73.07-15.35-85.168.66-.659 1.32-.879 2.2-.879.66 0 1.1.22 1.76.44.44.44 1.1 1.099 1.75 1.758 6.11 4.317 29.82 34.901 38.02 26.71.66-.658.88-1.318.88-2.416V37.26c0-1.1-.22-1.759-.88-2.418-.66-.66-1.54-.879-2.42-.879-36.41 3.425-58.04 3.471-98.98 0-.88 0-1.54.22-2.2.88-.66.658-1.1 1.318-1.1 2.417v39.557c0 1.098.44 1.758 1.1 2.417 8.03 8.021 31.73-22.427 37.79-26.711.66-.66 1.32-1.319 1.98-1.758.44-.22.88-.44 1.54-.44.88 0 1.76.22 2.42.88 15.86 11.847-12.03 71.046-15.58 85.167-.44 1.318-.66 2.637-.66 4.175 0 .879.22 1.539.88 2.198zm99.86 1.099c8.65 0 6.51-17.721 8.22-42.954 1.43-21.093 7.66-50.445 5.06-50.445-2.9 0-8.07 1.998-13.28 1.998-5.09 0-10.21-1.998-13.28-1.998-2.83 0 2.68 29.352 3.72 50.445 1.24 25.233-.91 42.954 9.56 42.954zM1450.07 1c-8.61 0-9.18 43.786-3.52 49.446.66.66 1.54 1.099 2.64 1.099 1.32 0 2.64-.879 4.18-2.857l28.37-41.315c.88-1.319 1.32-2.417 1.32-3.516 0-.88-.22-1.538-.66-2.198-.66-.44-1.1-.659-1.76-.659h-30.57zm18.53 35.821c-1.98 1.978-2.86 4.175-2.86 6.373 0 1.978.44 3.516 1.1 4.615a44.488 44.488 0 003.52 5.055c8.3 10.054 79.23 68.485 68.22 79.493-11.02 11.008-57.48-24.306-65.14-28.729-1.98-1.098-3.52-1.538-4.4-1.538-.88 0-1.54.22-2.2.879-.66.659-1.1 1.319-1.1 2.417v34.942c0 1.099.44 1.759 1.1 2.418.66.659 1.32 1.099 2.42 1.099h63.35c5.5 0 10.55-1.539 15.17-4.396 4.62-2.856 8.14-6.592 10.78-11.207 2.64-4.615 3.96-9.011 3.96-13.406 0-8.131-1.54-14.284-4.84-18.68-3.3-4.395-7.7-8.13-13.2-10.988l-69.5-37.798c-1.98-1.1-2.86-2.418-2.86-3.956 0-.66.44-1.538 1.1-2.198.66-.659 1.32-.879 2.2-.879.88 0 1.98.22 3.3.88l69.5 28.788c1.98.879 3.52 1.319 4.18 1.319.88 0 1.76-.22 2.42-.88.66-.659.88-1.318.88-2.417V38.14c0-1.1-.22-2.198-.88-3.077-.66-.66-1.54-1.099-2.42-1.099h-77.42c-2.42 0-4.62.88-6.38 2.857zM701.345 96.057c-3.3 4.834-5.059 10.548-5.059 16.921 0 5.494 1.32 10.769 3.959 15.603 2.639 5.055 6.378 9.01 10.997 11.867 4.619 2.857 9.898 4.396 15.836 4.396 24.952 0 49.232-72.302 65.324-72.302s-38.991 53.222-29.253 70.104c9.738 16.881 36.511 12.986 36.511-2.198V74.96c0-2.638-.88-4.835-2.859-6.813C778.74 50.101 751.993 112 731.917 91.941c-1.861-1.86-2.5-6.133 1.98-9.29 4.479-3.156 60.484-30.547 60.484-30.547 1.54-.879 2.86-2.197 3.959-3.736.88-1.538 1.32-3.076 1.32-5.054 0-2.417-.88-4.615-2.859-6.593-1.98-1.978-3.959-2.857-6.379-2.857h-84.019c-.879 0-1.539.22-2.199.88-.66.659-1.1 1.538-1.1 2.417l.22 1.099 8.138 27.03c.44 1.319.88 2.198 1.54 2.857.44.66 1.319.879 2.639.879 16.885 0 62.789-41.87 76.761-27.91 1.808 1.807.65 4.59-1.32 5.714l-76.321 37.8c-5.718 2.857-10.117 6.593-13.416 11.428zm683.485-11.008c0 .879-.66 2.197-1.98 3.735l-38.05 36.82c-1.76 1.978-2.86 3.736-3.3 4.835-.66 1.099-.88 2.418-.88 3.956 0 1.978.88 3.956 2.42 6.153 1.54 2.198 3.96 3.297 7.7 3.297h81.16c.88 0 1.76-.22 2.42-.879.66-.66.88-1.319.88-2.418v-20.777c0-11.428-84.46 20.677-84.46 10.668s46.14-22.598 54.33-26.591c2.64-1.099 4.84-3.077 6.38-5.494a15.462 15.462 0 002.42-8.35c0-5.934-3.08-10.77-9.02-14.066-8.21-4.46-54.11-20.817-54.11-32.624 0-11.807 84.46 28.11 84.46 14.724V37.261c0-1.1-.22-1.759-.88-2.418-.66-.66-1.54-.879-2.42-.879h-79.62c-2.42 0-4.62.88-6.6 2.857-1.98 1.978-2.86 4.175-2.86 6.593 0 3.956 1.76 6.813 5.28 8.79l34.31 29.548c1.54.88 2.42 1.978 2.42 3.297zm-192.67-62.073c0-4.755 1.7-8.83 4.93-12.057 3.23-3.226 7.31-4.924 12.07-4.924 4.76 0 8.84 1.698 12.06 4.924 3.23 3.227 4.93 7.302 4.93 12.057 0 4.755-1.7 8.83-4.93 12.057-3.22 3.227-7.3 4.925-12.06 4.925-4.76 0-8.84-1.698-12.07-4.925-3.23-3.227-4.93-7.302-4.93-12.057zm42.92 117.512c1.98 1.978 3.96 2.857 6.16 2.857 1.98 0 3.52-.439 5.06-1.099 13.08-6.534 64.31-88.328 75.83-76.816 14.69 14.673-40.19 77.915-27.23 77.915h34.75c1.1 0 1.98-.439 2.64-1.099.66-.659.88-1.318.88-2.417V60.056c0-6.373-1.32-11.648-4.18-15.823-2.85-4.175-6.15-7.032-10.33-9.01-4.18-1.978-8.14-2.857-11.88-2.857-6.82 0-12.1 1.758-16.28 5.054-4.17 3.517-7.69 8.351-10.11 14.505l-35.19 82.19c-.44 1.099-.88 1.758-1.32 2.198-.66.439-1.32.659-2.42.659-.66 0-1.32-.439-1.98-1.099-.66-.659-1.1-1.318-1.1-2.197s.22-2.198.88-3.736l33.65-89.663c.66-1.318.88-2.637.88-3.736 0-.879-.22-1.538-.88-2.197-.66-.66-1.54-.88-2.64-.88h-34.31c-1.32 0-2.2.22-2.86.88a3.636 3.636 0 00-1.1 2.637v97.134c0 2.418 1.1 4.615 3.08 6.373z" stroke="#45C8DA" stroke-width="2" stroke-linejoin="round"/><path d="M92.377 142.746c.66-.66.88-1.539.88-2.198V37.261c0-.88-.22-1.759-.88-2.418-.66-.66-1.32-.879-2.42-.879H69.163c-1.1 0-1.76.22-2.42.88-8.034 8.026 11.138 43.052 11.138 53.9 0 .66-.22 1.539-.88 2.198-.66.66-1.32 1.099-2.42 1.099-.66 0-2.2-.22-4.399-.88L20.775 79.016c-2.2-.66-3.3-1.758-3.3-3.516 0-8.545 22.544-34.154 16.037-40.656-.66-.66-1.32-.879-2.42-.879H3.52c-1.1 0-1.76.22-2.42.88C.44 35.501 0 36.38 0 37.26v103.288c0 .879.44 1.538 1.1 2.198.66.659 1.32 1.099 2.42 1.099h34.97c1.1 0 1.76-.44 2.42-1.099 7.938-7.932-21.29-42.503-23.874-51.424-.44-.66-.66-1.319-.66-1.978 0-.88.22-1.758.88-2.418.66-.659 1.32-.879 2.42-.879.879 0 1.979.66 3.518 1.758l63.464 54.501c1.32 1.099 2.42 1.539 3.3 1.539 1.1 0 1.76-.44 2.419-1.099zm11.398-46.59c-3.3 4.835-5.06 10.549-5.06 16.922 0 5.494 1.32 10.768 3.96 15.603 2.639 5.055 6.378 9.01 10.997 11.867 4.619 2.857 9.898 4.395 15.836 4.395 24.952 0 49.232-72.301 65.324-72.301s-38.991 53.222-29.253 70.104c9.738 16.881 36.511 12.986 36.511-2.198V75.059c0-2.637-.88-4.834-2.859-6.812C181.169 50.2 154.423 112.1 134.346 92.04c-1.861-1.86-2.499-6.133 1.98-9.29 4.48-3.157 60.485-30.547 60.485-30.547 1.54-.879 2.86-2.197 3.959-3.736.88-1.538 1.32-3.076 1.32-5.054 0-2.418-.88-4.615-2.859-6.593-1.98-1.978-3.959-2.857-6.379-2.857h-84.019c-.88 0-1.539.22-2.199.88-.66.658-1.1 1.537-1.1 2.416l.22 1.1 8.138 27.03c.44 1.318.88 2.198 1.54 2.857.439.659 1.319.879 2.639.879 16.885 0 62.789-41.87 76.761-27.91 1.808 1.807.65 4.59-1.32 5.714l-76.321 37.799c-5.718 2.857-10.117 6.593-13.416 11.427zm158.656 7.692c-1.54 0-2.859 1.099-3.519 3.077l-13.457 32.744c-.22.879 0 1.758.66 2.637.66 1.099 1.54 1.539 2.639 1.539h32.332c6.819 0 12.977-1.539 18.696-4.396 5.498-2.857 10.117-6.812 13.416-12.306 3.299-5.275 4.839-11.428 4.839-18.68V66.269c0-17.526-16.125-33.404-33.652-33.404-14.195 0-27.712 10.912-31.568 24.613-7.349 26.466-21.978 101.69-31.436 95.277-18.831-12.769 43.869-118.791 25.834-118.791h-32.992c-1.1 0-1.76.22-2.419.88-.66.658-.88 1.537-.88 2.416v130.1c0 2.637 1.1 4.835 3.079 6.813 1.98 1.758 3.959 2.637 6.378 2.637 2.2 0 4.179-.66 6.159-1.758 1.759-1.319 2.859-3.077 3.519-5.494 0 0 25.514-110.12 54.326-110.12 28.813 0 23.571 68.805 0 68.805-20.407 0-13.804-24.394-21.954-24.394zm277.053-67.247c-1.98-1.758-4.179-2.637-6.379-2.637-1.979 0-3.519.44-4.838 1.099-1.54.66-3.08 1.978-4.839 3.956-47.696 53.46-58.664 82.85-66.204 69.444-7.539-13.405 25.734-44.195 25.734-71.202 0-.88-.22-1.759-.88-2.418-.66-.66-1.539-.879-2.639-.879h-34.751c-1.1 0-1.76.22-2.42.88a3.632 3.632 0 00-1.1 2.636v75.158c0 6.374 1.54 12.087 4.619 16.922 2.86 5.055 6.819 8.791 11.437 11.428 4.619 2.637 9.018 3.955 13.197 3.955 7.258 0 14.077-1.758 20.015-5.274 24.624-14.579 27.092-102.189 42.449-99.332 15.358 2.857-40.628 118.491-28.812 136.472 6.063 9.226 38.27 11.094 38.27-3.516V43.194c0-2.417-.88-4.615-2.859-6.593zm-161.818 67.247c-1.54 0-2.86 1.099-3.52 3.077l-13.456 32.744c-.22.879 0 1.758.66 2.637.659 1.099 1.539 1.539 2.639 1.539h32.332c6.818 0 12.977-1.539 18.695-4.396 5.499-2.857 10.118-6.812 13.417-12.306 3.299-5.275 4.839-11.428 4.839-18.68V66.269c0-17.526-16.125-33.404-33.652-33.404-14.196 0-27.712 10.912-31.569 24.613-7.348 26.466-21.978 101.69-31.435 95.277-18.832-12.769 43.869-118.791 25.833-118.791h-32.991c-1.1 0-1.76.22-2.42.88-.66.658-.88 1.537-.88 2.416v130.1c0 2.637 1.1 4.835 3.08 6.813 1.979 1.758 3.959 2.637 6.378 2.637 2.2 0 4.179-.66 6.159-1.758 1.759-1.319 2.859-3.077 3.519-5.494 0 0 25.513-110.12 54.326-110.12s23.571 68.805 0 68.805c-20.407 0-13.805-24.394-21.954-24.394z" fill="#E5ADD6"/><path fill-rule="evenodd" clip-rule="evenodd" d="M1702.95 112.978c0-6.373 1.76-12.087 5.06-16.921 3.3-4.835 7.7-8.571 13.42-11.428l76.32-37.799c1.97-1.124 3.13-3.907 1.32-5.714-8.37-8.362-28.2 3.31-46.38 14.014-12.17 7.164-23.61 13.896-30.38 13.896-1.32 0-2.2-.22-2.64-.88-.66-.658-1.1-1.537-1.54-2.856l-8.14-27.03-.22-1.1c0-.878.44-1.757 1.1-2.417.66-.66 1.32-.879 2.2-.879h84.02c2.42 0 4.4.88 6.38 2.857 1.98 1.978 2.86 4.176 2.86 6.593 0 1.978-.44 3.516-1.32 5.054-1.1 1.539-2.42 2.857-3.96 3.736 0 0-56.01 27.39-60.49 30.547-4.47 3.157-3.84 7.43-1.98 9.29 10.31 10.295 22.37-.998 34.11-11.992 11.14-10.427 21.99-20.587 30.78-11.802 1.98 1.978 2.86 4.175 2.86 6.812v65.489c0 15.184-26.77 19.079-36.51 2.198-5.21-9.035 8.14-28.478 19.21-44.601 9.62-14.004 17.52-25.503 10.04-25.503-7.17 0-15.96 14.343-25.71 30.252-12.14 19.81-25.77 42.049-39.61 42.049-5.94 0-11.22-1.538-15.84-4.395-4.62-2.857-8.36-6.812-11-11.867-2.64-4.835-3.96-10.109-3.96-15.603zm-102.97-69.125c0-2.857.88-5.274 2.86-7.252 1.98-1.758 4.18-2.637 7.04-2.637h34.97c14.74 0 26.17 2.857 34.53 8.79 8.36 5.934 14.08 12.966 17.16 21.097 3.08 8.131 4.61 16.482 4.61 24.613 0 8.351-1.75 16.702-5.49 25.273-3.74 8.571-9.68 15.603-18.04 21.317-8.58 5.933-19.35 8.79-32.77 8.79h-34.97c-2.86 0-5.06-.879-7.04-2.857-1.98-1.978-2.86-4.175-2.86-7.032V43.853zm55.62 21.437c-4.53 5.106-6 16.158-6 16.158s-9.52-10.52-14.04-15.626c-5.67-6.383-15.93-6.117-21.57 0-4.55 4.932-5.79 12.787 1.11 19.678 6.89 6.892 20.58 21.583 31 32 16.61 16.607 40.6-37.046 29.92-51.678-4.86-6.649-14.76-6.914-20.42-.532z" fill="#E5ADD6"/><path d="M1912.14 35.602c-1.98-1.758-4.18-2.637-6.38-2.637-1.98 0-3.52.44-4.84 1.099-1.54.66-3.08 1.978-4.84 3.956-47.69 53.46-58.66 82.85-66.2 69.444-7.54-13.405 25.73-44.194 25.73-71.202 0-.88-.22-1.758-.87-2.418-.66-.659-1.54-.879-2.64-.879h-34.76c-1.1 0-1.76.22-2.42.88a3.67 3.67 0 00-1.09 2.636v75.159c0 6.373 1.53 12.086 4.61 16.921 2.86 5.055 6.82 8.791 11.44 11.428 4.62 2.637 9.02 3.956 13.2 3.956 7.26 0 14.07-1.759 20.01-5.275 24.63-14.579 27.09-102.189 42.45-99.332 15.36 2.857-40.63 118.492-28.81 136.472 6.06 9.226 38.27 11.094 38.27-3.516V42.195c0-2.417-.88-4.615-2.86-6.593z" fill="#E5ADD6"/><defs><clipPath id="clip0_1_1389"><path fill="#fff" transform="translate(116 164)" d="M0 0h20v20H0z"/></clipPath></defs></svg>