<svg width="1915" height="184" viewBox="0 0 1915 184" fill="none" xmlns="http://www.w3.org/2000/svg">
<g clip-path="url(#clip0_109_2)">
<path d="M43.0866 37.55C43.0866 35.85 43.5966 34.6033 44.6166 33.81C45.7499 32.9033 47.1099 32.45 48.6966 32.45C49.8299 32.5633 51.1333 32.62 52.6066 32.62C53.8533 32.7333 55.2699 32.8467 56.8566 32.96C58.5566 32.96 60.4266 32.96 62.4666 32.96C63.5999 32.96 64.4499 32.9033 65.0166 32.79C65.6966 32.3367 66.3766 32.0533 67.0566 31.94C67.7366 31.8267 68.3033 31.77 68.7566 31.77C69.7766 31.77 70.7399 32.0533 71.6466 32.62C74.0266 32.5067 76.4633 32.3933 78.9566 32.28C81.5633 32.0533 84.1699 31.77 86.7766 31.43C86.8899 31.3167 87.1166 31.26 87.4566 31.26C88.9299 31.26 90.1199 31.77 91.0266 32.79C92.0466 33.81 92.5566 35 92.5566 36.36C92.5566 37.6067 92.1033 38.74 91.1966 39.76C90.4033 40.6667 89.3833 41.2333 88.1366 41.46C85.8699 41.8 83.6033 42.0833 81.3366 42.31C79.1833 42.4233 77.0299 42.5367 74.8766 42.65C75.6699 50.47 76.1233 58.29 76.2366 66.11C76.4633 73.93 76.5766 81.75 76.5766 89.57C76.5766 92.63 76.5199 95.86 76.4066 99.26C76.4066 102.547 76.3499 105.833 76.2366 109.12C76.1233 112.407 75.9533 115.58 75.7266 118.64C75.4999 121.587 75.2166 124.25 74.8766 126.63C77.8233 126.403 80.7133 126.233 83.5466 126.12C86.3799 125.893 89.1566 125.61 91.8766 125.27C91.9899 125.27 92.1033 125.27 92.2166 125.27C92.3299 125.157 92.4433 125.1 92.5566 125.1C94.0299 125.1 95.2199 125.61 96.1266 126.63C97.1466 127.65 97.6566 128.84 97.6566 130.2C97.6566 131.447 97.2033 132.58 96.2966 133.6C95.5033 134.507 94.4833 135.073 93.2366 135.3C89.6099 135.867 85.9266 136.263 82.1866 136.49C78.4466 136.603 74.7633 136.717 71.1366 136.83C70.4566 137.51 69.7766 137.907 69.0966 138.02C68.4166 138.247 67.8499 138.36 67.3966 138.36C66.8299 138.36 66.2066 138.247 65.5266 138.02C64.8466 137.907 64.1099 137.567 63.3166 137C58.5566 136.887 54.5333 136.773 51.2466 136.66C48.0733 136.547 46.3733 136.49 46.1466 136.49C44.7866 136.263 43.6533 135.697 42.7466 134.79C41.8399 133.77 41.3866 132.637 41.3866 131.39C41.3866 129.803 41.8966 128.557 42.9166 127.65C44.0499 126.743 45.3533 126.29 46.8266 126.29C46.9399 126.29 48.0733 126.347 50.2266 126.46C52.3799 126.573 55.2699 126.63 58.8966 126.63C57.6499 120.17 56.8566 113.653 56.5166 107.08C56.2899 100.393 56.1766 93.82 56.1766 87.36C56.1766 80.22 56.3466 72.8533 56.6866 65.26C57.0266 57.6667 57.9899 50.3 59.5766 43.16C52.4366 42.9333 48.4699 42.7067 47.6766 42.48C46.4299 42.3667 45.3533 41.8567 44.4466 40.95C43.5399 39.93 43.0866 38.7967 43.0866 37.55ZM170.733 103.17C170.733 101.357 170.846 99.2033 171.073 96.71C171.413 94.2167 171.979 91.8367 172.773 89.57C173.679 87.19 174.869 85.2067 176.343 83.62C177.816 82.0333 179.799 81.24 182.293 81.24C183.653 81.24 184.786 81.58 185.693 82.26C186.713 82.8267 187.506 83.62 188.073 84.64C188.753 85.5467 189.206 86.6233 189.433 87.87C189.773 89.0033 189.999 90.1367 190.113 91.27C190.339 93.1967 190.509 95.2933 190.623 97.56C190.736 99.8267 190.849 102.263 190.963 104.87C191.076 107.477 191.189 110.027 191.303 112.52C191.416 115.013 191.586 117.393 191.813 119.66C192.039 121.813 192.323 123.4 192.663 124.42C193.003 125.44 193.286 126.177 193.513 126.63C194.986 126.063 196.233 124.703 197.253 122.55C198.386 120.283 199.349 117.847 200.143 115.24C200.936 112.52 201.559 109.913 202.013 107.42C202.579 104.813 202.919 102.83 203.033 101.47C203.033 99.77 203.203 97.7867 203.543 95.52C203.996 93.14 204.619 90.93 205.413 88.89C206.319 86.7367 207.509 84.9233 208.983 83.45C210.456 81.9767 212.326 81.24 214.593 81.24C215.953 81.24 217.086 81.58 217.993 82.26C219.013 82.8267 219.806 83.62 220.373 84.64C221.053 85.5467 221.506 86.6233 221.733 87.87C222.073 89.0033 222.299 90.1367 222.413 91.27C222.639 93.1967 222.809 95.2933 222.923 97.56C223.036 99.8267 223.149 102.263 223.263 104.87C223.376 107.477 223.489 110.027 223.603 112.52C223.716 115.013 223.886 117.393 224.113 119.66C224.339 121.813 224.623 123.4 224.963 124.42C225.303 125.44 225.586 126.177 225.813 126.63C227.626 125.723 229.326 123.57 230.913 120.17C232.499 116.657 233.916 112.86 235.163 108.78C236.409 104.587 237.429 100.507 238.223 96.54C239.016 92.5733 239.583 89.57 239.923 87.53C240.149 86.2833 240.716 85.2633 241.623 84.47C242.529 83.5633 243.606 83.11 244.853 83.11C246.326 83.11 247.516 83.62 248.423 84.64C249.443 85.66 249.953 86.85 249.953 88.21C249.953 89.57 249.726 91.3267 249.273 93.48C248.933 95.52 248.479 97.6733 247.913 99.94C247.459 102.093 246.949 104.19 246.383 106.23C245.816 108.27 245.363 109.913 245.023 111.16C244.343 113.313 243.436 115.92 242.303 118.98C241.283 121.927 239.979 124.76 238.393 127.48C236.806 130.087 234.879 132.353 232.613 134.28C230.459 136.093 227.966 137 225.133 137C221.166 137 217.653 135.81 214.593 133.43C211.646 131.05 209.323 128.16 207.623 124.76C206.943 126.233 206.093 127.707 205.073 129.18C204.166 130.653 203.089 131.957 201.843 133.09C200.709 134.223 199.349 135.187 197.763 135.98C196.289 136.66 194.646 137 192.833 137C188.639 137 185.126 135.867 182.293 133.6C179.459 131.333 177.193 128.5 175.493 125.1C173.793 121.7 172.546 118.073 171.753 114.22C171.073 110.253 170.733 106.57 170.733 103.17ZM271.559 137C265.665 137 261.359 135.583 258.639 132.75C255.919 129.917 254.559 126.8 254.559 123.4C254.559 119.66 255.579 116.487 257.619 113.88C259.659 111.16 262.209 108.95 265.269 107.25C268.329 105.437 271.615 104.133 275.129 103.34C278.755 102.547 282.099 102.15 285.159 102.15C285.499 102.15 285.782 102.207 286.009 102.32C285.895 101.413 285.669 100.337 285.329 99.09C285.102 97.8433 284.705 96.6533 284.139 95.52C283.685 94.3867 283.062 93.4233 282.269 92.63C281.475 91.8367 280.455 91.44 279.209 91.44C278.189 91.44 276.999 91.61 275.639 91.95C274.392 92.29 273.145 92.8 271.899 93.48C270.765 94.16 269.745 94.9533 268.839 95.86C267.932 96.7667 267.365 97.7867 267.139 98.92C266.912 100.167 266.345 101.13 265.439 101.81C264.532 102.49 263.455 102.83 262.209 102.83C260.849 102.83 259.659 102.377 258.639 101.47C257.619 100.45 257.109 99.2033 257.109 97.73C257.109 95.8033 257.845 93.82 259.319 91.78C260.905 89.74 262.379 88.0967 263.739 86.85C265.325 85.6033 267.365 84.3567 269.859 83.11C272.465 81.8633 275.582 81.24 279.209 81.24C283.629 81.24 287.539 82.0333 290.939 83.62C294.452 85.0933 297.399 87.1333 299.779 89.74C302.272 92.3467 304.142 95.4633 305.389 99.09C306.749 102.717 307.429 106.627 307.429 110.82C307.429 113.2 307.145 115.92 306.579 118.98C306.012 121.927 305.049 124.76 303.689 127.48C302.442 130.2 300.742 132.523 298.589 134.45C296.549 136.263 294.055 137.17 291.109 137.17C289.749 137.17 288.559 136.66 287.539 135.64C286.519 134.62 286.009 133.43 286.009 132.07C286.009 131.843 286.009 131.617 286.009 131.39C286.122 131.05 286.179 130.767 286.179 130.54C286.405 130.087 286.519 129.577 286.519 129.01C281.872 134.337 276.885 137 271.559 137ZM285.329 112.35C283.629 112.35 281.872 112.633 280.059 113.2C278.359 113.767 276.772 114.617 275.299 115.75C273.939 116.883 272.805 118.187 271.899 119.66C271.105 121.133 270.709 122.833 270.709 124.76C270.709 126.007 270.822 126.63 271.049 126.63C272.635 126.63 274.165 126.177 275.639 125.27C277.112 124.25 278.472 123.003 279.719 121.53C280.965 120.057 282.042 118.47 282.949 116.77C283.969 115.07 284.762 113.597 285.329 112.35ZM345.32 115.24C345.32 114.107 345.377 112.52 345.49 110.48C345.603 108.327 345.603 106.23 345.49 104.19C345.49 102.15 345.377 100.393 345.15 98.92C344.923 97.3333 344.47 96.54 343.79 96.54C342.543 96.54 341.353 97.22 340.22 98.58C339.2 99.94 338.237 101.697 337.33 103.85C336.423 106.003 335.573 108.44 334.78 111.16C334.1 113.767 333.42 116.317 332.74 118.81C332.173 121.303 331.663 123.627 331.21 125.78C330.87 127.933 330.53 129.577 330.19 130.71C329.737 132.297 329 133.713 327.98 134.96C327.073 136.207 325.713 136.83 323.9 136.83C321.407 136.83 319.367 135.98 317.78 134.28C316.307 132.467 315.173 130.313 314.38 127.82C313.7 125.327 313.247 122.72 313.02 120C312.793 117.28 312.68 115.013 312.68 113.2C312.68 111.273 312.793 108.553 313.02 105.04C313.36 101.413 313.927 97.8433 314.72 94.33C315.627 90.8167 316.93 87.8133 318.63 85.32C320.33 82.7133 322.597 81.41 325.43 81.41C327.017 81.41 328.207 81.8633 329 82.77C329.793 83.6767 330.36 84.81 330.7 86.17C331.153 87.53 331.38 88.9467 331.38 90.42C331.493 91.8933 331.607 93.1967 331.72 94.33C333.193 92.1767 335.007 90.3067 337.16 88.72C339.313 87.02 341.75 86.17 344.47 86.17C348.323 86.17 351.553 87.0767 354.16 88.89C356.88 90.7033 359.09 93.0267 360.79 95.86C362.49 98.6933 363.68 101.81 364.36 105.21C365.153 108.61 365.55 111.897 365.55 115.07C365.55 116.883 365.38 119.093 365.04 121.7C364.7 124.193 364.02 126.573 363 128.84C362.093 131.107 360.847 133.033 359.26 134.62C357.673 136.207 355.633 137 353.14 137C350.76 137 349.003 136.15 347.87 134.45C346.85 132.75 346.113 130.71 345.66 128.33C345.207 125.95 345.037 123.57 345.15 121.19C345.263 118.697 345.32 116.713 345.32 115.24ZM396.463 40.27C396.803 42.4233 396.973 45.5967 396.973 49.79C397.2 53.6433 397.313 58.0633 397.313 63.05C397.427 68.0367 397.483 73.25 397.483 78.69V82.09C399.07 81.9767 400.033 81.8067 400.373 81.58C401.053 81.3533 401.62 81.24 402.073 81.24C403.547 81.24 404.737 81.75 405.643 82.77C406.663 83.79 407.173 84.98 407.173 86.34C407.173 87.5867 406.833 88.6067 406.153 89.4C405.473 90.1933 404.623 90.8167 403.603 91.27C402.697 91.61 401.677 91.8933 400.543 92.12C399.41 92.2333 398.333 92.3467 397.313 92.46C397.313 98.3533 397.2 104.247 396.973 110.14C396.86 116.033 396.463 121.927 395.783 127.82C395.67 128.84 395.5 129.917 395.273 131.05C395.047 132.07 394.707 133.033 394.253 133.94C393.8 134.847 393.177 135.583 392.383 136.15C391.59 136.717 390.57 137 389.323 137C388.19 137 386.887 136.603 385.413 135.81C384.053 134.903 382.863 133.147 381.843 130.54C381.05 128.273 380.37 125.497 379.803 122.21C379.35 118.923 378.953 115.523 378.613 112.01C378.387 108.497 378.217 105.097 378.103 101.81C378.103 98.5233 378.103 95.69 378.103 93.31V92.63C376.743 92.63 375.61 92.63 374.703 92.63C373.797 92.5167 373.287 92.46 373.173 92.46C371.813 92.3467 370.623 91.78 369.603 90.76C368.697 89.74 368.3 88.4933 368.413 87.02C368.527 85.66 369.093 84.5267 370.113 83.62C371.133 82.6 372.38 82.1467 373.853 82.26C374.193 82.26 374.59 82.26 375.043 82.26C375.61 82.3733 376.687 82.43 378.273 82.43C378.387 79.2567 378.5 75.9133 378.613 72.4C378.727 68.7733 378.953 65.1467 379.293 61.52C379.633 57.8933 380.087 54.3233 380.653 50.81C381.22 47.2967 381.957 44.01 382.863 40.95C383.09 39.93 383.43 38.91 383.883 37.89C384.337 36.87 384.847 35.9633 385.413 35.17C386.093 34.2633 386.887 33.5267 387.793 32.96C388.7 32.3933 389.72 32.11 390.853 32.11C393.233 32.11 394.707 33.0167 395.273 34.83C395.953 36.6433 396.35 38.4567 396.463 40.27ZM506.034 40.27C506.374 42.4233 506.544 45.5967 506.544 49.79C506.77 53.6433 506.884 58.0633 506.884 63.05C506.997 68.0367 507.054 73.25 507.054 78.69V82.09C508.64 81.9767 509.604 81.8067 509.944 81.58C510.624 81.3533 511.19 81.24 511.644 81.24C513.117 81.24 514.307 81.75 515.214 82.77C516.234 83.79 516.744 84.98 516.744 86.34C516.744 87.5867 516.404 88.6067 515.724 89.4C515.044 90.1933 514.194 90.8167 513.174 91.27C512.267 91.61 511.247 91.8933 510.114 92.12C508.98 92.2333 507.904 92.3467 506.884 92.46C506.884 98.3533 506.77 104.247 506.544 110.14C506.43 116.033 506.034 121.927 505.354 127.82C505.24 128.84 505.07 129.917 504.844 131.05C504.617 132.07 504.277 133.033 503.824 133.94C503.37 134.847 502.747 135.583 501.954 136.15C501.16 136.717 500.14 137 498.894 137C497.76 137 496.457 136.603 494.984 135.81C493.624 134.903 492.434 133.147 491.414 130.54C490.62 128.273 489.94 125.497 489.374 122.21C488.92 118.923 488.524 115.523 488.184 112.01C487.957 108.497 487.787 105.097 487.674 101.81C487.674 98.5233 487.674 95.69 487.674 93.31V92.63C486.314 92.63 485.18 92.63 484.274 92.63C483.367 92.5167 482.857 92.46 482.744 92.46C481.384 92.3467 480.194 91.78 479.174 90.76C478.267 89.74 477.87 88.4933 477.984 87.02C478.097 85.66 478.664 84.5267 479.684 83.62C480.704 82.6 481.95 82.1467 483.424 82.26C483.764 82.26 484.16 82.26 484.614 82.26C485.18 82.3733 486.257 82.43 487.844 82.43C487.957 79.2567 488.07 75.9133 488.184 72.4C488.297 68.7733 488.524 65.1467 488.864 61.52C489.204 57.8933 489.657 54.3233 490.224 50.81C490.79 47.2967 491.527 44.01 492.434 40.95C492.66 39.93 493 38.91 493.454 37.89C493.907 36.87 494.417 35.9633 494.984 35.17C495.664 34.2633 496.457 33.5267 497.364 32.96C498.27 32.3933 499.29 32.11 500.424 32.11C502.804 32.11 504.277 33.0167 504.844 34.83C505.524 36.6433 505.92 38.4567 506.034 40.27ZM543.541 81.24C544.788 81.24 545.808 81.58 546.601 82.26C547.508 82.8267 548.075 83.45 548.301 84.13H549.661C552.721 84.13 555.271 84.9233 557.311 86.51C559.465 87.9833 561.165 89.91 562.411 92.29C563.658 94.67 564.565 97.2767 565.131 100.11C565.698 102.943 565.981 105.607 565.981 108.1C565.981 111.16 565.585 114.39 564.791 117.79C563.998 121.19 562.695 124.307 560.881 127.14C559.068 129.973 556.631 132.353 553.571 134.28C550.625 136.093 546.998 137 542.691 137C539.291 137 536.061 136.377 533.001 135.13C529.941 133.883 527.221 132.127 524.841 129.86C522.575 127.593 520.761 124.817 519.401 121.53C518.041 118.243 517.361 114.56 517.361 110.48C517.361 106.74 517.985 103.113 519.231 99.6C520.478 96.0867 522.235 92.97 524.501 90.25C526.881 87.53 529.658 85.3767 532.831 83.79C536.118 82.09 539.688 81.24 543.541 81.24ZM548.811 94.33C546.658 94.33 545.015 93.31 543.881 91.27C542.748 91.27 541.728 92.1767 540.821 93.99C540.028 95.69 539.348 97.6733 538.781 99.94C538.328 102.093 537.931 104.247 537.591 106.4C537.365 108.553 537.251 109.97 537.251 110.65C537.251 111.103 537.308 112.18 537.421 113.88C537.535 115.58 537.818 117.393 538.271 119.32C538.838 121.247 539.688 123.003 540.821 124.59C541.955 126.063 543.541 126.8 545.581 126.8C547.508 126.8 549.095 126.12 550.341 124.76C551.701 123.4 552.778 121.757 553.571 119.83C554.365 117.79 554.931 115.693 555.271 113.54C555.611 111.387 555.781 109.517 555.781 107.93C555.781 106.797 555.668 105.493 555.441 104.02C555.328 102.433 554.988 100.96 554.421 99.6C553.968 98.1267 553.288 96.88 552.381 95.86C551.475 94.84 550.285 94.33 548.811 94.33ZM666.239 40.27C666.579 42.4233 666.749 45.5967 666.749 49.79C666.976 53.6433 667.089 58.0633 667.089 63.05C667.202 68.0367 667.259 73.25 667.259 78.69V82.09C668.846 81.9767 669.809 81.8067 670.149 81.58C670.829 81.3533 671.396 81.24 671.849 81.24C673.322 81.24 674.512 81.75 675.419 82.77C676.439 83.79 676.949 84.98 676.949 86.34C676.949 87.5867 676.609 88.6067 675.929 89.4C675.249 90.1933 674.399 90.8167 673.379 91.27C672.472 91.61 671.452 91.8933 670.319 92.12C669.186 92.2333 668.109 92.3467 667.089 92.46C667.089 98.3533 666.976 104.247 666.749 110.14C666.636 116.033 666.239 121.927 665.559 127.82C665.446 128.84 665.276 129.917 665.049 131.05C664.822 132.07 664.482 133.033 664.029 133.94C663.576 134.847 662.952 135.583 662.159 136.15C661.366 136.717 660.346 137 659.099 137C657.966 137 656.662 136.603 655.189 135.81C653.829 134.903 652.639 133.147 651.619 130.54C650.826 128.273 650.146 125.497 649.579 122.21C649.126 118.923 648.729 115.523 648.389 112.01C648.162 108.497 647.992 105.097 647.879 101.81C647.879 98.5233 647.879 95.69 647.879 93.31V92.63C646.519 92.63 645.386 92.63 644.479 92.63C643.572 92.5167 643.062 92.46 642.949 92.46C641.589 92.3467 640.399 91.78 639.379 90.76C638.472 89.74 638.076 88.4933 638.189 87.02C638.302 85.66 638.869 84.5267 639.889 83.62C640.909 82.6 642.156 82.1467 643.629 82.26C643.969 82.26 644.366 82.26 644.819 82.26C645.386 82.3733 646.462 82.43 648.049 82.43C648.162 79.2567 648.276 75.9133 648.389 72.4C648.502 68.7733 648.729 65.1467 649.069 61.52C649.409 57.8933 649.862 54.3233 650.429 50.81C650.996 47.2967 651.732 44.01 652.639 40.95C652.866 39.93 653.206 38.91 653.659 37.89C654.112 36.87 654.622 35.9633 655.189 35.17C655.869 34.2633 656.662 33.5267 657.569 32.96C658.476 32.3933 659.496 32.11 660.629 32.11C663.009 32.11 664.482 33.0167 665.049 34.83C665.729 36.6433 666.126 38.4567 666.239 40.27ZM697.223 137C691.329 137 687.023 135.583 684.303 132.75C681.583 129.917 680.223 126.8 680.223 123.4C680.223 119.66 681.243 116.487 683.283 113.88C685.323 111.16 687.873 108.95 690.933 107.25C693.993 105.437 697.279 104.133 700.793 103.34C704.419 102.547 707.763 102.15 710.823 102.15C711.163 102.15 711.446 102.207 711.673 102.32C711.559 101.413 711.333 100.337 710.993 99.09C710.766 97.8433 710.369 96.6533 709.803 95.52C709.349 94.3867 708.726 93.4233 707.933 92.63C707.139 91.8367 706.119 91.44 704.873 91.44C703.853 91.44 702.663 91.61 701.303 91.95C700.056 92.29 698.809 92.8 697.563 93.48C696.429 94.16 695.409 94.9533 694.503 95.86C693.596 96.7667 693.029 97.7867 692.803 98.92C692.576 100.167 692.009 101.13 691.103 101.81C690.196 102.49 689.119 102.83 687.873 102.83C686.513 102.83 685.323 102.377 684.303 101.47C683.283 100.45 682.773 99.2033 682.773 97.73C682.773 95.8033 683.509 93.82 684.983 91.78C686.569 89.74 688.043 88.0967 689.403 86.85C690.989 85.6033 693.029 84.3567 695.523 83.11C698.129 81.8633 701.246 81.24 704.873 81.24C709.293 81.24 713.203 82.0333 716.603 83.62C720.116 85.0933 723.063 87.1333 725.443 89.74C727.936 92.3467 729.806 95.4633 731.053 99.09C732.413 102.717 733.093 106.627 733.093 110.82C733.093 113.2 732.809 115.92 732.243 118.98C731.676 121.927 730.713 124.76 729.353 127.48C728.106 130.2 726.406 132.523 724.253 134.45C722.213 136.263 719.719 137.17 716.773 137.17C715.413 137.17 714.223 136.66 713.203 135.64C712.183 134.62 711.673 133.43 711.673 132.07C711.673 131.843 711.673 131.617 711.673 131.39C711.786 131.05 711.843 130.767 711.843 130.54C712.069 130.087 712.183 129.577 712.183 129.01C707.536 134.337 702.549 137 697.223 137ZM710.993 112.35C709.293 112.35 707.536 112.633 705.723 113.2C704.023 113.767 702.436 114.617 700.963 115.75C699.603 116.883 698.469 118.187 697.563 119.66C696.769 121.133 696.373 122.833 696.373 124.76C696.373 126.007 696.486 126.63 696.713 126.63C698.299 126.63 699.829 126.177 701.303 125.27C702.776 124.25 704.136 123.003 705.383 121.53C706.629 120.057 707.706 118.47 708.613 116.77C709.633 115.07 710.426 113.597 710.993 112.35ZM737.834 93.31C737.834 89.4567 737.834 85.2633 737.834 80.73C737.947 76.1967 738.174 71.6067 738.514 66.96C738.854 62.3133 739.307 57.78 739.874 53.36C740.554 48.8267 741.404 44.69 742.424 40.95C742.991 39.0233 743.841 37.0967 744.974 35.17C746.221 33.13 748.091 32.11 750.584 32.11C752.851 32.11 754.267 33.0167 754.834 34.83C755.514 36.6433 755.967 38.4567 756.194 40.27C756.761 46.73 757.044 53.1333 757.044 59.48C757.157 65.8267 757.214 72.23 757.214 78.69C757.214 86.3967 757.157 94.6133 757.044 103.34C756.931 112.067 756.421 120.227 755.514 127.82C755.401 128.84 755.231 129.917 755.004 131.05C754.777 132.07 754.437 133.033 753.984 133.94C753.531 134.847 752.907 135.583 752.114 136.15C751.321 136.717 750.301 137 749.054 137C747.807 137 746.504 136.603 745.144 135.81C743.784 134.903 742.594 133.147 741.574 130.54C740.667 128.273 739.931 125.497 739.364 122.21C738.911 118.923 738.571 115.523 738.344 112.01C738.117 108.497 737.947 105.097 737.834 101.81C737.834 98.5233 737.834 95.69 737.834 93.31ZM762.914 93.31C762.914 89.4567 762.914 85.2633 762.914 80.73C763.028 76.1967 763.254 71.6067 763.594 66.96C763.934 62.3133 764.388 57.78 764.954 53.36C765.634 48.8267 766.484 44.69 767.504 40.95C768.071 39.0233 768.921 37.0967 770.054 35.17C771.301 33.13 773.171 32.11 775.664 32.11C777.931 32.11 779.348 33.0167 779.914 34.83C780.594 36.6433 781.048 38.4567 781.274 40.27C781.841 46.73 782.124 53.1333 782.124 59.48C782.238 65.8267 782.294 72.23 782.294 78.69C782.294 82.5433 782.238 86.34 782.124 90.08C782.124 93.7067 782.068 97.1633 781.954 100.45C783.654 99.09 785.411 97.6733 787.224 96.2C789.038 94.6133 790.794 93.14 792.494 91.78C794.308 90.42 796.008 89.1733 797.594 88.04C799.294 86.7933 800.711 85.83 801.844 85.15C802.638 84.6967 803.488 84.47 804.394 84.47C805.868 84.47 807.058 84.98 807.964 86C808.984 87.02 809.494 88.21 809.494 89.57C809.494 91.4967 808.701 92.97 807.114 93.99C806.094 94.67 804.791 95.5767 803.204 96.71C801.731 97.73 800.088 98.92 798.274 100.28C796.574 101.64 794.761 103.113 792.834 104.7C791.021 106.173 789.264 107.647 787.564 109.12C789.944 109.573 792.664 110.31 795.724 111.33C798.784 112.237 801.674 113.427 804.394 114.9C807.114 116.373 809.381 118.187 811.194 120.34C813.121 122.493 814.084 125.043 814.084 127.99C814.084 130.257 813.461 132.297 812.214 134.11C811.081 135.923 809.211 136.887 806.604 137C805.358 137.113 803.998 136.887 802.524 136.32C801.164 135.753 799.464 134.903 797.424 133.77C794.591 132.183 791.814 130.427 789.094 128.5C786.374 126.573 783.711 124.59 781.104 122.55C780.991 124.363 780.821 126.12 780.594 127.82C780.481 128.84 780.311 129.917 780.084 131.05C779.858 132.07 779.518 133.033 779.064 133.94C778.611 134.847 777.988 135.583 777.194 136.15C776.401 136.717 775.381 137 774.134 137C772.888 137 771.584 136.603 770.224 135.81C768.864 134.903 767.674 133.147 766.654 130.54C765.748 128.273 765.011 125.497 764.444 122.21C763.991 118.923 763.651 115.523 763.424 112.01C763.198 108.497 763.028 105.097 762.914 101.81C762.914 98.5233 762.914 95.69 762.914 93.31ZM908.696 137C906.769 137 904.446 136.83 901.726 136.49C899.119 136.037 896.626 135.413 894.246 134.62C891.866 133.827 889.826 132.807 888.126 131.56C886.426 130.2 885.576 128.613 885.576 126.8C885.576 125.327 886.086 124.137 887.106 123.23C888.126 122.21 889.316 121.7 890.676 121.7C891.923 121.7 892.943 122.04 893.736 122.72C894.983 123.627 896.853 124.533 899.346 125.44C901.953 126.347 904.503 126.8 906.996 126.8C908.923 126.8 910.509 126.403 911.756 125.61C913.003 124.817 913.626 123.4 913.626 121.36C913.626 120.113 913.343 119.037 912.776 118.13C912.209 117.223 911.473 116.487 910.566 115.92C909.659 115.24 908.583 114.617 907.336 114.05C906.203 113.483 905.013 112.917 903.766 112.35C902.179 111.67 900.536 110.877 898.836 109.97C897.249 109.063 895.776 108.043 894.416 106.91C893.056 105.663 891.923 104.247 891.016 102.66C890.109 101.073 889.656 99.3167 889.656 97.39C889.656 94.5567 890.563 92.1767 892.376 90.25C894.189 88.21 896.399 86.5667 899.006 85.32C901.613 84.0733 904.333 83.1667 907.166 82.6C909.999 82.0333 912.493 81.75 914.646 81.75C915.666 81.75 916.856 81.8633 918.216 82.09C919.689 82.2033 921.049 82.4867 922.296 82.94C923.656 83.3933 924.789 84.0733 925.696 84.98C926.603 85.8867 927.056 87.02 927.056 88.38C927.056 89.74 926.546 90.93 925.526 91.95C924.619 92.97 923.429 93.48 921.956 93.48C921.049 93.48 919.746 93.1967 918.046 92.63C916.459 92.0633 914.873 91.78 913.286 91.78C912.266 91.78 911.416 92.0067 910.736 92.46C910.056 92.9133 909.716 93.7633 909.716 95.01C909.716 97.2767 910.736 99.0333 912.776 100.28C914.816 101.413 917.026 102.603 919.406 103.85C922.806 105.55 925.923 107.647 928.756 110.14C931.589 112.633 933.006 116.033 933.006 120.34C933.006 123.513 932.156 126.177 930.456 128.33C928.756 130.483 926.659 132.24 924.166 133.6C921.673 134.847 919.009 135.753 916.176 136.32C913.343 136.773 910.849 137 908.696 137ZM963.395 81.24C964.642 81.24 965.662 81.58 966.455 82.26C967.362 82.8267 967.928 83.45 968.155 84.13H969.515C972.575 84.13 975.125 84.9233 977.165 86.51C979.318 87.9833 981.018 89.91 982.265 92.29C983.512 94.67 984.418 97.2767 984.985 100.11C985.552 102.943 985.835 105.607 985.835 108.1C985.835 111.16 985.438 114.39 984.645 117.79C983.852 121.19 982.548 124.307 980.735 127.14C978.922 129.973 976.485 132.353 973.425 134.28C970.478 136.093 966.852 137 962.545 137C959.145 137 955.915 136.377 952.855 135.13C949.795 133.883 947.075 132.127 944.695 129.86C942.428 127.593 940.615 124.817 939.255 121.53C937.895 118.243 937.215 114.56 937.215 110.48C937.215 106.74 937.838 103.113 939.085 99.6C940.332 96.0867 942.088 92.97 944.355 90.25C946.735 87.53 949.512 85.3767 952.685 83.79C955.972 82.09 959.542 81.24 963.395 81.24ZM968.665 94.33C966.512 94.33 964.868 93.31 963.735 91.27C962.602 91.27 961.582 92.1767 960.675 93.99C959.882 95.69 959.202 97.6733 958.635 99.94C958.182 102.093 957.785 104.247 957.445 106.4C957.218 108.553 957.105 109.97 957.105 110.65C957.105 111.103 957.162 112.18 957.275 113.88C957.388 115.58 957.672 117.393 958.125 119.32C958.692 121.247 959.542 123.003 960.675 124.59C961.808 126.063 963.395 126.8 965.435 126.8C967.362 126.8 968.948 126.12 970.195 124.76C971.555 123.4 972.632 121.757 973.425 119.83C974.218 117.79 974.785 115.693 975.125 113.54C975.465 111.387 975.635 109.517 975.635 107.93C975.635 106.797 975.522 105.493 975.295 104.02C975.182 102.433 974.842 100.96 974.275 99.6C973.822 98.1267 973.142 96.88 972.235 95.86C971.328 94.84 970.138 94.33 968.665 94.33ZM1002.58 136.83C1000.08 136.83 998.043 135.98 996.456 134.28C994.983 132.467 993.849 130.313 993.056 127.82C992.376 125.327 991.923 122.72 991.696 120C991.469 117.28 991.356 115.013 991.356 113.2C991.356 111.273 991.469 108.553 991.696 105.04C992.036 101.413 992.603 97.8433 993.396 94.33C994.303 90.8167 995.606 87.8133 997.306 85.32C999.006 82.7133 1001.27 81.41 1004.11 81.41C1005.69 81.41 1006.88 81.8633 1007.68 82.77C1008.47 83.6767 1009.04 84.81 1009.38 86.17C1009.83 87.53 1010.06 88.9467 1010.06 90.42C1010.17 91.8933 1010.28 93.1967 1010.4 94.33C1011.87 92.1767 1013.68 90.3067 1015.84 88.72C1017.99 87.02 1020.43 86.17 1023.15 86.17C1026.55 86.17 1029.61 87.02 1032.33 88.72C1035.05 90.3067 1037.31 92.5733 1039.13 95.52C1040.6 93.0267 1042.47 90.8733 1044.74 89.06C1047 87.1333 1049.67 86.17 1052.73 86.17C1056.58 86.17 1059.81 87.0767 1062.42 88.89C1065.14 90.7033 1067.35 93.0267 1069.05 95.86C1070.75 98.6933 1071.94 101.81 1072.62 105.21C1073.41 108.61 1073.81 111.897 1073.81 115.07C1073.81 116.883 1073.64 119.093 1073.3 121.7C1072.96 124.193 1072.28 126.573 1071.26 128.84C1070.35 131.107 1069.1 133.033 1067.52 134.62C1065.93 136.207 1063.89 137 1061.4 137C1059.02 137 1057.26 136.15 1056.13 134.45C1055.11 132.75 1054.37 130.71 1053.92 128.33C1053.46 125.95 1053.29 123.57 1053.41 121.19C1053.52 118.697 1053.58 116.713 1053.58 115.24C1053.58 114.107 1053.69 112.52 1053.92 110.48C1054.14 108.327 1054.26 106.23 1054.26 104.19C1054.37 102.15 1054.26 100.393 1053.92 98.92C1053.69 97.3333 1053.07 96.54 1052.05 96.54C1051.03 96.54 1050.06 97.2767 1049.16 98.75C1048.25 100.223 1047.46 101.98 1046.78 104.02C1046.1 106.06 1045.53 108.157 1045.08 110.31C1044.62 112.35 1044.34 113.937 1044.23 115.07C1043.89 116.883 1043.55 119.093 1043.21 121.7C1042.87 124.193 1042.24 126.573 1041.34 128.84C1040.54 131.107 1039.35 133.033 1037.77 134.62C1036.29 136.207 1034.31 137 1031.82 137C1029.44 137 1027.68 136.15 1026.55 134.45C1025.53 132.75 1024.79 130.71 1024.34 128.33C1023.88 125.95 1023.71 123.57 1023.83 121.19C1023.94 118.697 1024 116.713 1024 115.24C1024 114.107 1024.05 112.52 1024.17 110.48C1024.28 108.327 1024.34 106.23 1024.34 104.19C1024.34 102.15 1024.22 100.393 1024 98.92C1023.77 97.3333 1023.26 96.54 1022.47 96.54C1020.54 96.54 1018.84 98.0133 1017.37 100.96C1015.89 103.793 1014.59 107.137 1013.46 110.99C1012.44 114.843 1011.53 118.697 1010.74 122.55C1009.94 126.29 1009.32 129.01 1008.87 130.71C1008.41 132.297 1007.68 133.713 1006.66 134.96C1005.75 136.207 1004.39 136.83 1002.58 136.83ZM1078.16 109.8C1078.16 105.947 1078.79 102.32 1080.03 98.92C1081.28 95.4067 1083.04 92.3467 1085.3 89.74C1087.68 87.1333 1090.52 85.0933 1093.8 83.62C1097.09 82.0333 1100.77 81.24 1104.85 81.24C1109.27 81.24 1113.18 82.4867 1116.58 84.98C1119.98 87.4733 1121.68 91.1 1121.68 95.86C1121.68 98.8067 1121 101.47 1119.64 103.85C1118.4 106.23 1116.7 108.27 1114.54 109.97C1112.39 111.557 1110.01 112.803 1107.4 113.71C1104.8 114.617 1102.13 115.07 1099.41 115.07C1099.07 115.07 1098.56 114.957 1097.88 114.73C1098 115.523 1098.22 116.657 1098.56 118.13C1098.9 119.49 1099.36 120.793 1099.92 122.04C1100.49 123.287 1101.17 124.42 1101.96 125.44C1102.76 126.347 1103.72 126.8 1104.85 126.8C1107.35 126.8 1109.67 126.063 1111.82 124.59C1113.98 123.117 1115.56 121.247 1116.58 118.98C1117.49 116.94 1119.02 115.92 1121.17 115.92C1122.65 115.92 1123.84 116.43 1124.74 117.45C1125.76 118.47 1126.27 119.66 1126.27 121.02C1126.27 121.473 1126.16 122.153 1125.93 123.06C1125.82 123.173 1125.37 123.967 1124.57 125.44C1123.78 126.913 1122.53 128.5 1120.83 130.2C1119.13 131.9 1116.98 133.487 1114.37 134.96C1111.77 136.32 1108.65 137 1105.02 137C1100.94 137 1097.26 136.32 1093.97 134.96C1090.69 133.6 1087.85 131.73 1085.47 129.35C1083.21 126.857 1081.39 123.967 1080.03 120.68C1078.79 117.28 1078.16 113.653 1078.16 109.8ZM1104.85 91.44C1103.72 91.44 1102.7 92.0067 1101.79 93.14C1101 94.16 1100.32 95.4633 1099.75 97.05C1099.19 98.5233 1098.73 99.9967 1098.39 101.47C1098.05 102.943 1097.83 104.133 1097.71 105.04C1098.05 104.927 1098.62 104.87 1099.41 104.87C1103.38 104.87 1106.38 103.907 1108.42 101.98C1110.46 99.94 1111.48 97.9567 1111.48 96.03C1111.48 94.2167 1110.75 93.0267 1109.27 92.46C1107.8 91.78 1106.33 91.44 1104.85 91.44ZM1157.15 40.27C1157.49 42.4233 1157.66 45.5967 1157.66 49.79C1157.88 53.6433 1158 58.0633 1158 63.05C1158.11 68.0367 1158.17 73.25 1158.17 78.69V82.09C1159.75 81.9767 1160.72 81.8067 1161.06 81.58C1161.74 81.3533 1162.3 81.24 1162.76 81.24C1164.23 81.24 1165.42 81.75 1166.33 82.77C1167.35 83.79 1167.86 84.98 1167.86 86.34C1167.86 87.5867 1167.52 88.6067 1166.84 89.4C1166.16 90.1933 1165.31 90.8167 1164.29 91.27C1163.38 91.61 1162.36 91.8933 1161.23 92.12C1160.09 92.2333 1159.02 92.3467 1158 92.46C1158 98.3533 1157.88 104.247 1157.66 110.14C1157.54 116.033 1157.15 121.927 1156.47 127.82C1156.35 128.84 1156.18 129.917 1155.96 131.05C1155.73 132.07 1155.39 133.033 1154.94 133.94C1154.48 134.847 1153.86 135.583 1153.07 136.15C1152.27 136.717 1151.25 137 1150.01 137C1148.87 137 1147.57 136.603 1146.1 135.81C1144.74 134.903 1143.55 133.147 1142.53 130.54C1141.73 128.273 1141.05 125.497 1140.49 122.21C1140.03 118.923 1139.64 115.523 1139.3 112.01C1139.07 108.497 1138.9 105.097 1138.79 101.81C1138.79 98.5233 1138.79 95.69 1138.79 93.31V92.63C1137.43 92.63 1136.29 92.63 1135.39 92.63C1134.48 92.5167 1133.97 92.46 1133.86 92.46C1132.5 92.3467 1131.31 91.78 1130.29 90.76C1129.38 89.74 1128.98 88.4933 1129.1 87.02C1129.21 85.66 1129.78 84.5267 1130.8 83.62C1131.82 82.6 1133.06 82.1467 1134.54 82.26C1134.88 82.26 1135.27 82.26 1135.73 82.26C1136.29 82.3733 1137.37 82.43 1138.96 82.43C1139.07 79.2567 1139.18 75.9133 1139.3 72.4C1139.41 68.7733 1139.64 65.1467 1139.98 61.52C1140.32 57.8933 1140.77 54.3233 1141.34 50.81C1141.9 47.2967 1142.64 44.01 1143.55 40.95C1143.77 39.93 1144.11 38.91 1144.57 37.89C1145.02 36.87 1145.53 35.9633 1146.1 35.17C1146.78 34.2633 1147.57 33.5267 1148.48 32.96C1149.38 32.3933 1150.4 32.11 1151.54 32.11C1153.92 32.11 1155.39 33.0167 1155.96 34.83C1156.64 36.6433 1157.03 38.4567 1157.15 40.27ZM1175.55 130.37C1174.64 128.103 1173.91 125.327 1173.34 122.04C1172.89 118.753 1172.55 115.353 1172.32 111.84C1172.09 108.327 1171.92 104.927 1171.81 101.64C1171.81 98.3533 1171.81 95.52 1171.81 93.14C1171.81 89.2867 1171.81 85.0933 1171.81 80.56C1171.92 76.0267 1172.15 71.4367 1172.49 66.79C1172.83 62.1433 1173.28 57.61 1173.85 53.19C1174.53 48.6567 1175.38 44.52 1176.4 40.78C1176.97 38.8533 1177.82 36.9267 1178.95 35C1180.2 33.0733 1182.07 32.11 1184.56 32.11C1186.83 32.11 1188.24 33.0167 1188.81 34.83C1189.49 36.53 1189.94 38.2867 1190.17 40.1C1190.74 46.56 1191.02 52.9633 1191.02 59.31C1191.13 65.6567 1191.19 72.06 1191.19 78.52C1191.19 81.24 1191.13 83.9033 1191.02 86.51C1191.02 89.0033 1191.02 91.4967 1191.02 93.99C1192.49 91.95 1194.25 90.1367 1196.29 88.55C1198.44 86.9633 1200.88 86.17 1203.6 86.17C1207.45 86.17 1210.68 87.0767 1213.29 88.89C1216.01 90.7033 1218.22 93.0267 1219.92 95.86C1221.62 98.6933 1222.81 101.81 1223.49 105.21C1224.28 108.61 1224.68 111.897 1224.68 115.07C1224.68 116.883 1224.51 119.093 1224.17 121.7C1223.83 124.193 1223.15 126.573 1222.13 128.84C1221.22 131.107 1219.98 133.033 1218.39 134.62C1216.8 136.207 1214.76 137 1212.27 137C1210.46 137 1208.93 136.32 1207.68 134.96C1206.55 133.94 1205.75 132.467 1205.3 130.54C1204.85 128.5 1204.56 126.347 1204.45 124.08C1204.34 121.813 1204.28 119.603 1204.28 117.45C1204.39 115.183 1204.45 113.257 1204.45 111.67C1204.45 110.763 1204.45 109.46 1204.45 107.76C1204.56 106.06 1204.62 104.417 1204.62 102.83C1204.62 101.13 1204.51 99.6567 1204.28 98.41C1204.05 97.1633 1203.6 96.54 1202.92 96.54C1201.11 96.54 1199.46 97.8433 1197.99 100.45C1196.52 103.057 1195.16 106.06 1193.91 109.46C1192.78 112.86 1191.81 116.26 1191.02 119.66C1190.34 123.06 1189.83 125.553 1189.49 127.14C1189.38 128.16 1189.21 129.237 1188.98 130.37C1188.75 131.503 1188.41 132.58 1187.96 133.6C1187.51 134.507 1186.88 135.3 1186.09 135.98C1185.3 136.547 1184.28 136.83 1183.03 136.83C1181.78 136.83 1180.48 136.433 1179.12 135.64C1177.76 134.733 1176.57 132.977 1175.55 130.37ZM1244.75 130.88C1244.29 132.467 1243.56 133.883 1242.54 135.13C1241.63 136.377 1240.27 137 1238.46 137C1235.96 137 1233.92 136.15 1232.34 134.45C1230.86 132.637 1229.73 130.483 1228.94 127.99C1228.26 125.497 1227.8 122.89 1227.58 120.17C1227.35 117.45 1227.24 115.183 1227.24 113.37C1227.24 111.443 1227.35 108.723 1227.58 105.21C1227.92 101.583 1228.48 98.0133 1229.28 94.5C1230.18 90.9867 1231.49 87.9267 1233.19 85.32C1234.89 82.7133 1237.15 81.41 1239.99 81.41C1241.69 81.41 1242.99 82.0333 1243.9 83.28C1244.8 84.4133 1245.37 85.7733 1245.6 87.36C1246.05 90.5333 1246.33 93.7067 1246.45 96.88C1246.56 100.053 1246.62 103.227 1246.62 106.4C1246.62 107.76 1246.62 109.573 1246.62 111.84C1246.62 113.993 1246.56 116.26 1246.45 118.64C1246.33 121.02 1246.11 123.343 1245.77 125.61C1245.54 127.763 1245.2 129.52 1244.75 130.88ZM1244.75 67.98C1244.75 69.7933 1244.12 71.3233 1242.88 72.57C1241.63 73.8167 1240.1 74.44 1238.29 74.44C1236.47 74.44 1234.94 73.8167 1233.7 72.57C1232.45 71.3233 1231.83 69.7933 1231.83 67.98C1231.83 66.1667 1232.45 64.6367 1233.7 63.39C1234.94 62.1433 1236.47 61.52 1238.29 61.52C1240.1 61.52 1241.63 62.1433 1242.88 63.39C1244.12 64.6367 1244.75 66.1667 1244.75 67.98ZM1284.64 115.24C1284.64 114.107 1284.69 112.52 1284.81 110.48C1284.92 108.327 1284.92 106.23 1284.81 104.19C1284.81 102.15 1284.69 100.393 1284.47 98.92C1284.24 97.3333 1283.79 96.54 1283.11 96.54C1281.86 96.54 1280.67 97.22 1279.54 98.58C1278.52 99.94 1277.55 101.697 1276.65 103.85C1275.74 106.003 1274.89 108.44 1274.1 111.16C1273.42 113.767 1272.74 116.317 1272.06 118.81C1271.49 121.303 1270.98 123.627 1270.53 125.78C1270.19 127.933 1269.85 129.577 1269.51 130.71C1269.05 132.297 1268.32 133.713 1267.3 134.96C1266.39 136.207 1265.03 136.83 1263.22 136.83C1260.72 136.83 1258.68 135.98 1257.1 134.28C1255.62 132.467 1254.49 130.313 1253.7 127.82C1253.02 125.327 1252.56 122.72 1252.34 120C1252.11 117.28 1252 115.013 1252 113.2C1252 111.273 1252.11 108.553 1252.34 105.04C1252.68 101.413 1253.24 97.8433 1254.04 94.33C1254.94 90.8167 1256.25 87.8133 1257.95 85.32C1259.65 82.7133 1261.91 81.41 1264.75 81.41C1266.33 81.41 1267.52 81.8633 1268.32 82.77C1269.11 83.6767 1269.68 84.81 1270.02 86.17C1270.47 87.53 1270.7 88.9467 1270.7 90.42C1270.81 91.8933 1270.92 93.1967 1271.04 94.33C1272.51 92.1767 1274.32 90.3067 1276.48 88.72C1278.63 87.02 1281.07 86.17 1283.79 86.17C1287.64 86.17 1290.87 87.0767 1293.48 88.89C1296.2 90.7033 1298.41 93.0267 1300.11 95.86C1301.81 98.6933 1303 101.81 1303.68 105.21C1304.47 108.61 1304.87 111.897 1304.87 115.07C1304.87 116.883 1304.7 119.093 1304.36 121.7C1304.02 124.193 1303.34 126.573 1302.32 128.84C1301.41 131.107 1300.16 133.033 1298.58 134.62C1296.99 136.207 1294.95 137 1292.46 137C1290.08 137 1288.32 136.15 1287.19 134.45C1286.17 132.75 1285.43 130.71 1284.98 128.33C1284.52 125.95 1284.35 123.57 1284.47 121.19C1284.58 118.697 1284.64 116.713 1284.64 115.24ZM1335.44 174.91C1328.98 174.91 1323.77 172.983 1319.8 169.13C1315.83 165.277 1313.85 160.347 1313.85 154.34C1313.85 152.98 1314.3 151.79 1315.21 150.77C1316.23 149.75 1317.48 149.24 1318.95 149.24C1320.31 149.24 1321.5 149.75 1322.52 150.77C1323.54 151.79 1324.05 152.98 1324.05 154.34C1324.05 157.513 1324.96 160.007 1326.77 161.82C1328.7 163.747 1330.96 164.71 1333.57 164.71C1334.48 164.71 1335.38 164.54 1336.29 164.2C1337.31 163.973 1338.22 163.463 1339.01 162.67C1339.8 161.877 1340.48 160.743 1341.05 159.27C1341.62 157.91 1341.9 156.04 1341.9 153.66C1341.9 149.127 1340.82 146.123 1338.67 144.65C1336.52 143.177 1333.46 142.327 1329.49 142.1H1326.09C1324.5 142.1 1323.14 141.647 1322.01 140.74C1320.99 139.833 1320.54 138.53 1320.65 136.83C1320.65 135.243 1321.39 133.883 1322.86 132.75C1323.09 132.637 1323.6 132.297 1324.39 131.73C1325.3 131.163 1326.37 130.427 1327.62 129.52C1321.95 128.273 1317.25 125.723 1313.51 121.87C1309.88 118.017 1308.07 113.03 1308.07 106.91C1308.07 103.283 1308.75 99.94 1310.11 96.88C1311.58 93.7067 1313.51 90.9867 1315.89 88.72C1318.27 86.34 1321.05 84.5267 1324.22 83.28C1327.39 81.92 1330.74 81.24 1334.25 81.24C1335.84 81.24 1337.37 80.9 1338.84 80.22C1340.31 79.54 1341.62 78.69 1342.75 77.67C1343.88 76.65 1344.79 75.63 1345.47 74.61C1346.15 73.59 1346.49 72.74 1346.49 72.06C1346.49 70.7 1346.94 69.51 1347.85 68.49C1348.87 67.47 1350.12 66.96 1351.59 66.96C1352.95 66.96 1354.14 67.47 1355.16 68.49C1356.18 69.51 1356.69 70.7 1356.69 72.06C1356.69 73.3067 1356.24 75.0633 1355.33 77.33C1354.54 79.4833 1352.5 82.6567 1349.21 86.85C1351.93 89.0033 1353.86 91.78 1354.99 95.18C1356.12 98.4667 1356.69 101.753 1356.69 105.04C1356.69 108.44 1356.29 111.443 1355.5 114.05C1354.71 116.657 1353.57 119.037 1352.1 121.19C1350.63 123.343 1348.87 125.327 1346.83 127.14C1344.79 128.953 1342.58 130.823 1340.2 132.75C1343.15 133.317 1345.92 134.053 1348.53 134.96C1351.14 135.867 1353.4 137.057 1355.33 138.53C1357.37 140.117 1358.96 141.987 1360.09 144.14C1361.34 146.407 1361.96 149.127 1361.96 152.3C1361.96 156.153 1361.11 159.497 1359.41 162.33C1357.82 165.163 1355.73 167.487 1353.12 169.3C1350.51 171.227 1347.62 172.643 1344.45 173.55C1341.39 174.457 1338.39 174.91 1335.44 174.91ZM1327.96 107.08C1327.96 107.873 1328.02 109.007 1328.13 110.48C1328.24 111.84 1328.58 113.257 1329.15 114.73C1329.72 116.09 1330.51 117.337 1331.53 118.47C1332.66 119.49 1334.14 120 1335.95 120C1337.88 120 1339.46 119.547 1340.71 118.64C1342.07 117.62 1343.15 116.373 1343.94 114.9C1344.85 113.427 1345.47 111.84 1345.81 110.14C1346.26 108.327 1346.49 106.627 1346.49 105.04C1346.49 104.247 1346.43 103.34 1346.32 102.32C1346.21 101.3 1345.98 100.28 1345.64 99.26C1345.3 98.24 1344.85 97.3333 1344.28 96.54C1343.71 95.6333 1343.03 95.01 1342.24 94.67C1341.33 95.4633 1340.2 95.86 1338.84 95.86C1337.59 95.86 1336.46 95.4633 1335.44 94.67C1334.53 93.7633 1333.97 92.6867 1333.74 91.44C1332.49 91.8933 1331.19 93.5933 1329.83 96.54C1328.58 99.3733 1327.96 102.887 1327.96 107.08ZM1434.78 103.17C1434.78 101.357 1434.89 99.2033 1435.12 96.71C1435.46 94.2167 1436.02 91.8367 1436.82 89.57C1437.72 87.19 1438.91 85.2067 1440.39 83.62C1441.86 82.0333 1443.84 81.24 1446.34 81.24C1447.7 81.24 1448.83 81.58 1449.74 82.26C1450.76 82.8267 1451.55 83.62 1452.12 84.64C1452.8 85.5467 1453.25 86.6233 1453.48 87.87C1453.82 89.0033 1454.04 90.1367 1454.16 91.27C1454.38 93.1967 1454.55 95.2933 1454.67 97.56C1454.78 99.8267 1454.89 102.263 1455.01 104.87C1455.12 107.477 1455.23 110.027 1455.35 112.52C1455.46 115.013 1455.63 117.393 1455.86 119.66C1456.08 121.813 1456.37 123.4 1456.71 124.42C1457.05 125.44 1457.33 126.177 1457.56 126.63C1459.03 126.063 1460.28 124.703 1461.3 122.55C1462.43 120.283 1463.39 117.847 1464.19 115.24C1464.98 112.52 1465.6 109.913 1466.06 107.42C1466.62 104.813 1466.96 102.83 1467.08 101.47C1467.08 99.77 1467.25 97.7867 1467.59 95.52C1468.04 93.14 1468.66 90.93 1469.46 88.89C1470.36 86.7367 1471.55 84.9233 1473.03 83.45C1474.5 81.9767 1476.37 81.24 1478.64 81.24C1480 81.24 1481.13 81.58 1482.04 82.26C1483.06 82.8267 1483.85 83.62 1484.42 84.64C1485.1 85.5467 1485.55 86.6233 1485.78 87.87C1486.12 89.0033 1486.34 90.1367 1486.46 91.27C1486.68 93.1967 1486.85 95.2933 1486.97 97.56C1487.08 99.8267 1487.19 102.263 1487.31 104.87C1487.42 107.477 1487.53 110.027 1487.65 112.52C1487.76 115.013 1487.93 117.393 1488.16 119.66C1488.38 121.813 1488.67 123.4 1489.01 124.42C1489.35 125.44 1489.63 126.177 1489.86 126.63C1491.67 125.723 1493.37 123.57 1494.96 120.17C1496.54 116.657 1497.96 112.86 1499.21 108.78C1500.45 104.587 1501.47 100.507 1502.27 96.54C1503.06 92.5733 1503.63 89.57 1503.97 87.53C1504.19 86.2833 1504.76 85.2633 1505.67 84.47C1506.57 83.5633 1507.65 83.11 1508.9 83.11C1510.37 83.11 1511.56 83.62 1512.47 84.64C1513.49 85.66 1514 86.85 1514 88.21C1514 89.57 1513.77 91.3267 1513.32 93.48C1512.98 95.52 1512.52 97.6733 1511.96 99.94C1511.5 102.093 1510.99 104.19 1510.43 106.23C1509.86 108.27 1509.41 109.913 1509.07 111.16C1508.39 113.313 1507.48 115.92 1506.35 118.98C1505.33 121.927 1504.02 124.76 1502.44 127.48C1500.85 130.087 1498.92 132.353 1496.66 134.28C1494.5 136.093 1492.01 137 1489.18 137C1485.21 137 1481.7 135.81 1478.64 133.43C1475.69 131.05 1473.37 128.16 1471.67 124.76C1470.99 126.233 1470.14 127.707 1469.12 129.18C1468.21 130.653 1467.13 131.957 1465.89 133.09C1464.75 134.223 1463.39 135.187 1461.81 135.98C1460.33 136.66 1458.69 137 1456.88 137C1452.68 137 1449.17 135.867 1446.34 133.6C1443.5 131.333 1441.24 128.5 1439.54 125.1C1437.84 121.7 1436.59 118.073 1435.8 114.22C1435.12 110.253 1434.78 106.57 1434.78 103.17ZM1535.77 130.88C1535.32 132.467 1534.58 133.883 1533.56 135.13C1532.65 136.377 1531.29 137 1529.48 137C1526.99 137 1524.95 136.15 1523.36 134.45C1521.89 132.637 1520.75 130.483 1519.96 127.99C1519.28 125.497 1518.83 122.89 1518.6 120.17C1518.37 117.45 1518.26 115.183 1518.26 113.37C1518.26 111.443 1518.37 108.723 1518.6 105.21C1518.94 101.583 1519.51 98.0133 1520.3 94.5C1521.21 90.9867 1522.51 87.9267 1524.21 85.32C1525.91 82.7133 1528.18 81.41 1531.01 81.41C1532.71 81.41 1534.01 82.0333 1534.92 83.28C1535.83 84.4133 1536.39 85.7733 1536.62 87.36C1537.07 90.5333 1537.36 93.7067 1537.47 96.88C1537.58 100.053 1537.64 103.227 1537.64 106.4C1537.64 107.76 1537.64 109.573 1537.64 111.84C1537.64 113.993 1537.58 116.26 1537.47 118.64C1537.36 121.02 1537.13 123.343 1536.79 125.61C1536.56 127.763 1536.22 129.52 1535.77 130.88ZM1535.77 67.98C1535.77 69.7933 1535.15 71.3233 1533.9 72.57C1532.65 73.8167 1531.12 74.44 1529.31 74.44C1527.5 74.44 1525.97 73.8167 1524.72 72.57C1523.47 71.3233 1522.85 69.7933 1522.85 67.98C1522.85 66.1667 1523.47 64.6367 1524.72 63.39C1525.97 62.1433 1527.5 61.52 1529.31 61.52C1531.12 61.52 1532.65 62.1433 1533.9 63.39C1535.15 64.6367 1535.77 66.1667 1535.77 67.98ZM1569.03 40.27C1569.37 42.4233 1569.54 45.5967 1569.54 49.79C1569.77 53.6433 1569.88 58.0633 1569.88 63.05C1570 68.0367 1570.05 73.25 1570.05 78.69V82.09C1571.64 81.9767 1572.6 81.8067 1572.94 81.58C1573.62 81.3533 1574.19 81.24 1574.64 81.24C1576.12 81.24 1577.31 81.75 1578.21 82.77C1579.23 83.79 1579.74 84.98 1579.74 86.34C1579.74 87.5867 1579.4 88.6067 1578.72 89.4C1578.04 90.1933 1577.19 90.8167 1576.17 91.27C1575.27 91.61 1574.25 91.8933 1573.11 92.12C1571.98 92.2333 1570.9 92.3467 1569.88 92.46C1569.88 98.3533 1569.77 104.247 1569.54 110.14C1569.43 116.033 1569.03 121.927 1568.35 127.82C1568.24 128.84 1568.07 129.917 1567.84 131.05C1567.62 132.07 1567.28 133.033 1566.82 133.94C1566.37 134.847 1565.75 135.583 1564.95 136.15C1564.16 136.717 1563.14 137 1561.89 137C1560.76 137 1559.46 136.603 1557.98 135.81C1556.62 134.903 1555.43 133.147 1554.41 130.54C1553.62 128.273 1552.94 125.497 1552.37 122.21C1551.92 118.923 1551.52 115.523 1551.18 112.01C1550.96 108.497 1550.79 105.097 1550.67 101.81C1550.67 98.5233 1550.67 95.69 1550.67 93.31V92.63C1549.31 92.63 1548.18 92.63 1547.27 92.63C1546.37 92.5167 1545.86 92.46 1545.74 92.46C1544.38 92.3467 1543.19 91.78 1542.17 90.76C1541.27 89.74 1540.87 88.4933 1540.98 87.02C1541.1 85.66 1541.66 84.5267 1542.68 83.62C1543.7 82.6 1544.95 82.1467 1546.42 82.26C1546.76 82.26 1547.16 82.26 1547.61 82.26C1548.18 82.3733 1549.26 82.43 1550.84 82.43C1550.96 79.2567 1551.07 75.9133 1551.18 72.4C1551.3 68.7733 1551.52 65.1467 1551.86 61.52C1552.2 57.8933 1552.66 54.3233 1553.22 50.81C1553.79 47.2967 1554.53 44.01 1555.43 40.95C1555.66 39.93 1556 38.91 1556.45 37.89C1556.91 36.87 1557.42 35.9633 1557.98 35.17C1558.66 34.2633 1559.46 33.5267 1560.36 32.96C1561.27 32.3933 1562.29 32.11 1563.42 32.11C1565.8 32.11 1567.28 33.0167 1567.84 34.83C1568.52 36.6433 1568.92 38.4567 1569.03 40.27ZM1587.44 130.37C1586.53 128.103 1585.79 125.327 1585.23 122.04C1584.77 118.753 1584.43 115.353 1584.21 111.84C1583.98 108.327 1583.81 104.927 1583.7 101.64C1583.7 98.3533 1583.7 95.52 1583.7 93.14C1583.7 89.2867 1583.7 85.0933 1583.7 80.56C1583.81 76.0267 1584.04 71.4367 1584.38 66.79C1584.72 62.1433 1585.17 57.61 1585.74 53.19C1586.42 48.6567 1587.27 44.52 1588.29 40.78C1588.85 38.8533 1589.7 36.9267 1590.84 35C1592.08 33.0733 1593.95 32.11 1596.45 32.11C1598.71 32.11 1600.13 33.0167 1600.7 34.83C1601.38 36.53 1601.83 38.2867 1602.06 40.1C1602.62 46.56 1602.91 52.9633 1602.91 59.31C1603.02 65.6567 1603.08 72.06 1603.08 78.52C1603.08 81.24 1603.02 83.9033 1602.91 86.51C1602.91 89.0033 1602.91 91.4967 1602.91 93.99C1604.38 91.95 1606.14 90.1367 1608.18 88.55C1610.33 86.9633 1612.77 86.17 1615.49 86.17C1619.34 86.17 1622.57 87.0767 1625.18 88.89C1627.9 90.7033 1630.11 93.0267 1631.81 95.86C1633.51 98.6933 1634.7 101.81 1635.38 105.21C1636.17 108.61 1636.57 111.897 1636.57 115.07C1636.57 116.883 1636.4 119.093 1636.06 121.7C1635.72 124.193 1635.04 126.573 1634.02 128.84C1633.11 131.107 1631.86 133.033 1630.28 134.62C1628.69 136.207 1626.65 137 1624.16 137C1622.34 137 1620.81 136.32 1619.57 134.96C1618.43 133.94 1617.64 132.467 1617.19 130.54C1616.73 128.5 1616.45 126.347 1616.34 124.08C1616.22 121.813 1616.17 119.603 1616.17 117.45C1616.28 115.183 1616.34 113.257 1616.34 111.67C1616.34 110.763 1616.34 109.46 1616.34 107.76C1616.45 106.06 1616.51 104.417 1616.51 102.83C1616.51 101.13 1616.39 99.6567 1616.17 98.41C1615.94 97.1633 1615.49 96.54 1614.81 96.54C1612.99 96.54 1611.35 97.8433 1609.88 100.45C1608.4 103.057 1607.04 106.06 1605.8 109.46C1604.66 112.86 1603.7 116.26 1602.91 119.66C1602.23 123.06 1601.72 125.553 1601.38 127.14C1601.26 128.16 1601.09 129.237 1600.87 130.37C1600.64 131.503 1600.3 132.58 1599.85 133.6C1599.39 134.507 1598.77 135.3 1597.98 135.98C1597.18 136.547 1596.16 136.83 1594.92 136.83C1593.67 136.83 1592.37 136.433 1591.01 135.64C1589.65 134.733 1588.46 132.977 1587.44 130.37ZM1735.73 174.57C1734.59 174.57 1733.12 174.343 1731.31 173.89C1729.49 173.55 1727.74 172.983 1726.04 172.19C1724.34 171.51 1722.86 170.603 1721.62 169.47C1720.48 168.337 1719.92 167.09 1719.92 165.73C1719.92 164.37 1720.43 163.18 1721.45 162.16C1722.47 161.14 1723.66 160.63 1725.02 160.63C1725.92 160.63 1726.89 160.913 1727.91 161.48C1729.27 162.387 1730.63 163.067 1731.99 163.52C1733.46 164.087 1734.42 164.37 1734.88 164.37C1735.78 164.37 1736.52 163.577 1737.09 161.99C1737.77 160.517 1738.33 158.59 1738.79 156.21C1739.35 153.943 1739.81 151.393 1740.15 148.56C1740.6 145.727 1740.94 142.95 1741.17 140.23C1741.39 137.51 1741.56 135.073 1741.68 132.92C1741.79 130.653 1741.85 129.01 1741.85 127.99C1740.49 130.257 1738.73 132.353 1736.58 134.28C1734.42 136.093 1731.93 137 1729.1 137C1725.02 137 1721.62 135.98 1718.9 133.94C1716.29 131.787 1714.14 129.123 1712.44 125.95C1710.85 122.777 1709.72 119.32 1709.04 115.58C1708.36 111.84 1708.02 108.383 1708.02 105.21C1708.02 103.283 1708.13 100.96 1708.36 98.24C1708.7 95.52 1709.32 92.9133 1710.23 90.42C1711.13 87.9267 1712.38 85.7733 1713.97 83.96C1715.55 82.1467 1717.65 81.24 1720.26 81.24C1722.64 81.24 1724.39 82.2033 1725.53 84.13C1726.66 86.0567 1727.4 88.3233 1727.74 90.93C1728.19 93.4233 1728.36 96.03 1728.25 98.75C1728.25 101.357 1728.25 103.453 1728.25 105.04C1728.25 106.513 1728.19 108.44 1728.08 110.82C1728.08 113.2 1728.08 115.58 1728.08 117.96C1728.19 120.227 1728.36 122.21 1728.59 123.91C1728.81 125.61 1729.21 126.46 1729.78 126.46C1730.8 126.46 1731.82 125.78 1732.84 124.42C1733.86 123.06 1734.82 121.303 1735.73 119.15C1736.75 116.997 1737.65 114.56 1738.45 111.84C1739.24 109.12 1739.92 106.457 1740.49 103.85C1741.17 101.243 1741.73 98.8067 1742.19 96.54C1742.64 94.2733 1742.98 92.46 1743.21 91.1C1743.43 90.08 1743.66 89.0033 1743.89 87.87C1744.11 86.7367 1744.45 85.7167 1744.91 84.81C1745.36 83.79 1745.98 82.9967 1746.78 82.43C1747.57 81.75 1748.59 81.41 1749.84 81.41C1751.76 81.41 1753.35 82.26 1754.6 83.96C1755.96 85.5467 1757.03 87.6433 1757.83 90.25C1758.73 92.7433 1759.41 95.5767 1759.87 98.75C1760.43 101.81 1760.83 104.813 1761.06 107.76C1761.28 110.707 1761.4 113.427 1761.4 115.92C1761.51 118.413 1761.57 120.283 1761.57 121.53C1761.57 124.25 1761.45 127.48 1761.23 131.22C1761 134.96 1760.55 138.757 1759.87 142.61C1759.3 146.577 1758.39 150.43 1757.15 154.17C1756.01 158.023 1754.48 161.423 1752.56 164.37C1750.74 167.43 1748.42 169.867 1745.59 171.68C1742.87 173.607 1739.58 174.57 1735.73 174.57ZM1792.48 81.24C1793.72 81.24 1794.74 81.58 1795.54 82.26C1796.44 82.8267 1797.01 83.45 1797.24 84.13H1798.6C1801.66 84.13 1804.21 84.9233 1806.25 86.51C1808.4 87.9833 1810.1 89.91 1811.35 92.29C1812.59 94.67 1813.5 97.2767 1814.07 100.11C1814.63 102.943 1814.92 105.607 1814.92 108.1C1814.92 111.16 1814.52 114.39 1813.73 117.79C1812.93 121.19 1811.63 124.307 1809.82 127.14C1808 129.973 1805.57 132.353 1802.51 134.28C1799.56 136.093 1795.93 137 1791.63 137C1788.23 137 1785 136.377 1781.94 135.13C1778.88 133.883 1776.16 132.127 1773.78 129.86C1771.51 127.593 1769.7 124.817 1768.34 121.53C1766.98 118.243 1766.3 114.56 1766.3 110.48C1766.3 106.74 1766.92 103.113 1768.17 99.6C1769.41 96.0867 1771.17 92.97 1773.44 90.25C1775.82 87.53 1778.59 85.3767 1781.77 83.79C1785.05 82.09 1788.62 81.24 1792.48 81.24ZM1797.75 94.33C1795.59 94.33 1793.95 93.31 1792.82 91.27C1791.68 91.27 1790.66 92.1767 1789.76 93.99C1788.96 95.69 1788.28 97.6733 1787.72 99.94C1787.26 102.093 1786.87 104.247 1786.53 106.4C1786.3 108.553 1786.19 109.97 1786.19 110.65C1786.19 111.103 1786.24 112.18 1786.36 113.88C1786.47 115.58 1786.75 117.393 1787.21 119.32C1787.77 121.247 1788.62 123.003 1789.76 124.59C1790.89 126.063 1792.48 126.8 1794.52 126.8C1796.44 126.8 1798.03 126.12 1799.28 124.76C1800.64 123.4 1801.71 121.757 1802.51 119.83C1803.3 117.79 1803.87 115.693 1804.21 113.54C1804.55 111.387 1804.72 109.517 1804.72 107.93C1804.72 106.797 1804.6 105.493 1804.38 104.02C1804.26 102.433 1803.92 100.96 1803.36 99.6C1802.9 98.1267 1802.22 96.88 1801.32 95.86C1800.41 94.84 1799.22 94.33 1797.75 94.33ZM1860.05 137C1858.8 137 1857.78 136.717 1856.99 136.15C1856.19 135.47 1855.57 134.677 1855.12 133.77C1854.78 132.863 1854.49 131.9 1854.27 130.88C1854.15 129.747 1854.04 128.727 1853.93 127.82C1852.57 130.087 1850.81 132.183 1848.66 134.11C1846.5 136.037 1843.95 137 1841.01 137C1836.93 137 1833.53 135.98 1830.81 133.94C1828.2 131.787 1826.05 129.123 1824.35 125.95C1822.76 122.777 1821.63 119.32 1820.95 115.58C1820.27 111.84 1819.93 108.383 1819.93 105.21C1819.93 103.283 1820.04 100.96 1820.27 98.24C1820.61 95.52 1821.23 92.9133 1822.14 90.42C1823.04 87.9267 1824.29 85.7733 1825.88 83.96C1827.46 82.1467 1829.56 81.24 1832.17 81.24C1834.55 81.24 1836.3 82.2033 1837.44 84.13C1838.57 86.0567 1839.31 88.3233 1839.65 90.93C1840.1 93.4233 1840.27 96.03 1840.16 98.75C1840.16 101.357 1840.16 103.453 1840.16 105.04C1840.16 106.287 1840.1 108.1 1839.99 110.48C1839.99 112.86 1839.99 115.24 1839.99 117.62C1839.99 120 1840.1 122.097 1840.33 123.91C1840.55 125.61 1841.01 126.46 1841.69 126.46C1842.93 126.46 1844.07 125.667 1845.09 124.08C1846.22 122.493 1847.18 120.51 1847.98 118.13C1848.88 115.637 1849.68 112.917 1850.36 109.97C1851.15 106.91 1851.83 103.963 1852.4 101.13C1852.96 98.1833 1853.47 95.52 1853.93 93.14C1854.38 90.6467 1854.78 88.7767 1855.12 87.53C1855.57 85.9433 1856.25 84.5267 1857.16 83.28C1858.18 82.0333 1859.65 81.41 1861.58 81.41C1864.18 81.41 1866.22 82.3167 1867.7 84.13C1869.17 85.83 1870.25 87.9267 1870.93 90.42C1871.72 92.9133 1872.23 95.52 1872.46 98.24C1872.68 100.847 1872.8 103.113 1872.8 105.04C1872.8 107.08 1872.63 109.913 1872.29 113.54C1872.06 117.053 1871.49 120.567 1870.59 124.08C1869.79 127.48 1868.55 130.483 1866.85 133.09C1865.15 135.697 1862.88 137 1860.05 137Z" fill="#45C8DA"/>
</g>
<defs>
<clipPath id="clip0_109_2">
<rect width="1915" height="184" fill="white"/>
</clipPath>
</defs>
</svg>
