<svg width="77" height="96" fill="none" xmlns="http://www.w3.org/2000/svg"><circle cx="13.5" cy="12.5" r="6.318" stroke="#fff"/><path d="M13.5 0v25M1 12.5h25" stroke="#fff"/><path d="M9 78.409h1.665l2.894 7.067h.106l2.895-7.067h1.664v9.09H16.92v-6.578h-.084l-2.681 6.565H13.07l-2.68-6.57h-.085V87.5H9v-9.091z" fill="#fff"/><path stroke="#717171" d="M1 70h25v25H1z"/><path fill="#fff" d="M3 72h3v1H3zm19 0h2v1h-2zM8 90h11v2H8zm31.372-11.591v9.09H38v-9.09h1.372z"/><path stroke="#717171" d="M26 70h25v25H26z"/><path fill="#fff" d="M28 72h3v1h-3zm18 0h3v1h-3zM35 90h7v2h-7zm28.337-11.591v9.09h-1.26l-4.621-6.666h-.084V87.5H56v-9.091h1.27l4.625 6.676h.084v-6.676h1.358zm4.833 9.228c-.671 0-1.25-.143-1.735-.43a2.922 2.922 0 01-1.119-1.22c-.26-.528-.39-1.145-.39-1.852 0-.698.13-1.314.39-1.847.264-.532.63-.948 1.101-1.247.474-.299 1.027-.448 1.66-.448.385 0 .758.063 1.119.19.36.128.685.328.972.6.287.272.513.626.68 1.06.165.433.248.958.248 1.577v.47h-5.42v-.994h4.12c0-.35-.072-.659-.214-.928a1.611 1.611 0 00-.6-.644 1.675 1.675 0 00-.896-.235 1.74 1.74 0 00-.977.275c-.275.18-.488.418-.639.71a2.05 2.05 0 00-.222.946v.777c0 .456.08.843.24 1.163.163.32.39.564.68.732.29.166.628.249 1.016.249.251 0 .48-.036.688-.107a1.427 1.427 0 00.883-.866l1.256.227c-.1.37-.28.694-.541.972-.258.276-.582.49-.972.644a3.66 3.66 0 01-1.328.226z"/><path stroke="#717171" d="M51 70h25v25H51z"/><path fill="#fff" d="M53 72h2v1h-2zm18 0h3v1h-3zM57 90h13v2H57zM6.116 61.25v-9.091h3.33c.645 0 1.179.106 1.602.32.423.21.74.495.95.856.21.358.315.762.315 1.212 0 .379-.07.698-.209.959a1.718 1.718 0 01-.559.621c-.23.154-.485.267-.764.338v.088c.302.015.597.113.884.293.29.178.53.43.719.76.19.328.284.727.284 1.198 0 .465-.11.882-.328 1.252-.216.367-.55.658-1.004.874-.452.213-1.03.32-1.735.32H6.116zm1.372-1.177h1.98c.657 0 1.127-.127 1.411-.381a1.23 1.23 0 00.426-.955c0-.287-.072-.55-.217-.79a1.555 1.555 0 00-.622-.573c-.266-.142-.583-.213-.95-.213H7.488v2.912zm0-3.981h1.838c.307 0 .584-.06.83-.178.248-.118.445-.284.59-.497.148-.216.222-.47.222-.764 0-.375-.132-.69-.395-.945-.264-.255-.667-.382-1.212-.382H7.488v2.766zm9.639 5.295c-.672 0-1.25-.143-1.736-.43a2.922 2.922 0 01-1.118-1.22c-.26-.528-.39-1.145-.39-1.852 0-.698.13-1.314.39-1.847.263-.532.63-.948 1.1-1.247.474-.299 1.028-.448 1.66-.448.385 0 .758.063 1.12.19.36.128.684.328.972.6.287.272.513.626.679 1.06.165.433.248.958.248 1.577v.47h-5.42v-.994h4.12c0-.35-.071-.659-.213-.928a1.611 1.611 0 00-.6-.644 1.675 1.675 0 00-.896-.235c-.373 0-.699.092-.977.275-.275.18-.488.418-.64.71-.147.29-.221.606-.221.946v.777c0 .456.08.843.24 1.163.162.32.389.564.679.732.29.166.629.249 1.016.249.252 0 .481-.036.688-.107a1.427 1.427 0 00.883-.866l1.257.227c-.1.37-.281.694-.542.972-.257.275-.581.49-.972.644-.387.15-.83.226-1.327.226z"/><path stroke="#717171" d="M1 45h25v25H1z"/><path fill="#fff" d="M3 47h3v1H3zm19 0h2v1h-2zM8 65h11v2H8z"/></svg>