<svg width="160" height="117" fill="none" xmlns="http://www.w3.org/2000/svg"><path d="M11.304 116.156c4.87-5.694 7.245-10.212 14.395-13.155 9.163-3.771 26.611-7.123 36.091-13.958 6.842-4.932 8.663-14.247 14.885-19.84 5.344-4.801 6.856-5.42 13.374-8.318-7.102-7.093 8.605-21.239 2.875-1.369 12.053-8.932 24.694-11.36 35.77-22.003.994-.954 5.727-7.52 8.911-13.207.48-.86.925-1.698 1.317-2.494 1.3-2.642 1.198-6.147 1.198-6.147s-4.168-5.986-4.731-10.482c-.612-4.877 5.485-7.914 6.304-1.664.459 3.51.185 5.484.077 9.021 2.972-3.021 4.836-6.717 8.193-9.307 1.316-1.015 10.336-5.412 10.029.549-.435 8.45-17.925 12.584-17.925 12.584s-1.04 3.838-2.326 6.417c-2.971 5.955-8.392 14.307-13.48 18.282-6.793 5.308-17.693 10.173-25.035 14.693-4.61 2.837-3.113 1.447-7.83 4.54.253.07 17.436 1.19 11.768 5.59-6.082 4.724-14.4-4.173-14.4-4.173s-9.62 3.807-14.457 9.84c-7.55 9.415-11.945 18.35-18.102 21.132-10.163 4.591-19.92 5.984-30.173 10.372-4.017 1.718-4.87 1.369-8.84 4.855C15.225 111.4 12.159 117 12.159 117l-.854-.844z" fill="#45C8DA"/><path d="M136.162 34.053c.155-.007.331.057.461-.026 1.456-.92 2.926-1.841 4.239-2.957 1.493-1.271 2.24-2.842 3.42-4.302.701-.869 1.342-2.694 2.681-2.631.733.036 1.198.482 1.572 1.07 1.187 1.86.438 4.146-.895 5.784-1.361 1.661-3.898 3.136-5.988 3.566-1.281.264-2.595-.061-3.892.063m.757.666c3.161-.393 6.394-.704 9.573-.875 2.111-.109 4.463.24 6.245 1.397 1.361.883 1.429 2.299-.144 2.97-.748.323-1.534.244-2.319.244-3.504-.005-6.482-1.842-9.731-2.824m-6.013-.628c3.927.517 8.656 2.278 10.429 6.105.589 1.272.79 2.782.35 4.172-.503 1.58-2.613 2.895-4.136 2.03-2.747-1.56-2.874-5.052-3.868-7.658-.485-1.273-.694-2.99-1.97-3.75" fill="#E5ADD6"/></svg>