<svg width="68" height="8" fill="none" xmlns="http://www.w3.org/2000/svg"><path d="M6.937 4.922H5.99v.984H5v.999H1.993v-.943h-.99v-.998H0V1.969h.947V.984H1.95V0h2.995v.943h1.003v.984h.989v2.995zm-1.992.984V1.927h-.99V.984H1.993v3.98h1.003v.942h1.95zm9.65-2.966h-.947v.984h-.989v.998h-2.02v.97h3.956v1.013H7.658V4.95h.948v-1h1.003v-.984h1.977V1.97h1.031V.984H9.678v.957h-2.02V.984h.948V0h5v.943h.99v1.996zm1.711 4.117c0-.342.083-.582.25-.72a.908.908 0 01.6-.209c.24 0 .445.07.612.208.177.139.265.38.265.721 0 .333-.088.573-.265.721a.892.892 0 01-.613.222.874.874 0 01-.599-.222c-.167-.148-.25-.388-.25-.72zm9.577-.152h-5.947v-.97h1.963V1.996h-.96V.984h.947V0h2.005v5.893h1.992v1.012zm7.757-1.983h-.948v1.983h-2.006V4.964h-3.984V2.967h.948V1.97h1.003V.984h.989V0h3.008v3.91h.99v1.012zm-2.982-.998V1.983h-1.017v.984h-.947v.957h1.964zm4.692 3.133c0-.342.083-.582.25-.72a.908.908 0 01.6-.209c.24 0 .445.07.612.208.177.139.265.38.265.721 0 .333-.088.573-.265.721A.892.892 0 0136.2 8a.874.874 0 01-.6-.222c-.167-.148-.25-.388-.25-.72zm9.675-4.117h-.947v.984h-.99v.998h-2.02v.97h3.957v1.013h-6.937V4.95h.947v-1h1.003v-.984h1.978V1.97h1.03V.984h-2.938v.957h-2.02V.984h.947V0h5v.943h.99v1.996zm7.658 1.982h-.947v.984h-.989v.999h-3.009v-.943h-.989v-.998h-1.003V1.969h.948V.984h1.002V0h2.995v.943h1.003v.984h.99v2.995zm-1.992.984V1.927h-.989V.984h-1.964v3.98h1.003v.942h1.95zm9.651-2.966h-.948v.984h-.989v.998h-2.02v.97h3.957v1.013h-6.937V4.95h.947v-1h1.003v-.984h1.978V1.97h1.03V.984h-2.938v.957h-2.02V.984h.947V0h5v.943h.99v1.996zM68 5.906h-.947v.999h-4.987v-.943h-1.003V4.95h1.964v.956h2.995V3.98h-2.967V2.967h.947V1.97h1.017v-.957h-2.953V0H68v.957h-.947v.984h-1.017v.97h.975v.999H68v1.996z" fill="#fff"/></svg>