<svg width="273" height="484" fill="none" xmlns="http://www.w3.org/2000/svg"><path d="M61.988 470.288h-.816v.852h-.852v.864h-1.74v.84h3.408v.876h-5.976v-1.692h.816v-.864h.864v-.852h1.704v-.864h.888v-.852h-2.532v.828h-1.74v-.828h.816v-.852h4.308v.816h.852v1.728zm6.598 3.432h-4.26v-.816h-.852v-.864h-.864v-2.592h.816v-.852h.864v-.852h4.296v.828h-3.384v.852h-.876v2.556h.84v.876h1.716v-1.668h-.84v-.876h2.544v3.408zm6.705-.048h-6.048v-6.036h6.048v.84h-4.308v1.716h2.58v.888h-2.58v1.716h4.308v.876zm5.206-5.1h-1.68v5.148h-1.728v-5.1h-1.716v-.876h5.124v.828zm7.882 5.148h-1.692v-2.556h-2.544v2.556h-1.74v-5.976h1.692v2.544h2.556v-2.544h1.728v5.976zm6.705-.048h-6.048v-6.036h6.048v.84h-4.308v1.716h2.58v.888h-2.58v1.716h4.308v.876zm6.49-2.532h-1.692v.84h.84v.864h.852v.876H99.03v-.816h-.852v-.888h-.84v1.704h-1.74v-5.976h5.124v.816h.852v2.58zm-1.716-.852v-1.692h-2.544v2.544h1.728v-.852h.816z" fill="#fff"/><rect x="44" y="458" width="71" height="25" rx="12.5" stroke="#717171"/><path d="M151.988 472.004h-.816v1.716h-1.728v-1.68h-3.432v-1.728h.816v-.864h.864v-.852h.852v-.852h2.592v3.384h.852v.876zm-2.568-.864v-1.68h-.876v.852h-.816v.828h1.692zm9.274 2.532h-6.048v-6.036h6.048v.84h-4.308v1.716h2.58v.888h-2.58v1.716h4.308v.876zm6.489-2.532h-.816v.864h-.852v.852h-.864v.864h-.864v-.816h-.864v-.864h-.852v-.852h-.864v-3.444h1.692v2.52h.864v.888h.828v-.84h.864v-2.568h1.728v3.396zm6.706 2.532h-6.048v-6.036h6.048v.84h-4.308v1.716h2.58v.888h-2.58v1.716h4.308v.876zm6.49-2.532h-1.692v.84h.84v.864h.852v.876h-2.544v-.816h-.852v-.888h-.84v1.704h-1.74v-5.976h5.124v.816h.852v2.58zm-1.716-.852v-1.692h-2.544v2.544h1.728v-.852h.816z" fill="#fff"/><rect x="127" y="458" width="71" height="25" rx="12.5" stroke="#717171"/><path d="M261.504 354.012v.816h.852v.852h.864v2.592h-.816v.852h-.864v.864h-2.592v-.816h-.852v-.864h-.852v-2.58h.816v-.864h.852v-.852h2.592zm.852 1.716h-3.444v.852h-.816v1.692h3.444v-.864h.816v-1.68zm-2.568-8.314v.816h.852v.852h.864v1.74h.84v-3.408h.876v5.976h-1.692v-.816h-.864v-.864h-.852v-1.704h-.864v-.888h-.852v2.532h.828v1.74h-.828v-.816h-.852v-4.308h.816v-.852h1.728zm3.564-1.473c-.296 0-.504-.072-.624-.216a.78.78 0 01-.18-.516c0-.208.06-.384.18-.528.12-.152.328-.228.624-.228.288 0 .496.076.624.228.128.144.192.32.192.528a.75.75 0 01-.192.516c-.128.144-.336.216-.624.216zm-.132-8.251v5.124h-.84v-1.692h-3.408v.828h-.876v-.816h-.852v-1.728h5.1v-1.716h.876zm-1.716-6.682v.816h1.716v1.728h-1.68v3.432h-1.728v-.816h-.864v-.864h-.852v-.852h-.852v-2.592h3.384v-.852h.876zm-.864 2.568h-1.68v.876h.852v.816h.828v-1.692zm2.712-4.042c-.296 0-.504-.072-.624-.216a.78.78 0 01-.18-.516c0-.208.06-.384.18-.528.12-.152.328-.228.624-.228.288 0 .496.076.624.228.128.144.192.32.192.528a.75.75 0 01-.192.516c-.128.144-.336.216-.624.216zm-3.564-8.335v.816h.852v.852h.864v1.74h.84v-3.408h.876v5.976h-1.692v-.816h-.864v-.864h-.852v-1.704h-.864v-.888h-.852v2.532h.828v1.74h-.828v-.816h-.852v-4.308h.816v-.852h1.728zm1.716-6.597v.816h.852v.852h.864v2.592h-.816v.852h-.864v.864h-2.592v-.816h-.852v-.864h-.852v-2.58h.816v-.864h.852v-.852h2.592zm.852 1.716h-3.444v.852h-.816v1.692h3.444v-.864h.816v-1.68zm-2.568-8.314v.816h.852v.852h.864v1.74h.84v-3.408h.876v5.976h-1.692v-.816h-.864v-.864h-.852v-1.704h-.864v-.888h-.852v2.532h.828v1.74h-.828v-.816h-.852v-4.308h.816v-.852h1.728zm2.568-6.597v.816h.864v4.296h-.816v.864h-.876v-1.692h.828v-2.58h-1.668v2.556h-.876v-.816h-.864v-.876h-.828v2.544h-.876v-5.112h.828v.816h.852v.876h.84v-.84h.864v-.852h1.728z" fill="#fff"/><path fill-rule="evenodd" clip-rule="evenodd" d="M272.052 395.599c-7.886-.471-14.199-6.775-14.67-14.652h-23.764c-.471 7.877-6.784 14.181-14.67 14.652v71.802c7.886.471 14.199 6.775 14.67 14.652h23.764c.471-7.877 6.784-14.181 14.67-14.652v-71.802zm.948-.919c-8.118 0-14.698-6.572-14.698-14.68h-25.604c0 8.108-6.58 14.68-14.698 14.68v73.64c8.118 0 14.698 6.572 14.698 14.68h25.604c0-8.108 6.58-14.68 14.698-14.68v-73.64z" fill="#717171"/><path fill-rule="evenodd" clip-rule="evenodd" d="M262 406.838v49.324c0 5.986-4.763 10.838-10.638 10.838h-11.724c-5.875 0-10.638-4.852-10.638-10.838v-49.324c0-5.986 4.763-10.838 10.638-10.838h11.724c5.875 0 10.638 4.852 10.638 10.838zm-.868 37.38v-37.38c0-5.497-4.374-9.953-9.77-9.953h-11.724c-5.396 0-9.77 4.456-9.77 9.953v37.38h31.264zm0 11.944v-11.059h-31.264v11.059c0 5.497 4.374 9.953 9.77 9.953h11.724c5.396 0 9.77-4.456 9.77-9.953z" fill="#717171"/><path d="M251.971 405.062v-2.513h-.979v2.01h-.507v-1.996h-1.494v-1.026h3.46v3.525h-.48zm-2.952 7.847v-3.568h3.494v3.568h-.486v-2.541h-.993v1.521h-.515v-1.521h-.993v2.541h-.507zm0 3.891v-3.567h3.494v3.567h-.486v-2.541h-.993v1.522h-.515v-1.522h-.993v2.541h-.507zm-.028 4.733v-1.5h.472v-.503h.515v-.495h-.987v-1.027h3.46v.998h-1.473v.496h.486v.502h.494v.51h.493v1.019h-.48v-.481h-.493v-.503h-.5v-.516h-.486v.488h-.494v.51h-.5v.502h-.507zm0 3.743v-3.022h.486v.998h2.467v-.998h.507v3.022h-.48v-.998h-2.473v.998h-.507zm.5 4.04v-.481h-.5v-2.534h.472v-.51h.508v.998h-.48v1.522h.966v-2.01h.5v-.51h1.001v.482h.493v2.031h-.473v.51h-.5v-.998h.48v-1.013h-.966v2.011h-.5v.502h-1.001zm0 3.892v-.482h-.5v-2.534h.472v-.509h.508v.998h-.48v1.521h.966v-2.01h.5v-.509h1.001v.481h.493v2.031h-.473v.51h-.5v-.998h.48v-1.012h-.966v2.01h-.5v.503h-1.001zm-.472 3.955v-3.568h3.494v3.568h-.486v-2.541h-.993v1.521h-.515v-1.521h-.993v2.541h-.507zm.472 3.827v-.481h-.5v-2.534h.472v-.509h.508v.998h-.48v1.521h.966v-2.01h.5v-.509h1.001v.481h.493v2.031h-.473v.51h-.5v-.998h.48v-1.012h-.966v2.01h-.5v.502h-1.001zm-9.769-36.409v.481h2.959v-1.019h-2.959v-1.508h2.959v-.998h-2.987v.51h-.473v2.534h.501zm0 3.891v.481h1v-.502h.5v-2.01h.966v1.012h-.48v.998h.501v-.51h.472v-2.031h-.493v-.481h-1.001v.509h-.5v2.01h-.965v-1.521h.479v-.998h-.507v.509h-.473v2.534h.501zm-.473.869v3.567h.507v-2.54h.994v1.521h.514v-1.521h.993v2.54l.487.001v-3.568h-3.495zm.473 6.914v.481h1v-.502h.5v-2.01h.966v1.012h-.48v.998h.501v-.51h.472v-2.031h-.493v-.482h-1.001v.51h-.5v2.01h-.965v-1.522h.479v-.998h-.507v.51h-.473v2.534h.501zm1.181 2.029h-.542v1.713h.542v-1.713zm-1.181 5.954v.482h2.959v-1.02h-2.959v-1.507h2.959v-.998h-2.987v.509h-.473v2.534h.501zm-.501 3.375v.998h3.46v-1.019h-1.473v-.496h.507v-.502h.494v-.51h.472v-.998h-3.46v1.027h1.48v.495h-.507v.503h-.5v.502h-.473zm0 1.11v3.022h.507v-2.024h2.953v-.998h-3.46zm0 4.5v3.022h.507v-.998h2.474v.998h.479v-3.022h-.507v.998h-2.466v-.998h-.487zm0 6.064v.998h3.46v-1.019h-.493v-.509h-.486v-.489h.507v-.509h.472v-.998h-3.46v1.026h1.48v.495h-.486v.51h.486v.495h-1.48zm17.568 14.165h1.074v-4.67h-1.096v1.988h-.533v-.685h-.541v-.665h-.548v-.638h-1.074v4.67h1.104v-1.997h.533v.684h.541v.676h.54v.637zm-11.486-.675h-.518v.675h-2.726v-.637h-.549v-4.033h1.074v3.995h1.622v-3.995h1.097v3.995zm-8.374-2.682h-1.074v-.647h-1.073v.647h-.556v1.997h.533v.685h1.074v-.647h1.096v.647h-.518v.675h-2.185v-.637h-.541v-.676h-.548v-2.025h.518v-.666h.548v-.666h2.185v.638h.541v.675z" fill="#fff"/><path fill-rule="evenodd" clip-rule="evenodd" d="M250.485 407.955v.998h1.493v-.502h.473v-3.022h-3.46v1.026h.987v.495h-.515v.503h-.472v1.5h.507v-.502h.5v-.496h.487zm.493-.014h.98v-1.5h-1.473v1.019h.493v.481zm-9.862 44.836h-.518v.675h-2.726v-.637h-.548v-3.367h.517v-.666h2.734v.638h.541v3.357zm-1.089 0v-3.329h-1.614v3.329h1.614zm13.649 0h-.517v.675h-2.727v-.637h-.548v-3.367h.518v-.666h2.734v.638h.54v3.357zm-1.089 0v-3.329h-1.614v3.329h1.614zm-3.615-1.341h.518v-2.016h-.541v-.638h-3.252v4.67h1.104v-1.341h2.171v-.675zm-.571-1.988v1.988h-1.615v-1.988h1.615z" fill="#fff"/><path d="M12 459l.46 10.891 8.025-7.376-7.376 8.026L24 471l-10.891.459 7.376 8.026-8.026-7.376L12 483l-.46-10.891-8.025 7.376 7.376-8.026L0 471l10.891-.459-7.376-8.026 8.026 7.376L12 459z" fill="#fff"/><path fill="#717171" d="M260 45h1v235h-1z"/><g clip-path="url(#clip0_13_85)"><path d="M269.339 3.661L261.75 12.5l7.589 8.839-8.839-7.59-8.839 7.59 7.589-8.84-7.589-8.838 8.839 7.589 8.839-7.589z" fill="#D9D9D9"/></g><defs><clipPath id="clip0_13_85"><path fill="#fff" transform="translate(248)" d="M0 0h25v25H0z"/></clipPath></defs></svg>