<svg width="455" height="433" fill="none" xmlns="http://www.w3.org/2000/svg"><path d="M154.159 29.922s3.826 1.26 5.464-2.535c1.638-3.794-2.715-9.375-7.768-5.072-5.053 4.304-11.471 22.938-7.036 39.379 4.434 16.44 6.248 40.249 6.248 40.249s-20.979-20.365-30.817-37.295c-9.838-16.93-15.929-26.857-16.612-42.03-.683-15.173.498-22.618.498-22.618s-4.475 9.828-1.686 28.554c2.789 18.726 12.827 38.276 20.875 48.904 8.047 10.627 19.111 21.75 24.263 34.458 5.152 12.707 7.737 34.066 12.026 48.046 4.29 13.982 12.365 45.252 14.273 57.082 1.91 11.83 11.835 19.846 5.61 26.391-6.224 6.544-34.969 13.185-34.969 13.185s-1.634-19.084-9.498-42.197c-7.866-23.113-15.038-34.809-30.817-51.261-15.78-16.452-44.553-29.739-60.988-23.027-16.436 6.713-24.138 9.392-31.063 20.173-6.925 10.781-9.283 27.35-9.283 27.35s8.055-27.101 23.469-33.397c15.413-6.295 43.47-14.575 62.644 2.925 19.175 17.5 28.418 31.175 34.33 48.031 5.911 16.857 11.775 53.478 11.775 53.478s-4.009 2.775-13.296-6.001c-9.285-8.776-24.279-24.563-25.845-32.397-1.566-7.833-5.16-28.034-5.16-28.034s-3.062 23.74 5.967 37.827 33.617 33.942 33.617 33.942-10.42 2.936-24.018 2.535c-13.598-.399-39.549-2.485-48.783-10.658-9.234-8.174-20.727-15.222-33.389-24.243-12.662-9.021-19.014-11.081-22.602-2.589-3.59 8.492.029 12.79.029 12.79s-.157-13.852 7.707-12.886c7.865.966 14.986 6.569 21.614 14.324 6.628 7.754 27.345 25.637 42.965 29.341 15.62 3.703 33.075 2.516 44.565 1.145 11.49-1.371 19.086-3.736 19.086-3.736s.395 11.498 2.54 19.628c2.146 8.129 2.741 14.495 2.741 14.495s-13.532.093-26.221 7.705c-12.69 7.611-22.623 16.823-24.882 25.087-2.26 8.264-7.734 26.009 2.52 39.319 10.253 13.31 17.987 15.832 23.982 13.222 5.997-2.609 9.212-10.525 7.56-14.44-1.651-3.914-11.209-6.089-11.209-6.089s8.255 3.479 7.734 8.612c-.521 5.132-9.906 12.787-16.858 4.35-6.951-8.438-16.77-19.051-11.47-36.101 5.3-17.051 17.118-26.88 28.328-30.795 11.209-3.914 21.116-5.219 21.116-5.219s5.493 20.419 13.035 32.298c7.544 11.878 19.794 24.685 27.494 30.609 7.7 5.924 18.011 11.054 22.827 19.136 4.815 8.082 6.277 27.128 6.277 27.128s2.729-14.317 1.7-21.584c-1.028-7.267-12.507-23.361-19.189-29.497-6.683-6.135-17.056-11.146-24.65-19.958-7.594-8.81-11.073-13.461-13.834-21.578-2.762-8.117-5.961-17.676-5.961-17.676s6.022-1.539 13.226-.484c7.204 1.055 13.722 2.121 18.379 6.117 4.656 3.997 11.974 23.227 11.974 23.227s.387-19.116-12.04-28.621c-12.427-9.505-32.141-6.75-32.141-6.75s-2.883-13.835-3.621-20.255c-.737-6.421-1.143-9.847-1.143-9.847s13.966 5.984 19.953 10.555c5.988 4.571 9.26 13.042 15.401 16.82 6.139 3.778 17.022 4.157 17.022 4.157s-9.886-2.787-15.059-9.051c-5.174-6.265-11.127-15.259-19.277-19.728-8.15-4.469-16.018-8.681-16.018-8.681s5.302-.766 12.345-3.677c7.042-2.911 17.67-1.055 24.9-9.182 7.229-8.127 15.056-22.288 7.171-44.272-7.885-21.984-16.862-25.48-21.996-41.349-5.135-15.868-12.834-34.937-10-53.057 2.832-18.12-4.654-25.897-7.532-34-2.879-8.103-6.489-21.56-6.024-30.192.465-8.63-.164-12.981 3.124-19.972 3.29-6.99 5.442-7.553 6.954-6.067 3.145 3.091-2.573 5.524-2.573 5.524z" fill="#7746FF"/><path d="M329.477 4.032c-2.924.234-6.051 1.754-9.41 4.988-8.96 8.62 3.815 31.854 11.871 18.43 8.063-13.423-2.367-16.892-4.835-13.013-2.468 3.88.405 6.62.405 6.62s-.007-5.978 2.917-4.964c2.924 1.013 3.612 7.04-.478 9.838-4.082 2.798-10.408 1.489-10.314-8.161.101-9.65 8.859-12.475 12.421-11.765 3.561.708 8.758 4.63 9.995 10.79 1.245 6.16 2.418 14.987-8.432 21.582-10.857 6.595-20.122 2.19-38.115 11.199-17.994 9.008-29.676 20.089-38.225 32.69-3.858 5.687-40.354 39.077-23.948 86.483 16.407 47.406-23.584 164.795-30.388 149.797-6.804-14.999-3.067-50.86-5.426-95.091-1.978-37.075-8.387-79.933-10.109-83.131-3.776-7.015-4.734-8.631-4.275-21.491.459-12.861 2.134-16.626-.045-20.516-2.18-3.89-2.624-3.832-2.624-3.832s-1.369-6.59-6.311-12.718-18.796-18.911-29.246-27.997c-10.45-9.086-16.717-14.941-25.107-16.209-8.389-1.268-17.97-1.382-31.1-.362-13.131 1.018-20.832-.042-27.754 5.282-6.922 5.323-10.646 9.091-14.702 14.145-4.057 5.054-8.278 12.038-8.278 12.038s-6.303 5.707-9.772 13.783c-3.469 8.077-5.384 15.301-4.615 20.925.77 5.623.86 10.542.86 10.542s-2.442 1.591-4.546 7.049c-2.104 5.459-2.172 9.975-2.172 9.975s-1.657 2.242-1.719 9.499c-.062 7.257 7.102 21.537 7.102 21.537s-1.835 1.881-2.487 8.75c-.653 6.869-.317 9.749-.317 9.749s-3.716 9.018-2.737 17.523c.98 8.505 8.279 18.907 8.279 18.907s-1.332 5.851.407 12.174c1.738 6.322 8.391 9.861 8.391 9.861s-2.935 12.631 5.632 21.219c8.568 8.588 15.992 12.129 15.992 12.129s-6.468 7.379 2.827 18.022c9.296 10.643 25.152 16.255 25.152 16.255s-8.624 7.998-1.606 19.111c7.019 11.112 10.684 8.334 18.548 14.009 7.864 5.676 13.255 8.161 13.255 8.161s-3.656 8.658 5.519 14.714c9.175 6.056 12.146 6.233 12.146 6.233s4.694 4.74 10.631 10.791c5.937 6.052 6.284 9.047 11.354 18.136 5.07 9.089 5.845 12.487 16.354 18.499 10.508 6.012 15.133 6.393 20.379 10.269 5.247 3.878 9.694 9.953 10.496 4.058.801-5.893-.261-16.144-1.629-17.501-1.368-1.357-12.473-17.809-10.744-21.105 1.728-3.296-8.059-35.004 10.744-41.781 36.355 17.596 56.996 9.945 73.397 1.451 16.402-8.494 23.922-17.598 23.958-28.429.029-10.829-14.382-14.691-21.309-8.41-6.934 6.281-1.071 17.513 6.761 14.577 7.831-2.935 2.511-8.841 2.511-8.841s1.31 5.237-3.076 4.896c-4.386-.34-5.566-9.167 2.034-9.657 7.607-.491 10.416 6.115 8.707 11.222-1.701 5.106-6.014 13.905-21.735 18.929-15.721 5.024-39.173 10.084-47.023 9.952-7.85-.132-5.835-3.746-3.846-12.605 1.99-8.858 1.119-19.217 17.668-34.729 16.546-15.513 13.947-7.401 24.631-19.837 10.676-12.436 20.447-27.816 20.447-27.816s-12.811 15.058-24.725 24.03c-11.906 8.972-21.931 11.73-25.76 16.504-3.836 4.775-6.718 10.02-6.718 10.02s3.96-18.717 17.032-33.982c13.072-15.266 27.555-32.232 45.889-37.927 18.341-5.695 40.939-11.391 67.748 3.763 26.81 15.154 30.899 24.234 30.899 24.234s-2.735-12.283-30.399-32.191c-27.671-19.908-67.3-9.943-83.448-1.587-16.14 8.357-32.405 25.555-32.405 25.555s-14.88-17.094 5.56-33.693c20.433-16.601 48.313-12.345 66.568-17.343 18.254-4.997 20.375-5.708 31.304-20.04 10.93-14.332 17.958-30.65 17.958-30.65s-13.492 19.321-26.216 28.927c-12.725 9.606-29.228 17.474-48.625 14.463-19.406-3.011-40.989-10.723-40.989-10.723s46.989 7.911 67.675-3.786 47.373-46.562 68.696-49.329c21.316-2.768 42.929-2.281 54.828 12.241 11.893 14.522 15.287 31.114 3.366 37.497-11.921 6.382-26.513-.232-25.304-10.156 1.202-9.924 10.958-13.401 17.574-10.247 6.608 3.153 3.163 10.596-.977 9.272-4.133-1.325-1.897-4.399-1.897-4.399s-4.516 3.707 1.788 6.756c6.297 3.05 15.207-9.711 2.237-16.005-12.971-6.293-29.987 9.983-20.151 23.191 9.829 13.209 23.661 8.294 29.495 5.623 5.827-2.672 22.185-23.328-.434-46.769-22.612-23.44-53.728-18.642-67.784-13.941-14.064 4.7-38.029 26.42-53.048 39.242-15.012 12.821-38.101 19.23-58.671 13.42-20.564-5.81-18.986-28.034 4.277-32.94 23.263-4.904 32.571-2.58 38.586 3.242 6.022 5.823-.405 14.695-9.134 14.464-8.737-.231-8.331-6.569-7.441-8.728.883-2.159 7.238 2.584 7.238 2.584s3.699-7.592-4.299-7.707c-8.006-.116-8.042 9.76-4.387 12.921 3.648 3.162 12.479 6.737 19.29.181 6.811-6.555 5.399-23.089-16.648-25.095-22.047-2.005-41.141 8.282-43.225-2.471-2.085-10.753 12.514-54.367 29.205-66.763 16.684-12.396 30.849-21.364 51.412-25.844s19.818-27.476 13.702-35.093c-3.815-4.76-8.114-7.938-12.978-7.549zM91.909 43.704c5.2.248 12.406 1.445 23.931 4.739 23.051 6.587 31.259 24.483 31.259 24.483s-6.271-.986-13.933-5.395c-7.661-4.41-16.412-8.713-24.202-12.129-7.791-3.416-16.69-3.433-27.799-1.881-11.11 1.55-19.045 6.71-19.045 6.71l-3.8.09s2.91-4.428 6.967-8.728c4.056-4.3 7.717-5.792 14.724-6.891 3.504-.55 6.698-1.244 11.898-.998zm-9.885 23.804c5.827-.035 12.736.63 21.647 2.108 23.762 3.946 32.164 16.164 32.164 16.164s-11.869-1.294-21.103-4.307c-9.235-3.014-20.609-3.992-30.65-3.197-10.04.796-23.057 10.728-30.602 15.37-7.545 4.642-24.994 16.482-24.994 16.482s1.665-7.673 6.469-16.822c4.803-9.15 10.686-14.704 23.003-20.266 7.698-3.478 14.356-5.474 24.066-5.532zm15.45 27.227c2.04.023 4.031.184 5.948.499 15.33 2.518 18.85 2.831 26.781 10.586 7.931 7.755 9.862 16.209 9.862 16.209s-12.889-3.375-34.132 2.312c-21.243 5.688-39.21 10.909-53.426 18.227-14.216 7.318-16.708 7.116-21.239 10.927-4.53 3.811-7.148 6.982-7.148 6.982s.462-14.928 7.284-25.412c6.821-10.486 17.297-22.235 26.848-28.542 8.357-5.518 24.94-11.954 39.221-11.788zm19.361 46.609c9.08-.522 18.027 4.284 18.027 4.284s2.336 1.894 7.533 8.865c5.196 6.97 11.739 11.697 11.739 11.697s-7.001 5.5-14.069 7.867c-7.068 2.366-12.952 2.107-29.744 2.38-16.793.273-30.787 2.374-38.86 2.789-8.072.413-18.57 10.813-18.57 10.813s-1.374-.158-8.505 3.015c-7.129 3.173-13.57 13.579-13.57 13.579s-.886-13.578 4.885-20.992c5.771-7.414 11.927-14.842 16.739-22.715 4.81-7.873 9.327-7.414 20.311-10.156 10.984-2.743 29.978-8.283 40.194-10.859 1.277-.323 2.593-.492 3.89-.567zm10.97 43.957c5.447-.167 10.828.622 17.19 3.922 12.725 6.6 16.739 22.398 16.739 22.398s-9.476 2.8-17.824 2.357c-8.348-.442-21.916 1.664-31.915 2.177-10 .513-24.838 1.875-33.273 4.624-8.434 2.75-15.344 4.381-26.939 5.26-11.595.878-13.3 6.234-13.3 6.234s-.853-3.504 2.014-12.378c2.866-8.874 9.456-10.254 24.564-20.538 15.107-10.286 31.905-11.25 45.147-12.265 6.62-.508 12.151-1.625 17.597-1.791zm-1.108 40.285c5.501-.003 10.574.169 14.657.475 16.334 1.229 20.074 8.604 26.577 17.615s11.875 8.524 11.875 8.524-4.8.752-13.526-2.539c-8.726-3.291-9.993-2.655-25.288-4.489-15.294-1.833-36.86 8.397-54.42 13.919-17.562 5.523-26.126 9.998-26.126 9.998s-4.71-1.728-6.31-13.42c-1.6-11.692 11.656-18.03 25.31-23.985 10.241-4.467 30.746-6.091 47.251-6.098zm20.538 76.873c3.883.365 6.557 1.624 10.427 3.469 7.74 3.689 15.969 9.249 15.969 9.249s-8.052 5.928-16.67 6.144c-8.617.215-14.998 3.09-26.261 9.34-11.262 6.249-14.159 13.647-14.159 13.647s-1.817-.935-7.781-4.693c-5.964-3.757-9.997-9.431-9.997-9.431s-1.61-4.402.226-11.901 13.125-10.441 30.558-13.919c8.717-1.74 13.805-2.27 17.688-1.905zm42.953 23.849c6.024.295 5.089 10.36 5.089 10.36s-4.928 1.726-6.559 7.958c-1.631 6.23.248 9.543.248 9.543s-4.54-3.187-10.947-1.791c-6.407 1.398-7.466 4.442-13.616 11.2-6.151 6.758-8.482 6.249-18.955 3.355-10.473-2.895-14.554-9-15.155-16.776-.6-7.776 9.659-13.761 9.659-13.761s21.907.546 30.693.136c8.787-.409 7.168-6.368 16.512-9.68 1.168-.414 2.17-.586 3.031-.544zm-18.525 53.32s.979.943 4.705 5.101c3.727 4.157 9.798 7.924 14.069 15.256 4.271 7.334 6.763 11.811 6.763 11.811l-3.212 5.441s-3.741-3.592-7.962-4.239c-4.22-.646-2.776-4.458-6.265-9.363-3.489-4.904-7.238-4.08-7.238-4.08s-2.412-4.872-4.773-10.429c-2.361-5.556-4.976-8.637-4.976-8.637s1.731.03 4.433.113c2.702.085 4.456-.974 4.456-.974zm-30.354-117.68c6.251.048 11.773 1.122 16.308 3.333 9.071 4.42 18.163 18.43 18.163 18.43s-9.042 2.748-17.349 2.993c-8.307.245-24.1 2.559-39.357 3.99-15.257 1.43-25.13 8.41-25.13 8.41s-3.226-.492-12.326-5.554c-9.1-5.062-7.322-8.648.565-15.597 7.887-6.949 23.636-9.486 38.475-13.216 7.419-1.866 14.4-2.837 20.651-2.789z" fill="#E5ADD6"/><path opacity=".996" d="M309.783 12s-4.854 1.412-10.451 5.305c-5.589 3.892-6.55 4.073-18.935 6.855-12.379 2.782-15.658 11.822-22.518 24.41-6.868 12.589-10.84 15.737-22.164 28.39-11.327 12.652-10.504 15.771-15.483 29.153-4.979 13.38-14.286 35.851-14.286 35.851s-17.524 28.568-15.166 37.627c2.358 9.058-2.191 24.28-1.219 31.356.973 7.075.933 15.29 4.807 24.14 3.874 8.851 3.589 18.544 3.589 18.544s-6.323-6.311-9.976-9.98c-3.653-3.668-5.597-13.734-5.597-13.734s-.463 5.478 7.944 23.624c8.407 18.147 7.696 19.241 7.696 19.241s-1.453.667-13.721-1.799C172.035 268.518 166 248.709 166 248.709s2.318 14.209 14.511 27.444c12.193 13.236 20.985 13.898 17.762 15.42-3.224 1.522-14.647 0-14.647 0s13.842 9.449 15.188 14.295c1.346 4.847.592 7.659-5.304 5.26-5.894-2.399-9.366-14.026-9.366-14.026s2.152 16.339 6.794 25.804c4.641 9.465 5.078 17.263 5.078 17.263s-4.094-5.792-10.021-9.306c-5.927-3.514-11.464-1.91-11.464-1.91s12.271 4.393 15.617 9.71c3.345 5.317 2.905 13.032 1.309 14.026-1.596.994-13.318-6.877-18.484-11.194-5.165-4.317-4.739-23.129-4.739-23.129s-1.737 15.952 2.392 25.152c4.129 9.2 15.821 14.674 18.055 19.802 2.234 5.129-2.306 14.845 2.279 24.051 4.586 9.206 12.972 9.119 20.064 5.08 1.249-.712 2.558-1.204 3.859-1.641-1.655-2.03-3.398-4.396-3.565-5.597-.428-3.05 1.124-2.798.969-7.372-.154-4.574-.265-7.76-1.579-10.924-1.315-3.164-2.583-3.563-4.198-3.709-5.763-.522-7.535 9.67-6.725 14.183.263 1.467 1.579 7.028 3.521 7.125 1.445.073 3.455-3.325 3.633-6.833.144-2.835.021-6.39-1.851-6.968-1.871-.578-2.769 2.525-.609 5.035 0 0-2.645-.415-2.686-3.865-.037-3.101 2.628-4.261 4.83-2.968 4.171 2.45 1.336 20.74-4.333 18.971-5.766-1.799-6.035-14.271-3.814-20.836 2.662-7.872 7.71-7.872 9.975-7.148 6.363 2.034 5.191 15.887 5.936 22.185.138 1.173 1.215 5.138 2.075 8.204 5.555-1.466 10.969-.963 13.338-.877 3.149.116 9.092 2.269 7.72 10.25-1.257 7.288-6.969 4.643-7.987 4.113.758.247 2.592.32 5.279-2.899 3.596-4.321-8.331-6.753-10.405.045-2.074 6.797-7.637 10.298-11.352 12.97-3.715 2.67-7.458-7.108-12.57-14.498-5.113-7.391-9.683-7.899-16.927-12.992-7.244-5.094-8.915-17.173-8.915-17.173s.153 8.932 1.31 19.825c1.156 10.893 7.33 13.613 15.617 18.634 8.286 5.02 9.351 9.547 10.584 18.746 1.234 9.198 1.503 6.677 5.439 4.585 3.938-2.093 15.54-8.426 28.75-16.004 13.216-7.577 15.758-20.714 21.94-29.58 6.175-8.865 11.418-13.464 11.418-13.464s2.614-3.441 7.54-5.215c4.918-1.773 6.904-6.046 6.904-6.046s1.047-.945 11.62-2.405c10.58-1.461 20.329-8.02 34.152-16.364 13.823-8.344 17.578-39.649 17.578-39.649s-10.161 24.618-16.025 32.232c-5.864 7.613-13.505 7.307-22.93 10.227-9.424 2.921-19.044 5.844-19.044 5.844s5.799-5.926 13.967-9.283c2.68-2.788 10.754-11.236 13.635-15.419 3.373-4.91 1.416-10.894-3.661-14.701-5.07-3.806-9.049-7.867-9.049-7.867 10.414 6.434 7.886 2.987 14.22 7.912 6.333 4.926 2.311 11.083-.246 16.454-1.798 3.772-3.669 6.284-5.214 8.227 3.957-2.948 6.608-5.822 6.608-5.822s5.821-7.885 4.608-14.903c-1.214-7.017-4.875-7.912-4.875-7.912s7.063-2.246 16.451-8.046c9.389-5.801 11.577-14.026 11.577-14.026s9.222-3.324 16.047-17.083c6.825-13.759 4.29-14.917 5.142-21.758.86-6.841-.152-5.632 4.088-7.508 4.239-1.875 4.788-5.311 5.077-13.418.296-8.107 2.369-9.404 6.658-18.23 4.29-8.825 2.015-15.654.275-24.635-1.741-8.981 2.26-27.152 3.134-42.819.874-15.667-7.785-23.13-7.785-23.13s.325-11.184-.498-19.127c-.824-7.943-2.608-9.018-4.449-14.499-1.835-5.48-7.554-8.968-9.316-12.024-1.763-3.058-1.351-4.005-11.628-16.656-10.269-12.652-20.438-13.543-34.889-14.7-14.444-1.158-17.838-3.375-31.841-.81-14.011 2.565-25.71 14.296-25.71 14.296.007 0 2.759-9.108 6.752-15.689 3.987-6.581 7.807-8.02 11.916-9.328 4.11-1.308 12.53-3.072 17.579-7.553 5.055-4.48 11.714-8.541 11.714-8.541zm8.731 34.03c4.94.176 8.998 1.26 12.616 3.305 9.663 5.45 12.003 7.566 15.621 11.845 3.619 4.279 4.218 12.25 4.218 12.25s-3.416-10.241-7.54-11.036c-4.116-.795-16.588-5.244-23.514-6.27-6.926-1.028-16.358-1.054-25.862 2.809-9.504 3.861-16.538 7.219-21.55 11.059-5.012 3.839-11.851 3.214-11.851 3.214s-.585-13.978 23.745-20.927c15.203-4.343 25.891-6.54 34.117-6.249zm-61.386 13.622c-4.117 7.39-13.614 27.086-16.474 35.469-4.087 11.992-4.311 45.989-4.311 45.989s-2.094-19.354-1.668-29.536c.426-10.181 2.506-13.261 2.506-13.261s-7.547 9.53-9.974 14.677c-2.428 5.148-7.968 17.667-7.968 17.667s3.658-15.712 9.254-24.859c5.597-9.148 8.673-10.76 12.999-20.815 4.326-10.053 15.636-25.331 15.636-25.331zm53.781 2.202c1.336.002 2.658.147 3.929.495 10.168 2.782 17.434 7.164 22.814 9.687 5.387 2.525 17.26 6.43 22.077 11.734 4.81 5.303 8.327 10.649 10.631 16.881 2.304 6.231 4.08 10.272 4.08 10.272s-15.57-10.287-22.994-14.858c-7.424-4.572-12.068-7.987-18.438-8.833-6.377-.847-16.646-2.296-23.767-.495-7.121 1.801-19.073 4.787-19.066 4.787 0 0 6.724-3.814 16.112-5.978 9.389-2.165 24.237-.922 24.237-.922s-8.963-5.506-18.351-4.968c-9.381.538-16.95 1.138-22.475 3.417-5.532 2.279-18.668 8.113-16.112 2.99 2.557-5.124 6.298-10.35 23.45-13.42 17.145-3.068 29.783-2.45 29.783-2.45s-6.839-5.284-14.285-6.001c-7.446-.717-21.167 5.08-21.167 5.08s10.19-7.426 19.542-7.418zm-7.561 35.694c12.855.097 34.311 3.162 44.263 12.43 9.944 9.269 21.167 19.091 25.342 27.086 4.174 7.994 4.398 18.971 4.398 18.971s3.278 4.268 4.087 7.889c.809 3.621 1.127 10.385 1.127 10.385s-2.022-11.753-6.384-15.937c-4.362-4.184-7.265-6.513-16.473-10.295-9.216-3.782-14.401-6.023-30.152-11.575-15.758-5.553-22.85-11.876-35.77-13.172-12.927-1.296-28.281 3.974-29.249.674-.975-3.299 1.437-8.424 5.142-12.474 3.705-4.051 6.904-6.721 6.904-6.721s-5.727 1.361-9.366 4.361c-3.64 2.998-8.508 9.552-8.508 9.552s-.549-7.219 8.103-12.003 15.932-5.237 15.932-5.237 7.763-4.03 20.604-3.934zm-34.275 38.167c8.24-.393 16.783 2.252 28.432 5.372 15.535 4.16 35.539 10.771 44.711 15.015 9.172 4.244 14.003 6.556 20.424 13.531 6.413 6.975 8.644 14.476 8.644 14.476s-3.278-2.546-8.262-9.126c-4.983-6.58-11.8-10.52-11.8-10.52s12.06 15.825 18.437 24.883c6.37 9.058 3.611 17.959 3.611 17.959s-1.82-1.317-3.654-4.09c-1.842-2.774-3.683-3.316-8.103-7.284-4.427-3.966-7.634-5.012-7.634-5.012s-14.942.778-19.138.225c-4.188-.553-14.595-5.147-14.595-5.147s12.133 2.363 17.983 2.675c5.857.312 11.287-.225 11.287-.225s-8.261-4.525-18.957-8.047c-10.703-3.521-29.834-3.027-38.052-3.282-8.219-.255-26.88-1.368-32.456-3.978-5.575-2.611-9.2-10.751-7.106-17.533 2.087-6.782 7.922-9.44 7.922-9.44s-4.188 5.068-5.329 11.261 1.603 7.058 1.603 7.058 2.535-6.802 7.72-13.037c5.178-6.234 7.583-6.461 18.914-6.518 11.324-.058 49.015 9.508 49.015 9.508s-4.441-1.753-9.41-3.664c-4.968-1.911-16.097-5.42-31.69-9.643-15.584-4.223-20.423-3.486-31.66-.652-11.238 2.835-15.629 11.141-18.575 20.59-2.947 9.448 3.495 17.846 3.495 17.846-3.596-2.988-6.052-7.636-5.929-10.317.116-2.68-.939-1.441 1.329-11.058 2.268-9.618 9.432-16.733 20.561-20.343 2.78-.902 5.51-1.352 8.262-1.483zm-62.788 16.948c5.465-.39 7.654 5.169 7.583 14.363-.072 9.194-6.372 15.169-8.328 21.151-2.591 7.918 1.656 19.525 1.647 19.533-.372.346-8.193-12.449-4.988-19.42 4.538-9.869 7.861-17.185 8.012-21.264.092-2.464.574-5.99-.767-8.182-1.594-2.606-4.494-2.949-6.658-.764-2.74 2.767-4.497 7.522-4.423 11.081.074 3.559 2.933 4.493 4.716 3.147 1.452-1.095 1.545-7.44-.361-7.013-1.448.325-1.771 2.285-.225 4.99 0 0-2.153-.942-2.437-2.428-.574-2.993 1.235-5.265 2.257-5.281 1.021-.018 2.856-.051 3.408 2.629.55 2.68.366 4.277-.475 7.35-.841 3.074-2.736 4.136-4.039 4.249-3.775.326-5.223-4.898-5.011-7.8.429-5.856 2.757-15.818 10.089-16.341zm18.709.922c.163-.094.688 11.345-2.844 19.487-3.532 8.143-12.119 12.318-12.119 12.318 3.798-6.89 4.9-5.494 9.998-12.767 4.911-7.009 4.778-18.931 4.965-19.038zm5.824 16.476c.029.013-.029 3.223-.022 3.484.029 3.394 2.145 23.563 3.135 30.232.368 2.507 2.585 13.806-.087 22.027-2.679 8.221-9.759 11.108-10.61 10.857-.223-.065-5.287-6.535-6.252-14.97-.965-8.435.84-17.305 1.67-19.6.815-2.255 3.977-9.135 6.003-8.722 2.863.584 2.985 14.256 3.05 21.084.008 1.511.853 6.313-1.741 6.204-.955-.041-2.12-2.514-2.73-5.238-.611-2.723-.582-8.719-.542-10.046 0 0 1.236 11.403 3.159 11.261 1.927-.143.794-19.611-1.738-18.23-4.279 2.336-4.716 14.695-4.265 21.714.451 7.018 2.664 10.689 4.875 10.969 13.346 1.687 5.171-34.419 5.553-43.36.159-3.797.022-14.43.087-15.958.007-.112.101-1.877.455-1.708zm34.593 16.79c8.861-.376 14.408 2.097 22.749 2.023 11.129-.099 21.615-1.783 38.796 6.158 17.188 7.943 24.54 11.984 30.426 19.421 5.879 7.437 7.381 18.005 7.381 18.005s-4.579-5.779-11.064-6.047c-6.485-.268-10.537-.495-10.537-.495s6.803 2.388 9.186 4.833c2.384 2.446 4.442 10.34 4.442 10.34s-6.413-9.823-20.265-15.622c-13.844-5.8-24.496-10.389-36.651-12.16-12.154-1.771-21.796 1.906-30.917 1.326-9.121-.58-18.279-2.158-18.279-2.158s15.853.803 19.225-2.293c3.38-3.095-5.048-12.269-11.598-9.216-6.551 3.054-1.849 6.362-1.849 6.362s-7.793.91-11.266-.832c-3.467-1.742-4.983-7.08-4.983-7.08s-.658-7.231 15.007-11.037c3.914-.951 7.243-1.403 10.197-1.528zM208.18 222.32s.65 9.97 1.399 16.004c.996 8.006 1.12 11.769 1.174 15.262.029 1.908.039 4.366 0 6.72-.028 1.645-.08 3.241-.181 4.564-.22 2.913-2.251 9.16-3.001 12.047-1.879 7.232-4.294 7.92-6.455 15.015-1.361 4.47 3.198 14.914 4.176 16.948.977 2.035 1.937-2.201 2.279-3.416 1.007-3.581 2.663-7.44 2.979-11.149.105-1.228-.047-3.025-1.399-3.619-1.463-.642-1.723.526-2.347 1.551-1.342 2.201-1.611 6.369-.7 7.327.91.96 1.967-4.88 2.618-2.674.65 2.206-2.083 6.087-2.731 6.383-.793.363-1.578-2.388-1.76-2.989-1.048-3.453-.713-6.518.541-9.845.609-1.615 1.269-3.989 2.889-4.923 3.072-1.77 5.117 2.415 5.349 4.81.369 3.819-1.139 7.137-2.099 10.722-.652 2.432-.976 3.989-1.783 6.361-.597 1.757-2.398 7.995-3.069 7.912-.431-.053-2.809-4.147-3.002-4.675-1.924-5.265-3.888-12.493-3.859-18.319.018-3.643 3.902-9.819 4.672-10.924 1.732-2.487 2.298-5.831 3.34-11.149 1.041-5.318 1.321-9.193 1.512-14.7.386-11.126-2.05-18.815-.542-33.244zm74.412 4.293c10.725-.284 23.103.826 37.077 4.9 13.967 4.075 12.877 3.936 24.396 12.273s8.767 19.278 7.178 26.096c-1.596 6.818-6.391-.284-9.258-1.438-2.86-1.156-10.775-4.85-19.925-7.598s-24.064-6.779-34.528-11.036c-10.465-4.257-22.533-4.759-34.781-3.17-12.241 1.591-13.447 5.447-14.422-.516-.975-5.963 9.367-13.622 9.367-13.622s-4.052.736-9.367 3.844c-5.308 3.108-4.456 1.882-10.652 13.082-6.194 11.199 2.664 9.553 2.664 9.553-4.447 4.401-6.678-.456-6.701-5.193-.024-4.736 6.644-14.064 11.713-18.386 5.07-4.322 13.845-6.589 20.128-6.811 6.29-.222 16.379-1.693 27.111-1.978zm-68.702 11.036c.074-.582.63 10.31.609 11.801-.047 3.492 1.75 25.717 2.302 31.783.49 5.367 4.301 9.513 3.701 15.105-.129 1.21-.136 6.486-3.881 11.126-3.745 4.64-4.829 10.043-5.462 13.712-.72 4.178.084 9.783 1.49 13.778.022.062.046.118.067.18-.205-3.275 1.009-5.779 2.709-7.778 2.872-3.377 3.236.63 6.409 3.462 3.173 2.833 8.009 4.79 17.513 6.564 9.504 1.773 21.348-.023 21.348-.023s-7.092-3.323-11.035-5.372c-3.936-2.05-10.472-3.664-10.472-3.664s17.044-.018 31.257 11.509c14.22 11.526-6.623 25.499-16.069 29.242-9.446 3.744-14.805-2.697-14.805-2.697s-.881-6.932-7.489-11.418c-6.612-4.487-10.496-2.675-10.496-2.675s-1.683-1.548-6.116-9.17a25.792 25.792 0 01-1.467-2.901c-.072-.035-.088-.058-.158-.089-2.722-1.195-3.269-4.273-3.905-7.013-1.954-8.428-1.968-17.373 1.919-25.489 1.27-2.654 3.05-5.16 3.927-8.07.732-2.432.995-5.776.473-8.271-.367-1.76-1.307-3.32-1.918-4.99-.599-1.642-.863-3.658-1.015-5.395-.371-4.225-.607-24.566-.497-27.063.248-5.627.35-10.595 1.061-16.184zm85.175 21.107c3.048.182 6.218 1.371 8.977 2.113 6.536 1.753 12.87 4.437 18.914 7.462 2.586 1.292 4.492 2.651 6.572 4.63 1.055 1.007 1.777 1.784 1.733 1.822-.021.02-1.43-.872-2.412-1.417-1.112-.616-2.275-1.163-3.408-1.731-3.575-1.788-7.215-3.388-10.855-5.012-1.878-.838-3.568-1.766-5.575-2.27l-16.95-5.394c.975-.214 1.986-.264 3.004-.203zm-35.004 3.462c9.547-.164 21.86 2.13 40.442 8.383 29.726 10.006 26.295 17.463 20.583 21.871-5.713 4.407-14.69 6.047-14.69 6.047s-6.803-1.635-16.841-5.126c-10.039-3.49-21.204-4.849-37.323-4.99-16.126-.141-23.543 4.878-23.543 4.878s-6.419.35-4.984-3.686c1.43-4.036 9.483-20.607 21.413-24.748 4.478-1.553 9.216-2.532 14.943-2.629zm-10.046 40.549c5.416-.108 12.487 1.062 24.013 3.079 23.052 4.034 26.598 9.125 27.739 19.6 1.141 10.475-18.033 18.364-18.033 18.364s-4.131-5.098-9.93-9.531c-5.799-4.432-15.325-8.678-30.065-11.44-14.733-2.762-18.661-.71-20.828-1.417-2.164-.706 3.178-7.784 13.021-14.025 4.926-3.121 8.674-4.523 14.083-4.63zm-54.095 48.91s3.735.261 7.944 3.147c4.21 2.886 6.804 5.889 11.916 13.487 5.113 7.597 8.799 6.226 8.799 6.226l-6.813-12.565s4.375 8.701 15.711 15.487c11.331 6.785 22.409-4.743 22.409-4.743-5.236 10.256-11.634 9.283-18.307 8.654-6.673-.63-10.71-2.829-15.524-4.833-4.815-2.005-7.447-5.927-13.293-13.891-5.847-7.964-12.842-10.969-12.842-10.969zm172.332-192.608c6.189.7 5.713 6.884 5.619 11.328-.029 1.535-.044 6.473-.672 6.721-.347.134-2.954-1.908-3.365-2.202-1.466-1.053-2.326-2.126-3.568-3.349-1.957-1.932-4.109-3.923-6.139-5.755-1.935-1.747-3.928-3.431-5.662-5.372l3.452 2.136c4.016 2.148 6.919 5.827 10.155 9.013.613.606 1.834 2.034 2.729 1.551.896-.484.983-2.674.86-3.484-.484-3.262-.412-8.151-4.471-9.036-.931-.203-2.101-.334-2.997.09-1.213.573-.173 2.569.405 3.281.498.619 1.776 1.168 2.506 1.327.982.215.895-2.426 1.242-2.27.628.282 1.004 4.322-.202 4.517-1.156.187-3.034-1.486-3.748-2.18-2.312-2.229-5.453-4.507-.455-6.046.729-.226 3.611-.35 4.311-.27z" fill="#45C8DA"/></svg>