<svg width="348" height="484" fill="none" xmlns="http://www.w3.org/2000/svg"><path d="M9 466.409h1.665l2.894 7.067h.106l2.895-7.067h1.664v9.091H16.92v-6.579h-.084l-2.681 6.565H13.07l-2.68-6.569h-.085v6.583H9v-9.091z" fill="#fff"/><path stroke="#717171" d="M1 458h25v25H1z"/><path fill="#fff" d="M3 460h3v1H3zm19 0h2v1h-2zM8 478h11v2H8zm31.372-11.591v9.091H38v-9.091h1.372z"/><path stroke="#717171" d="M26 458h25v25H26z"/><path fill="#fff" d="M28 460h3v1h-3zm18 0h3v1h-3zm-11 18h7v2h-7zm28.337-11.591v9.091h-1.26l-4.621-6.668h-.084v6.668H56v-9.091h1.27l4.625 6.676h.084v-6.676h1.358zm4.833 9.228c-.671 0-1.25-.143-1.735-.43a2.92 2.92 0 01-1.119-1.221c-.26-.527-.39-1.144-.39-1.851 0-.698.13-1.314.39-1.847.264-.532.63-.948 1.101-1.247.474-.299 1.027-.448 1.66-.448.385 0 .758.063 1.119.191.36.127.685.327.972.599.287.272.513.626.68 1.061.165.432.248.957.248 1.576v.47h-5.42v-.994h4.12a1.96 1.96 0 00-.214-.928 1.615 1.615 0 00-.6-.644 1.682 1.682 0 00-.896-.235 1.74 1.74 0 00-.977.275 1.852 1.852 0 00-.639.711c-.148.29-.222.605-.222.945v.777c0 .456.08.843.24 1.163.163.32.39.564.68.732.29.166.628.249 1.016.249.251 0 .48-.036.688-.107a1.427 1.427 0 00.883-.865l1.256.226c-.1.37-.28.694-.541.972-.258.276-.582.49-.972.644-.388.151-.83.226-1.328.226z"/><path stroke="#717171" d="M51 458h25v25H51z"/><path fill="#fff" d="M53 460h2v1h-2zm18 0h3v1h-3zm-14 18h13v2H57zM6.116 449.25v-9.091h3.33c.644 0 1.179.106 1.602.319.423.211.74.496.95.857.21.358.315.762.315 1.212 0 .379-.07.698-.209.959a1.712 1.712 0 01-.56.621c-.23.154-.484.267-.763.338v.088c.302.015.597.113.884.293.29.178.53.431.719.759.19.329.284.728.284 1.199 0 .464-.11.882-.329 1.252-.216.367-.55.658-1.003.874-.453.213-1.031.32-1.735.32H6.116zm1.372-1.177h1.98c.656 0 1.127-.127 1.411-.381a1.23 1.23 0 00.426-.955c0-.287-.072-.55-.217-.79a1.55 1.55 0 00-.622-.572 1.992 1.992 0 00-.95-.214H7.488v2.912zm0-3.981h1.837c.308 0 .585-.059.83-.178a1.45 1.45 0 00.59-.497 1.32 1.32 0 00.223-.764c0-.375-.132-.691-.395-.945-.264-.255-.668-.382-1.212-.382H7.488v2.766zm9.639 5.295c-.672 0-1.25-.143-1.736-.43a2.92 2.92 0 01-1.118-1.221c-.26-.527-.391-1.144-.391-1.851 0-.698.13-1.314.39-1.847.264-.532.63-.948 1.101-1.247.474-.299 1.027-.448 1.66-.448.385 0 .758.063 1.12.191.36.127.684.327.971.599.287.272.514.626.68 1.061.165.432.248.957.248 1.576v.47h-5.42v-.994h4.12a1.96 1.96 0 00-.214-.928 1.615 1.615 0 00-.599-.644 1.682 1.682 0 00-.896-.235c-.373 0-.699.092-.977.275a1.852 1.852 0 00-.64.711 2.05 2.05 0 00-.221.945v.777c0 .456.08.843.24 1.163.162.32.389.564.679.732.29.166.629.249 1.016.249.252 0 .481-.036.688-.107a1.427 1.427 0 00.883-.865l1.257.226c-.1.37-.281.694-.542.972a2.61 2.61 0 01-.972.644c-.388.151-.83.226-1.327.226z"/><path stroke="#717171" d="M1 433h25v25H1z"/><path fill="#fff" d="M3 435h3v1H3zm19 0h2v1h-2zM8 453h11v2H8zm105.988 19.856h-.816v.864h-4.296v-.816h-.864v-.876h1.692v.828h2.58v-1.668h-3.408v-.864h-.864v-1.728h.816v-.852h3.444v.816h.864v.864h-1.692v-.828h-1.716v1.668h3.408v.864h.852v1.728zm6.598.864h-1.692v-1.704h-2.544v1.704h-1.74v-4.272h.816v-.852h.864v-.852h2.58v.816h.864v.852h.852v4.308zm-1.716-2.58v-1.728h-.852v-.816h-.876v.864h-.816v1.68h2.544zm7.881-.852h-.816v.852h-.852v2.58h-1.74v-2.532h-.852v-.864h-.864v-2.58h1.692v2.544h1.704v-2.544h1.728v2.544zm8.133 0h-.816v.852h-.852v2.58h-1.74v-2.532h-.852v-.864h-.864v-2.58h1.692v2.544h1.704v-2.544h1.728v2.544zm7.138 3.384h-6.048v-6.036h6.048v.84h-4.308v1.716h2.58v.888h-2.58v1.716h4.308v.876zm6.489-.816h-.816v.864h-4.296v-.816h-.864v-.876h1.692v.828h2.58v-1.668h-3.408v-.864h-.864v-1.728h.816v-.852h3.444v.816h.864v.864h-1.692v-.828h-1.716v1.668h3.408v.864h.852v1.728z"/><rect x="96" y="458" width="66" height="25" rx="12.5" stroke="#717171"/><path d="M11.072 360.296v1.68h5.148v1.728h-5.1v1.716h-.876v-5.124h.828zm4.284-7.882v.816h.864v4.296h-.816v.864h-4.308v-.816h-.852v-4.308h.816v-.852h4.296zm0 1.716h-4.26v2.544h4.26v-2.544zm-4.284-8.564v1.68h5.148v1.728h-5.1v1.716h-.876v-5.124h.828zm5.148-7.882v1.692h-2.556v2.544h2.556v1.74h-5.976v-1.692h2.544v-2.556h-2.544v-1.728h5.976zm-.048-6.706v6.048h-6.036v-6.048h.84v4.308h1.716v-2.58h.888v2.58h1.716v-4.308h.876zm.048-8.025v1.692h-2.556v.84h.84v.864h-.84v.84h2.556v1.74h-5.976v-1.692h.816v-.864h.876v-.828h-.84v-.864h-.852v-1.728h5.976zm-.864-6.597v.816h.864v4.296h-.816v.864h-4.308v-.816h-.852v-4.308h.816v-.852h4.296zm0 1.716h-4.26v2.544h4.26v-2.544zm0-8.314v.816h.864v4.296h-.816v.864h-4.308v-.816h-.852v-4.308h.816v-.852h4.296zm0 1.716h-4.26v2.544h4.26v-2.544zm.864-8.314v1.692h-.816v.852h-.864v.852h-.876v.84h2.556v1.74h-5.976v-1.692h.816v-.864h.852v-.852h.876v-.84h-2.544v-1.728h5.976zm0-8.132v1.692h-1.704v2.544h1.704v1.74h-4.272v-.816h-.852v-.864h-.852v-2.58h.816v-.864h.852v-.852h4.308zm-2.58 1.716h-1.728v.852h-.816v.876h.864v.816h1.68v-2.544zm2.58-8.314v1.692h-.816v.852h-.864v.852h-.876v.84h2.556v1.74h-5.976v-1.692h.816v-.864h.852v-.852h.876v-.84h-2.544v-1.728h5.976zm-1.716-6.598v.816h.852v.852h.864v4.308h-5.976v-4.26h.816v-.864h.852v-.852h2.592zm0 1.716h-2.592v.852h-.816v1.692h4.26v-1.728h-.852v-.816zm.852-9.849v.816h.864v5.16h-5.976v-5.124h.816v-.852h1.728v.828h.84v-.828h1.728zm-2.568 1.716h-1.692v2.544h1.692v-2.544zm2.568 0h-1.692v2.544h1.692v-2.544zm.864-8.313v1.692h-1.704v2.544h1.704v1.74h-4.272v-.816h-.852v-.864h-.852v-2.58h.816v-.864h.852v-.852h4.308zm-2.58 1.716h-1.728v.852h-.816v.876h.864v.816h1.68v-2.544zm-1.716-8.314v1.692h-.828v1.692h.828v.876h2.556v-.84h.876v-1.692h-.828v-1.728h.828v.816h.864v3.444h-.816v.852h-.864v.864h-2.592v-.816h-.852v-.864h-.852v-3.444h.816v-.852h.864zm4.296-6.597v2.544h-.816v.852h-.888v.84h1.704v1.74h-5.976v-1.692h2.544v-.84h-.84v-.852h-.852v-.864h-.852v-1.728h.828v.816h.852v.852h.864v.876h.84v-.828h.852v-.864h.864v-.852h.876z" fill="#fff"/><circle cx="13.5" cy="397.5" r="6.318" stroke="#fff"/><path d="M13.5 385v25M1 397.5h25" stroke="#717171"/><path fill="#717171" d="M182 465h1.164v11H182zm10.476 0h1.164v11h-1.164zm16.296 0h1.164v11h-1.164z"/><path fill="#fff" d="M225.069 465h.582v11h-.582zm10.476 0h.582v11h-.582z"/><path fill="#717171" d="M184.328 465h1.164v11h-1.164zm11.64 0h1.164v11h-1.164zm15.133 0h1.164v11h-1.164z"/><path fill="#fff" d="M227.397 465h.582v11h-.582zm10.476 0h.582v11h-.582zm2.328 0h.582v11h-.582zm4.656 0h.582v11h-.582zm3.492 0h.582v11h-.582zm3.492 0h.582v11h-.582zm9.312 0h.582v11h-.582z"/><path fill="#717171" d="M256.497 465h2.91v11h-2.91zm8.149 0h1.746v11h-1.746zm4.656 0h1.746v11h-1.746zm3.492 0h1.746v11h-1.746zm4.656 0h1.746v11h-1.746zm3.492 0h1.746v11h-1.746zm4.656 0h1.746v11h-1.746z"/><path fill="#fff" d="M289.09 465h.582v11h-.582zm2.328 0H292v11h-.582z"/><path fill="#717171" d="M187.82 465h2.328v11h-2.328zm11.64 0h1.746v11h-1.746zm16.297 0h1.746v11h-1.746zm3.492 0h1.746v11h-1.746zm-16.297 0h4.074v11h-4.074zm26.773 0h4.074v11h-4.074z"/><path d="M347 470.5c0 3.714-2.782 6.5-6.182 6.5-3.4 0-10.818-6.5-10.818-6.5s7.418-6.5 10.818-6.5c3.4 0 6.182 2.786 6.182 6.5zm-35 0c0 3.714 2.945 6.5 6.545 6.5S330 470.5 330 470.5s-7.855-6.5-11.455-6.5c-3.6 0-6.545 2.786-6.545 6.5z" stroke="#fff"/><path fill="#717171" d="M13 45h1v188h-1z"/><path d="M13.5 0l.884 11.616L26 12.5l-11.616.884L13.5 25l-.884-11.616L1 12.5l11.616-.884L13.5 0z" fill="#D9D9D9"/></svg>