<svg width="160" height="117" fill="none" xmlns="http://www.w3.org/2000/svg"><path d="M148.696 116.156c-4.87-5.694-7.245-10.212-14.395-13.155-9.163-3.771-26.611-7.123-36.091-13.958-6.842-4.932-8.662-14.247-14.885-19.84-5.344-4.801-6.856-5.42-13.374-8.318 7.102-7.093-8.605-21.239-2.875-1.369-12.053-8.932-24.694-11.36-35.77-22.003-.994-.954-5.727-7.52-8.91-13.207a54.1 54.1 0 01-1.318-2.494c-1.3-2.642-1.198-6.147-1.198-6.147s4.168-5.985 4.73-10.482c.612-4.877-5.485-7.914-6.303-1.664-.46 3.51-.186 5.484-.078 9.021-2.973-3.021-4.836-6.717-8.193-9.307C8.72 2.218-.3-2.179.007 3.782c.436 8.45 17.926 12.584 17.926 12.584s1.04 3.838 2.326 6.417c2.97 5.955 8.392 14.307 13.48 18.282 6.793 5.308 17.693 10.173 25.035 14.693 4.61 2.837 3.113 1.447 7.83 4.54-.253.07-17.437 1.19-11.768 5.59 6.083 4.724 14.4-4.173 14.4-4.173s9.62 3.807 14.457 9.84c7.55 9.415 11.945 18.35 18.102 21.132 10.163 4.591 19.92 5.984 30.173 10.372 4.017 1.718 4.871 1.369 8.839 4.855 3.969 3.486 7.035 9.086 7.035 9.086l.854-.844z" fill="#45C8DA"/><path d="M40.284 41.37c.034-.15.141-.304.095-.45-.515-1.64-1.027-3.294-1.768-4.846-.847-1.766-2.176-2.892-3.285-4.406-.66-.9-2.264-1.99-1.856-3.262.225-.696.777-1.028 1.443-1.237 2.112-.661 4.132.651 5.375 2.359 1.258 1.74 2.03 4.564 1.906 6.688-.076 1.301-.73 2.482-.947 3.763m.842-.557c.437-3.144.972-6.338 1.63-9.442.44-2.06 1.388-4.234 2.97-5.65 1.208-1.082 2.598-.781 2.842.907.118.804-.162 1.54-.364 2.295-.913 3.373-3.464 5.764-5.256 8.638m-2.165 5.626c1.518-3.646 4.448-7.744 8.616-8.46 1.385-.238 2.9-.04 4.134.743 1.4.892 2.13 3.264.897 4.507-2.224 2.24-5.64 1.46-8.423 1.742-1.36.137-3.077-.106-4.144.926" fill="#E5ADD6"/></svg>