<svg width="98" height="98" fill="none" xmlns="http://www.w3.org/2000/svg"><path d="M65.432 74.84c2.183.46 5.881 2.296 11.374-6.31 2.338-3.665-.213-10.568-2.846-10.5-.007-8.616 2.185-7.835-.293-15.589-3.773-11.803-13.918-7.634-5.95-22.587-8.813-.923-8.76 19.924-9.426 28.95-13.253-22.553-23.337-4.534-31.121-8.913-4.47-2.513-5.713-7.325-6.68-12.35-.514 6.962-.662 16.726 3.995 21.93 5.733 6.421 12.768 5.68 19.25 10.898 2.5 2.011 3.898 3.313 5.272 5.834-6.721.06-9.788-7.746-16.286-6.9-4.607.603-6.376 1.22-10.7-.837-4.166-1.975-7.345-6.01-9.814-9.125 9.36 18.81 12.554 33.915 36.153 29.18-6.588 11.34 13.64 8.946 17.072-3.682z" fill="#7746FF"/><path fill-rule="evenodd" clip-rule="evenodd" d="M61.413 67.836c.076.746 1.104 1.849 1.753 1.523 1.113-.56 1.716-1.756 2.298-2.908.153-.303.304-.603.463-.888.184-.33.22-.721.256-1.114.021-.223.042-.446.09-.659.019-.084.058-.215.105-.376.239-.807.71-2.4.193-3.028-.647-.772-2.289 1.041-2.578 1.384-1.592 1.882-2.835 3.51-2.58 6.066zm-1.488 1.071c.08-.181.17-.359.258-.536.178-.357.357-.713.463-1.098.535-1.958-2.214-5.174-3.842-6.212a2.629 2.629 0 01-.417-.365c-.25-.253-.5-.504-.82-.48-.901.066-.487 1.341-.278 1.987.036.112.066.205.082.27.472 1.978 1.375 3.464 2.855 4.87l1.7 1.564zm-1.11-.223c.36.444.845 1.201.503 1.6-.579.677-1.271.492-2.128.262a14.925 14.925 0 00-.92-.222c-.564-.124-1.13-.248-1.68-.44-.102-.037-.254-.084-.438-.141-1.034-.321-3.083-.956-3.111-1.797-.038-.956 2.01-1.455 2.666-1.36 1.431.214 4.135.882 5.109 2.098z" fill="#E5BB00"/></svg>