<svg width="94" height="71" fill="none" xmlns="http://www.w3.org/2000/svg"><path fill-rule="evenodd" clip-rule="evenodd" d="M93.345 10.601c-5.449-.32-9.81-4.604-10.136-9.957H66.791c-.326 5.353-4.687 9.637-10.136 9.957v48.797c5.449.32 9.81 4.605 10.136 9.958h16.418c.326-5.353 4.687-9.637 10.136-9.957V10.602zM94 9.977C88.391 9.977 83.845 5.51 83.845 0h-17.69c0 5.51-4.547 9.977-10.155 9.977v50.046c5.608 0 10.155 4.467 10.155 9.977h17.69c0-5.51 4.546-9.977 10.155-9.977V9.977z" fill="#717171"/><path fill-rule="evenodd" clip-rule="evenodd" d="M86.4 18.239V51.76c0 4.068-3.29 7.366-7.35 7.366h-8.1c-4.06 0-7.35-3.298-7.35-7.366V18.239c0-4.068 3.29-7.366 7.35-7.366h8.1c4.06 0 7.35 3.298 7.35 7.366zm-.6 25.404V18.239c0-3.736-3.022-6.765-6.75-6.765h-8.1c-3.728 0-6.75 3.029-6.75 6.765v25.404h21.6zm0 8.117v-7.516H64.2v7.516c0 3.736 3.022 6.764 6.75 6.764h8.1c3.728 0 6.75-3.028 6.75-6.764z" fill="#717171"/><path d="M79.471 17.032v-1.707h-.676v1.366h-.35v-1.357h-1.033v-.697h2.39v2.395h-.33zm-2.04 5.333V19.94h2.415v2.424h-.336v-1.727h-.687v1.034h-.355v-1.034h-.686v1.727h-.35zm0 2.645v-2.425h2.415v2.424h-.336v-1.726h-.687v1.034h-.355v-1.034h-.686v1.726h-.35zm-.019 3.216v-1.02h.327v-.341h.355v-.337h-.682v-.697h2.39v.678h-1.017v.337h.336v.341h.34v.347h.342v.692h-.332V27.9h-.34v-.341h-.346v-.352h-.336v.332h-.34v.347h-.346v.341h-.35zm0 2.544v-2.054h.336v.678h1.704v-.678h.35v2.054h-.33v-.678h-1.71v.678h-.35zm.346 2.746v-.328h-.346v-1.722h.327v-.346h.35v.678h-.331v1.035h.667v-1.366h.346v-.347h.69v.327h.342v1.38h-.327v.347h-.345v-.678h.33v-.688h-.666v1.366h-.346v.342h-.691zm0 2.644v-.327h-.346v-1.722h.327v-.346h.35v.678h-.331v1.034h.667v-1.366h.346v-.346h.69v.327h.342v1.38h-.327v.347h-.345v-.678h.33v-.688h-.666v1.366h-.346v.341h-.691zm-.327 2.688v-2.424h2.415v2.424h-.336v-1.727h-.687v1.035h-.355V37.12h-.686v1.727h-.35zm.327 2.602v-.327h-.346V39.4h.327v-.347h.35v.678h-.331v1.035h.667V39.4h.346v-.346h.69v.327h.342v1.38h-.327v.347h-.345v-.678h.33v-.688h-.666v1.366h-.346v.342h-.691zm-6.75-24.745v.327h2.045v-.692h-2.045v-1.025h2.045v-.678h-2.064v.346h-.327v1.722h.346zm0 2.645v.327h.691v-.342h.346V17.97h.667v.688h-.331v.678h.345v-.346h.327v-1.38h-.341v-.328h-.691v.347h-.346v1.366h-.667V17.96h.331v-.679h-.35v.347h-.327v1.722h.346zm-.327.59v2.425h.35v-1.727h.687v1.034h.355v-1.034h.687v1.727h.336V19.94H70.68zm.327 4.7v.326h.691v-.341h.346v-1.366h.667v.688h-.331v.678h.345v-.347h.327v-1.38h-.341v-.327h-.691v.346h-.346v1.366h-.667V23.25h.331v-.678h-.35v.346h-.327v1.722h.346zm.816 1.378h-.375v1.165h.375v-1.165zm-.816 4.047v.327h2.045v-.693h-2.045v-1.024h2.045v-.679h-2.064v.347h-.327v1.722h.346zm-.346 2.293v.678h2.39v-.692h-1.017v-.337h.35v-.341h.341v-.347h.327v-.678h-2.39v.698h1.022v.336h-.35v.342h-.346v.341h-.327zm0 .754v2.054h.35v-1.375h2.04v-.678h-2.39zm0 3.058v2.055h.35v-.678h1.71v.678h.33V36.17h-.35v.678h-1.704v-.678h-.336zm0 4.122v.678h2.39v-.692h-.34v-.346h-.336V39.6h.35v-.347h.327v-.678h-2.39v.697h1.022v.337h-.336v.347h.336v.336h-1.023zM82.8 49.919h.742v-3.174h-.758v1.351h-.368v-.465h-.373v-.453h-.38v-.433h-.741v3.174h.763v-1.358h.368v.466h.374v.459h.373v.433zm-7.936-.459h-.358v.459h-1.883v-.433h-.38v-2.741h.743v2.715h1.12v-2.715h.758v2.715zm-5.785-1.823h-.742v-.44h-.742v.44h-.384v1.358h.368v.465h.742v-.44h.758v.44h-.358v.459h-1.51v-.433h-.374v-.46h-.379V47.65h.358v-.453h.379v-.452h1.51v.433h.374v.46z" fill="#fff"/><path fill-rule="evenodd" clip-rule="evenodd" d="M78.444 18.999v.678h1.032v-.342h.327v-2.054h-2.39v.698h.68v.337h-.354v.341h-.327v1.02h.35v-.342h.346V19h.336zm.341-.01h.677v-1.02h-1.018v.693h.341v.327zM71.971 49.46h-.358v.459H69.73v-.433h-.379v-2.289h.358v-.452h1.889v.433h.373v2.282zm-.752 0v-2.263h-1.116v2.263h1.116zm9.431 0h-.359v.459h-1.883v-.433h-.379v-2.289h.358v-.452h1.889v.433h.373v2.282zm-.753 0v-2.263H78.78v2.263h1.116zm-2.498-.911h.358v-1.37h-.374v-.434h-2.246v3.174h.762v-.911h1.5v-.46zm-.395-1.352v1.352H75.89v-1.352h1.115z" fill="#fff"/><path d="M36 63.5c0 3.714-2.782 6.5-6.182 6.5C26.418 70 19 63.5 19 63.5S26.418 57 29.818 57c3.4 0 6.182 2.786 6.182 6.5zm-35 0C1 67.214 3.945 70 7.545 70S19 63.5 19 63.5 11.146 57 7.545 57C3.945 57 1 59.786 1 63.5z" stroke="#fff"/></svg>