<svg width="24" height="24" fill="none" xmlns="http://www.w3.org/2000/svg"><path fill-rule="evenodd" clip-rule="evenodd" d="M7.696 2.006c-.902 2.702.201 9.31 2.731 8.363 2.538-.95.66-5.424-.475-7.95l-.026-.059C9.715 1.877 8.798-.22 8.284.02c-.166.077-.34.882-.464 1.459-.05.236-.094.434-.124.528zM1.182 8.899c1.569.386 5.145 1.612 4.2 3-.8 1.165-2.696-.424-3.973-1.495-.176-.147-.34-.285-.488-.405l-.043-.035C.66 9.786-.13 9.141.018 8.767c.112-.27.481-.124.82.01.124.05.243.097.344.122zm14.03 3.796c-1.693-1.34 1.888-3.219 3.666-4.073.026-.017 1.148-.685 1.276-.617.57.303-.62 1.618-.732 1.71-.37.317-.762.784-1.165 1.264-1.006 1.197-2.08 2.475-3.045 1.716zm-.438 5.442c.042-.496.5-.928.931-1.245.305-.225.634-.226.987-.228.158 0 .32-.002.487-.022 1.945-.242 3.627 1.215 5.002 2.405l.375.323c.39.338 1.812 1.61 1.354 2.138-.071.081-.65-.017-1.108-.094a4.842 4.842 0 00-.534-.075c-.366.007-.763.037-1.172.068-.999.077-2.067.159-2.927-.088-.535-.153-.917-.496-1.298-.838a6.271 6.271 0 00-.59-.489 7.91 7.91 0 00-.438-.283c-.595-.367-1.13-.696-1.069-1.572zm-3.503.373c-.647.183-.705 1.07-.755 1.83-.011.174-.022.34-.04.491-.06.574.073 1.148.204 1.717.038.162.075.324.108.486.07.364.234 1.08.584.95.374-.136.473-.981.518-1.366.008-.065.014-.117.02-.15.024-.133.055-.29.09-.464.28-1.416.776-3.92-.729-3.494zm-8.24-2.167c1.83-.911 3.852-1.69 4.722.218 1.193 2.585-2.187 5.094-4.73 6.494-.539.297-2.61 1.34-2.933.785-.138-.232-.089-.516-.04-.797.022-.125.043-.25.048-.37.042-1.132 1.856-5.797 2.933-6.33z" fill="#E5BB00"/></svg>