<svg width="7" height="14" fill="none" xmlns="http://www.w3.org/2000/svg"><path fill-rule="evenodd" clip-rule="evenodd" d="M.583 5.04c.057-.286.072-.59.087-.894.03-.613.06-1.227.433-1.702C1.887 1.447 3.134.828 4.302.248l.067-.033s2.156-.507 2.505.036c.795 1.217-2.382 3.305-3.768 4.215-.223.147-.4.263-.506.34L.583 5.04zm1.75 1.405c.114.135.208.296.303.458.19.322.379.644.72.76.847.285 1.792.166 2.68.054l.036-.005c1.773-.223.62-1.81-.286-2.076-.242-.072-.5-.022-.761.03a3.443 3.443 0 01-.392.061l-2.3.718zM.037 10.502c.217-.731.943-1.467 1.717-1.54.421-.039.686.365.947.763.118.18.236.359.366.494.258.276.508.566.734.873 2.708 3.735-1.677 3.543-3.047 1.28-.06-.1-.127-.201-.194-.305-.323-.495-.676-1.037-.523-1.565z" fill="#E5BB00"/></svg>