<svg width="13" height="13" fill="none" xmlns="http://www.w3.org/2000/svg"><path fill-rule="evenodd" clip-rule="evenodd" d="M5.202 2.068C5.264 1.271 5.664.171 6.43.03c.53-.098 1.053.064 1.58.227.317.098.635.196.956.238l.316.04c.532.065 1.043.128 1.573.281.269.078 2.426.71 2.116 1.063-.035.043-.096.027-.16.011a.356.356 0 00-.11-.017c-.28.022-.55.125-.817.228-.093.035-.185.07-.278.103-.378.13-.745.277-1.107.422-1.299.522-2.537 1.02-4.041.62a5.23 5.23 0 00-.141-.034c-.256-.06-.615-.143-.742-.324l-.028-.038c-.173-.233-.37-.497-.344-.782zm-.728 1.653c-.466.146-.306 1.153-.195 1.714.087.422.283.799.478 1.172l.072.138c.428.86 1.217 1.215 1.975 1.556.19.085.376.17.556.26.046.023.128.078.225.143.237.159.565.379.679.333.153-.057-.049-1.794-.098-2.042-.368-1.886-1.585-2.943-3.045-3.604l-.647.33zm-.88.345c-.71-.158-1.502-.176-2.174.156-.298.15-.49.49-.674.82a8.094 8.094 0 01-.163.282C-.262 6.667-.036 8.826.31 10.317c.047.192 1.057 2.681 1.09 2.683.019 0 .109-.316.193-.613.068-.24.132-.468.153-.507.133-.228.282-.467.437-.714.481-.77 1.012-1.621 1.239-2.458.246-.92.24-1.778.193-2.73l-.02-1.912z" fill="#E5BB00"/></svg>