<svg width="21" height="19" fill="none" xmlns="http://www.w3.org/2000/svg"><path d="M12.916 0c-.15-.036-2.779 1.817-3.061 3.16-.499 2.364.897 5.915 3.083 5.066 2.252-.874 1.156-3.812.627-6.098-.064-.273-.467-2.083-.649-2.127zM6.011 5.946c-1.625-.104-3.263.767-3.263.767S-.008 7.33 0 7.414c.01.119 1.587 2.391 1.587 2.391s4.486 5.127 7.039 2.457c1.56-1.633 1.15-4.372-1.05-5.812a3.207 3.207 0 00-1.565-.505zm13.948.197c-.766.024-1.53.765-2.372 1.075-.904.333-2.259.955-2.816 1.755-.717 1.029-.612 3.488.983 3.772.875.157 1.68-.557 2.213-1.118.282-.297.655-.45.938-.746.875-.91 2.82-3.718 1.812-4.475-.257-.194-.508-.27-.758-.263zM12 13.491c-.367.101-.658.413-.872.723-.032.048-.03.835-.022.987.1 1.86 4.038-.235 1.855-1.426-.3-.164-.636-.375-.96-.284zm-4.894 1.162c-1.64.2-3.7 1.013-5.028 1.162-2.195.247 6.894 6.032 7.554 1.382.329-2.325-.885-2.743-2.526-2.544z" fill="#E5BB00"/></svg>