<svg width="19" height="14" fill="none" xmlns="http://www.w3.org/2000/svg"><path fill-rule="evenodd" clip-rule="evenodd" d="M10.275 2.846c.547-.671.61-2.407-.182-2.668C8.731-.27 7.264.215 5.851.682c-.372.123-.74.244-1.1.348-.42.12-.768.41-1.118.7-.199.165-.398.33-.61.465a9.07 9.07 0 01-.393.221C1.778 2.88.095 3.796.003 4.73c-.103 1.156 2.71 1.011 3.226.967 2.83-.24 5.168-.558 7.046-2.851zm2.084.336c-.213.082-.43.155-.647.228-.436.146-.872.292-1.272.519C8.407 5.092 8.018 9.95 8.496 12.12c.043.196.042.417.04.637-.001.41-.003.819.276 1.059.787.679 1.491-.698 1.847-1.395.062-.121.114-.222.153-.287 1.231-1.999 1.709-3.945 1.652-6.295l-.105-2.658zm.72 1.084c.07-.654.294-1.667.897-1.714 1.024-.082 1.435.633 1.945 1.517.11.19.225.39.351.59l.216.339c.357.56.716 1.121 1.005 1.725.054.113.14.275.242.472.58 1.102 1.728 3.287 1.065 3.995-.75.81-2.822-.446-3.278-1.058-.99-1.338-2.644-4.082-2.443-5.866z" fill="#E5BB00"/></svg>