<svg width="25" height="19" fill="none" xmlns="http://www.w3.org/2000/svg"><path fill-rule="evenodd" clip-rule="evenodd" d="M12.055 11.887c.063.015.126.03.18.056l.764-.565c2.152-1.987 2.248-5.993 1.757-8.771-.018-.106-.032-.336-.05-.618-.048-.764-.12-1.909-.358-1.986-.256-.083-1.234 1.567-1.681 2.32-.088.15-.156.264-.193.322l-.125.198c-.73 1.154-1.399 2.21-1.585 3.681a25.35 25.35 0 01-.07.49c-.103.68-.206 1.369-.08 2.033.177.96.66 1.833 1.13 2.668.06.111.186.142.311.172zm4.765 2.773c-1.22.044-2.768.19-3.46 1.08-.085.109.048.223.18.336.065.057.13.113.17.168.431.632 2.068 2.014 2.842 2.24 1.042.31 1.98.44 3.073.325.42-.044 1.086.015 1.808.078 1.287.113 2.752.242 3.32-.166.118-.081.267-.195.245-.32 0-.005-.438-.255-.972-.561-.769-.44-1.74-.997-1.893-1.098-.269-.175-.517-.36-.762-.54-.664-.492-1.298-.961-2.222-1.176a45.14 45.14 0 01-.322-.076c-.661-.157-1.328-.315-2.007-.29zm-7.931-.173c-.627-1.102-1.904-1.741-3.083-2.173-1.313-.482-1.97-.405-3.193-.263H2.61c-.419.048-.804.19-1.185.33-.353.129-.703.257-1.074.31a.318.318 0 01-.13-.022c-.065-.02-.127-.039-.172.001-.385.344 1.61 2.285 1.881 2.437.177.097.372.22.579.35.546.344 1.165.734 1.68.81.482.071.957-.074 1.423-.217.236-.072.47-.144.7-.186.222-.04.404-.047.567-.053.364-.012.63-.021 1.028-.405l.982-.919zm2.93-.861l.144.019c1.656.206.484 2.142-.828 2.097-.288-.01-1.194-.406-1.132-.692a6.7 6.7 0 00.05-.214c.094-.411.194-.85.56-1.11.306-.221.789-.156 1.206-.1z" fill="#E5BB00"/></svg>