<svg width="24" height="21" fill="none" xmlns="http://www.w3.org/2000/svg"><path d="M10.296 10c-1.034-.748-2.16-1.376-3.09-2.247A7.856 7.856 0 015.55 5.586c-.261-.522-.255-2.481.367-2.912.746-.525 2.088.269 2.67.707 2.115 1.597 2.259 2.934 2.678 5.372M12.742 9c-.04-2.163.033-4.47.963-6.417.83-1.753 4.455-4.278 4.877-.97.31 2.453-1.878 4.73-3.704 5.923m-6.552 3.965c-1.625-1.008-3.638-1.29-5.535-1.497-.285-.031-.556.152-.802.3-.68.415-1.424.78-1.942 1.38-.143.167.07.45.2.63 1.068 1.547 4.532 1.4 5.917.584m7.725.721c-.305-.188-.971-.172-1.052.186-.25 1.138.006 2.352.236 3.495.274 1.326 1.096 2.93 2.397 3.494 1.842.8 2.496-.88 2.004-2.473-.579-1.881-1.986-3.72-3.585-4.702zm9.189-5.406c-.237-.385-.692-.731-1.14-.712-1.903.081-3.814.396-5.619 1-.85.285-1.495 1.005-2.167 1.605-1.16 1.038.25 2.206 1.14 2.772 2.114 1.353 7.746.45 8.642-2.23.284-.85-.421-1.737-.856-2.435z" fill="#E5ADD6"/></svg>