<svg width="24" height="16" fill="none" xmlns="http://www.w3.org/2000/svg"><path d="M12.569 10.286c-.152-.339-.38-.648-.456-1.017-.303-1.568-.752-3.15-.676-4.751.048-1.106.614-2.12 1.049-3.122.504-1.177 2.443-2.08 3.188-.699.801 1.476-.082 4.06-.462 5.52-.276 1.071-.718 2.068-1.18 3.054m-3.751.711c-.397-3.018-2.803-5.477-4.813-7.763-.603-.688-3.69-.853-3.75.672-.13 3.283 3.712 5.129 6.119 6.37.733.379 2.551 1.58 2.444.72zm-.567 1.404c-.37-.293-.68-.705-1.118-.88-1.429-.574-2.896-1.18-4.421-1.344-.93-.1-1.874.236-2.751.577-.378.15-.627.54-.907.85-1.64 1.796 1.005 4.637 2.585 5.19 2.055.722 4.345-.465 6.129-1.397m3.117-2.508c-.103.243-.453.498-.318.728.382.669 1.057 1.143 1.677 1.627.31.247 1.86.82 2.17.919 1.215.384 3.511.424 4.632-.197.628-.345 1.08-.887 1.692-1.252.485-.286 1.026-.382 1.391-.818 1.152-1.357-.35-3.506-1.883-3.647-3.179-.293-4.649.061-7.247 1.937" fill="#E5ADD6"/></svg>