<svg width="23" height="20" fill="none" xmlns="http://www.w3.org/2000/svg"><path d="M3.97 17.777c.084-.16.25-.303.242-.483-.083-2.02-.158-4.056-.52-6.045C3.277 8.984 2.13 7.3 1.347 5.244.879 4.02-.583 2.294.253.97.713.25 1.43.04 2.237.004 4.793-.106 6.656 2 7.53 4.317c.883 2.36.898 5.804.12 8.181-.474 1.456-1.56 2.6-2.186 3.99m1.106-.378c1.433-3.44 2.99-6.908 4.656-10.237C12.337 3.664 14.047 1.48 16.24.35c1.674-.862 3.135-.099 2.902 1.894-.11.95-.644 1.701-1.097 2.499-2.032 3.556-5.598 5.5-8.463 8.223m-4.106 5.739c2.79-3.684 7.292-7.452 12.162-7.001 1.618.15 3.25.835 4.393 2.1 1.296 1.44 1.399 4.356-.351 5.395-3.156 1.872-6.737-.053-9.93-.577-1.559-.256-3.404-1.054-4.905-.206" fill="#E5ADD6"/></svg>