<svg width="25" height="33" fill="none" xmlns="http://www.w3.org/2000/svg"><path d="M8.333 12.65C9.454 8.61 13.37-.013 19.043 0c1.441.003 3.902 1.296 4.761 2.481.16.224.386.94.56 1.229.074.128.547.644.583.774.255.905-.48 2.112-.983 2.77-1.15 1.499-3.997.608-5.562.643-2.65.059-5.715.905-7.448 3.045" fill="#E5ADD6"/><path d="M8.333 14.38c1.632-2.264 4.023-3.598 6.58-4.525 1.677-.606 6.625-.928 8.017.585 1.835 2.002.955 5.755-1.948 6.007-2.497.217-5.189-.274-7.626-.817-1.12-.25-1.7-.65-2.902-.555m-3.086.875c-2.164 1.445-2.26 2.282-2.364 4.787-.149 3.44 3.44 6.79 6.709 7.689 1.808.497 4.188-.154 5.819-.92 2.69-1.271 3.343-3.308 2.891-5.966-.111-.676-.2-1.135-.682-1.69-1.401-1.608-5.323-1.83-7.346-1.97-1.49-.104-3.055-.11-3.81-1.52" fill="#E5ADD6"/><path d="M3.914 19.25c-.575.519-1.293.91-1.724 1.557-.597.888-.884 1.954-1.3 2.944-1.085 2.585-1.487 5.383.603 7.6 1.688 1.794 3.936 2.547 5.33.057.072-.12.366-.674.388-.85.129-1.064-.927-1.462-1.308-2.282-1.048-2.244-2.162-5.22-1.357-7.74" fill="#E5ADD6"/></svg>